<?xml version="1.0" standalone="no"?>
<!DOCTYPE svg PUBLIC "-//W3C//DTD SVG 1.1//EN" "http://www.w3.org/Graphics/SVG/1.1/DTD/svg11.dtd" >
<svg xmlns="http://www.w3.org/2000/svg" xmlns:xlink="http://www.w3.org/1999/xlink" version="1.1">
<metadata>
Created by FontForge 20201107 at Wed May 15 22:32:52 2024
 By 
Copyright 2023 The Playwrite Project Authors (https://github.com/TypeTogether/Playwrite)
</metadata>
<defs>
<font id="PlaywriteVN-Regular" horiz-adv-x="0" >
  <font-face 
    font-family="Playwrite VN"
    font-weight="400"
    font-stretch="normal"
    units-per-em="1000"
    panose-1="0 0 0 0 0 0 0 0 0 0"
    ascent="800"
    descent="-200"
    x-height="515"
    cap-height="1272"
    bbox="-550 -777 1924.52 1737"
    underline-thickness="50"
    underline-position="-125"
    unicode-range="U+000D-25CC"
  />
<missing-glyph horiz-adv-x="1123" 
d="M171 1265h781v-1265h-781v1265zM257 1185v-1105h609v1105h-609z" />
    <glyph glyph-name=".notdef" horiz-adv-x="1123" 
d="M171 1265h781v-1265h-781v1265zM257 1185v-1105h609v1105h-609z" />
    <glyph glyph-name=".null" 
 />
    <glyph glyph-name="nonmarkingreturn" horiz-adv-x="333" 
 />
    <glyph glyph-name="CR" unicode="&#xd;" horiz-adv-x="300" 
 />
    <glyph glyph-name="space" unicode=" " horiz-adv-x="300" 
 />
    <glyph glyph-name="exclam" unicode="!" horiz-adv-x="485" 
d="M243 216q-44 0 -44 28v1001q0 14 11 20.5t33 6.5q44 0 44 -27v-1001q0 -14 -11 -21t-33 -7zM243 -14q-28 0 -42 15.5t-14 47.5t14 48t42 16q27 0 41 -16t14 -48q1 -32 -13.5 -47.5t-41.5 -15.5z" />
    <glyph glyph-name="quotedbl" unicode="&#x22;" horiz-adv-x="354" 
d="M89 841q-19 0 -24.5 9.5t-6.5 21.5l-15 268q-1 16 9.5 28t36.5 12t36.5 -12t9.5 -28l-15 -268q-1 -12 -6.5 -21.5t-24.5 -9.5zM274 841q-19 0 -24.5 9.5t-6.5 21.5l-15 268q-1 16 9.5 28t36.5 12t36.5 -12t9.5 -28l-15 -268q-1 -12 -6.5 -21.5t-24.5 -9.5z" />
    <glyph glyph-name="numbersign" unicode="#" horiz-adv-x="925" 
d="M166 -20q-43 10 -35 39l55 209h-158q-15 0 -21.5 9t-6.5 31q0 23 6.5 31.5t21.5 8.5h179l67 258h-159q-15 0 -21 9t-6 31q0 23 6 31.5t21 8.5h180l61 232q7 27 50 16q42 -12 35 -39l-55 -209h259l61 232q7 27 50 16q42 -12 35 -39l-55 -209h162q15 0 21 -8.5t6 -31.5
q0 -22 -6 -31t-21 -9h-183l-67 -258h162q15 0 21.5 -8.5t6.5 -31.5q0 -22 -6.5 -31t-21.5 -9h-183l-61 -232q-7 -25 -50 -16q-20 5 -29.5 15t-5.5 24l55 209h-259l-61 -232q-7 -25 -50 -16zM298 308h259l67 258h-259z" />
    <glyph glyph-name="dollar" unicode="$" horiz-adv-x="911" 
d="M432 -19q-42 0 -87.5 8.5t-90.5 26.5t-85 47.5t-71 71.5q-7 11 -6.5 20t14.5 23q14 15 23.5 16.5t28.5 -15.5q34 -35 74.5 -60t90 -39t109.5 -14q68 0 122 18t90.5 52t56 83t19.5 113q0 57 -19.5 97.5t-54 70.5t-81.5 52.5t-102 42.5q-47 18 -94.5 39t-89.5 49
t-74.5 66.5t-51.5 90.5t-19 122q0 74 25.5 131.5t71 97t106 60.5t130.5 21t126 -20t103 -52.5t90 -72.5q11 -10 9 -20.5t-12 -21.5q-13 -13 -24.5 -18t-22.5 3q-41 36 -83.5 62t-88 40.5t-97.5 14.5q-56 0 -100.5 -15t-75.5 -44t-47.5 -70.5t-16.5 -95.5q0 -66 21 -111
t58 -75.5t84.5 -53t100.5 -41.5q56 -20 113 -46.5t104.5 -65.5t76 -96.5t28.5 -140.5q0 -81 -27 -146t-77 -110.5t-120 -70t-157 -24.5zM462 -150q-40 0 -40 28v1513q0 27 40 27t40 -27v-1513q0 -28 -40 -28z" />
    <glyph glyph-name="percent" unicode="%" horiz-adv-x="1100" 
d="M291 728q-64 0 -113.5 35t-77 96.5t-27.5 141.5q0 47 10 88t29 75t45.5 58t60.5 37t73 13q65 0 113.5 -35t75.5 -96t27 -140q0 -48 -10.5 -89.5t-29 -75.5t-45 -58t-60 -37t-71.5 -13zM291 804q24 0 44 8t36 24t28 39.5t18 55t6 70.5q0 96 -37 145.5t-95 49.5
q-24 0 -44.5 -8t-37 -24t-28.5 -39.5t-18 -54.5t-6 -69q0 -97 37 -147t97 -50zM233 -9q-7 -12 -18 -11.5t-28 11.5q-19 11 -23 19.5t3 20.5l697 1231q7 11 17 11.5t29 -11.5t23.5 -19.5t-3.5 -20.5zM810 -19q-64 0 -113.5 35t-77.5 96.5t-28 140.5q0 48 10.5 89t29.5 75
t45.5 58t60.5 37t73 13q64 0 112.5 -35t75.5 -96t27 -141q0 -47 -10 -88.5t-29 -75.5t-45.5 -58t-59.5 -37t-71 -13zM810 58q23 0 43.5 8t36.5 24t28 39.5t18 54.5t6 69q0 97 -37 146.5t-95 49.5q-24 0 -44.5 -8t-37 -24t-28.5 -39.5t-18.5 -54.5t-6.5 -70
q0 -96 37.5 -145.5t97.5 -49.5z" />
    <glyph glyph-name="ampersand" unicode="&#x26;" horiz-adv-x="1139" 
d="M455 -19q-80 0 -145.5 26.5t-113.5 75t-74 116t-26 148.5q0 69 18.5 122.5t50.5 94.5t73 72.5t87 58.5q-43 52 -71 99t-41 94.5t-13 98.5q0 61 20.5 113t57.5 90.5t87.5 60t112.5 21.5q59 0 108 -19.5t85 -55t55.5 -83t19.5 -105.5q0 -56 -16.5 -99.5t-45 -77t-66 -60.5
t-79.5 -50.5t-86 -45.5l351 -395q42 72 65 162.5t23 196.5q0 14 10.5 20.5t32.5 6.5q21 0 32 -6.5t11 -20.5q0 -126 -30 -234t-84 -191l148 -167q11 -12 8 -24.5t-18 -27.5q-15 -14 -28 -16.5t-23 8.5l-140 159q-70 -79 -162 -122.5t-194 -43.5zM458 65q85 0 161.5 37.5
t134.5 107.5l-376 424q-39 -23 -73 -49t-60.5 -59.5t-41 -75.5t-14.5 -96q0 -91 34.5 -155.5t95 -99t139.5 -34.5zM400 735q39 21 77 41.5t70.5 42.5t57 49t38.5 59.5t14 74.5q0 57 -23.5 98.5t-63.5 64.5t-92 23q-57 0 -99 -26t-64.5 -71t-22.5 -104q0 -46 11.5 -87
t36 -81.5t60.5 -83.5z" />
    <glyph glyph-name="quotesingle" unicode="'" horiz-adv-x="169" 
d="M89 841q-19 0 -24.5 9.5t-6.5 21.5l-15 268q-1 16 9.5 28t36.5 12t36.5 -12t9.5 -28l-15 -268q-1 -12 -6.5 -21.5t-24.5 -9.5z" />
    <glyph glyph-name="parenleft" unicode="(" horiz-adv-x="408" 
d="M324 1278q-31 -68 -55.5 -142.5t-42 -156t-26.5 -169.5t-9 -182q0 -124 15.5 -239t46 -218t71.5 -192q11 -25 6 -35t-26 -18q-22 -9 -32.5 -6t-18.5 21q-49 103 -82.5 214t-50.5 229t-17 244q0 95 9.5 185t28.5 176.5t47 168t65 158.5q8 17 18.5 20.5t32.5 -5.5
q21 -9 26 -18.5t-6 -34.5z" />
    <glyph glyph-name="parenright" unicode=")" horiz-adv-x="408" 
d="M85 -21q31 67 55.5 142t41.5 156.5t26.5 169.5t9.5 182q0 124 -16 239t-45.5 218t-71.5 192q-11 25 -6 35t26 18q23 9 33 6t18 -21q49 -103 82 -214t50 -229t17 -245q0 -94 -9.5 -184.5t-28.5 -176.5t-47 -167.5t-64 -158.5q-8 -17 -18 -20.5t-33 5.5q-21 9 -26 18.5
t6 34.5z" />
    <glyph glyph-name="asterisk" unicode="*" horiz-adv-x="358" 
d="M179 887q-28 0 -28 21v125l-108 -62q-9 -5 -17.5 -2t-15.5 15q-14 24 5 35l108 63l-108 62q-8 5 -10 14t5 21q7 13 15.5 16t17.5 -2l108 -63v126q0 9 7 15t21 6q27 0 27 -21v-126l109 63q8 5 17 2t16 -16q14 -23 -5 -35l-108 -62l108 -63q8 -4 10.5 -13t-5.5 -22
q-7 -12 -16 -15t-17 2l-109 63v-126q0 -21 -27 -21z" />
    <glyph glyph-name="plus" unicode="+" horiz-adv-x="763" 
d="M381 155q-21 0 -31.5 6.5t-10.5 19.5v510q0 14 10.5 20.5t31.5 6.5q22 0 32.5 -6.5t10.5 -20.5v-510q0 -13 -10.5 -19.5t-32.5 -6.5zM113 398q-11 0 -18 10t-7 30q0 40 25 40h537q11 0 18 -10t7 -30q0 -40 -25 -40h-537z" />
    <glyph glyph-name="comma" unicode="," horiz-adv-x="313" 
d="M91 -256q-14 0 -26.5 9.5t-12.5 22.5q0 4 3 10t7 15q17 33 27 65t15 74.5t5 106.5q0 19 12.5 28t34.5 9q23 0 36 -10.5t13 -29.5q0 -49 -9.5 -101.5t-28 -100t-47.5 -81.5q-5 -6 -11.5 -11.5t-17.5 -5.5z" />
    <glyph glyph-name="hyphen" unicode="-" horiz-adv-x="576" 
d="M125 301q-15 0 -21 9t-6 31q0 23 6 31.5t21 8.5h325q15 0 21.5 -8.5t6.5 -31.5q0 -22 -6.5 -31t-21.5 -9h-325z" />
    <glyph glyph-name="period" unicode="." horiz-adv-x="313" 
d="M156 -34q-31 0 -46.5 16.5t-15.5 48.5q0 33 15.5 49t46.5 16q32 0 47.5 -16t15.5 -49q0 -32 -15.5 -48.5t-47.5 -16.5z" />
    <glyph glyph-name="slash" unicode="/" horiz-adv-x="446" 
d="M40 -75q-21 6 -30 15.5t-5 23.5l352 1352q4 14 16 18t34 -2q20 -5 29.5 -15t5.5 -24l-352 -1352q-4 -13 -16.5 -17t-33.5 1z" />
    <glyph glyph-name="zero" unicode="0" horiz-adv-x="1019" 
d="M512 -19q-129 0 -224 75t-147.5 220t-52.5 352q0 103 13.5 190.5t39.5 159.5t62.5 127t84 92t104 56t120.5 19q127 0 221 -75t146 -219t52 -350q0 -104 -13.5 -192t-39 -160t-62 -127t-83.5 -92.5t-102.5 -56.5t-118.5 -19zM509 66q51 0 94.5 16.5t80 49.5t65 81
t48.5 110.5t30 139t10 165.5q0 179 -40 303.5t-113.5 190t-174.5 65.5q-50 0 -93.5 -16.5t-80 -49t-65 -80t-48 -109.5t-30 -138t-10.5 -166q0 -179 40 -304.5t114 -191.5t173 -66z" />
    <glyph glyph-name="one" unicode="1" horiz-adv-x="600" 
d="M324 -14q-24 0 -34 7.5t-10 20.5v1134q-30 -29 -63.5 -58.5t-68 -55.5t-67.5 -47q-15 -9 -28.5 -8t-24.5 18q-12 18 -9.5 30t20.5 24q40 26 76.5 55t75 64t80.5 80q9 9 16 13.5t16 6.5t24 2q24 0 32 -8.5t8 -18.5v-1231q0 -13 -10 -20.5t-33 -7.5z" />
    <glyph glyph-name="two" unicode="2" horiz-adv-x="886" 
d="M97 0q-13 0 -23.5 10.5t-11.5 26t13 29.5l243 254q58 61 107.5 118t90.5 111.5t72 106.5t53 102t33 98t11 94q0 86 -32 138.5t-90.5 76.5t-138.5 24q-76 0 -139.5 -29.5t-126.5 -86.5q-16 -15 -29.5 -16t-28.5 13q-16 15 -15.5 28.5t13.5 27.5q36 39 86.5 72.5t114 53.5
t135.5 20q71 0 132.5 -19.5t109 -59t73.5 -99.5t26 -142q0 -52 -12.5 -106t-36.5 -110t-59 -113.5t-79.5 -117t-98 -121.5t-115.5 -126l-170 -178h561q14 0 21 -8t7 -29t-5.5 -32t-22.5 -11h-668z" />
    <glyph glyph-name="three" unicode="3" horiz-adv-x="946" 
d="M448 -19q-73 0 -142 21t-131.5 64.5t-115.5 107.5q-9 11 -11.5 24.5t15.5 29.5q15 13 28.5 14t26.5 -16q47 -55 99.5 -92t110 -55t119.5 -18q72 0 128.5 18t96 54t60 89.5t20.5 123.5q0 87 -40.5 151t-113 99.5t-171.5 35.5h-86q-16 0 -21.5 11t-5.5 32t7 29t20 8h91
q69 0 120 20.5t84 55.5t49 80.5t16 95.5q0 61 -22 104t-59 69.5t-83 39t-95 12.5q-57 0 -106 -13t-93.5 -36.5t-86.5 -56.5q-18 -13 -30 -13.5t-26 13.5q-17 16 -15 29.5t12 23.5q36 36 88.5 66.5t118 50t138.5 19.5t136.5 -18.5t111.5 -56t75 -95.5t27 -137
q0 -48 -12.5 -93t-38.5 -83.5t-67 -67.5t-100 -46q94 -20 153.5 -67.5t88 -115t28.5 -147.5q0 -86 -25.5 -153.5t-75.5 -114.5t-124 -71.5t-171 -24.5z" />
    <glyph glyph-name="four" unicode="4" horiz-adv-x="964" 
d="M717 -14q-22 0 -33 7t-11 21v341h-579q-19 0 -30 16.5t-2 37.5l395 841q6 15 17.5 20.5t31.5 1.5q15 -3 24.5 -9t12 -15t-4.5 -23l-372 -790h507v441q0 28 44 28q22 0 33 -7t11 -21v-441h137q14 0 21 -8t7 -30q0 -20 -5.5 -31t-22.5 -11h-137v-341q0 -28 -44 -28z" />
    <glyph glyph-name="five" unicode="5" horiz-adv-x="946" 
d="M471 -19q-50 0 -99 12t-95.5 36t-90 60t-82.5 85q-10 11 -12 24.5t15 29.5q15 13 28.5 14t26.5 -16q46 -55 95.5 -92t102.5 -55t111 -18q74 0 129 24.5t91.5 69.5t54.5 106.5t18 135.5q0 67 -19 124.5t-56 99.5t-91 65t-123 23q-52 0 -98 -11t-84 -31.5t-66 -49.5
q-19 -19 -36.5 -20.5t-27.5 8t-10 21.5l22 598q1 13 9.5 19.5t22.5 6.5h576q13 0 20.5 -8t7.5 -31q0 -21 -6 -31t-22 -10h-530l-16 -456q28 20 65 37t81 27.5t93 10.5q120 0 205 -49.5t129.5 -137.5t44.5 -205q0 -94 -26 -170.5t-76 -131.5t-121 -84.5t-161 -29.5z" />
    <glyph glyph-name="six" unicode="6" horiz-adv-x="1017" 
d="M536 -19q-132 0 -223.5 64t-139 183t-47.5 283q0 139 23 254.5t69.5 205.5t118 153.5t169.5 100.5t223 45q38 3 49.5 -3.5t13.5 -27.5q2 -23 -4 -33t-25 -12q-122 -9 -213 -43t-154.5 -92.5t-103 -139.5t-57.5 -183.5t-18 -224.5q0 -115 24.5 -200t68 -140.5t101.5 -82.5
t125 -27q70 0 125 23t94 66.5t59.5 106t20.5 142.5q0 86 -36 151t-102 102t-155 37q-49 0 -94 -11.5t-85 -33t-73 -50t-57 -63.5t-38 -73l-27 62q18 54 54.5 99.5t86.5 79t110 52t124 18.5q89 0 159.5 -26.5t121 -75t76.5 -116.5t26 -151q0 -99 -27 -177t-77.5 -132
t-122.5 -82t-163 -28z" />
    <glyph glyph-name="seven" unicode="7" horiz-adv-x="768" 
d="M179 -11q-23 8 -28 18t3 30l486 1133h-594q-14 0 -21 7.5t-7 29.5q0 20 5.5 31.5t22.5 11.5h665q20 0 30 -17t2 -35l-503 -1174q-11 -26 -21.5 -35.5t-39.5 0.5z" />
    <glyph glyph-name="eight" unicode="8" horiz-adv-x="946" 
d="M474 -19q-90 0 -163.5 24.5t-126.5 70t-82 109t-29 140.5q0 57 18.5 109.5t55 98t89 81.5t120.5 59q-70 29 -121.5 74t-80 102.5t-28.5 124.5q0 72 25 127.5t71.5 94t111.5 58t143 19.5t141 -19t108.5 -56.5t70 -91.5t24.5 -125q0 -46 -14.5 -89t-43.5 -82t-71.5 -71.5
t-97.5 -55.5q86 -31 149 -82.5t97 -118.5t34 -146t-29 -144t-82 -112.5t-126.5 -73t-162.5 -25.5zM475 64q69 0 125 19t96.5 54.5t62.5 85.5t22 111q0 72 -38 131t-108.5 102.5t-168.5 68.5q-70 -19 -125.5 -49.5t-95 -71t-60 -88t-20.5 -101.5q0 -59 22.5 -107.5t63.5 -83
t98 -53t126 -18.5zM488 716q75 21 129 59.5t83 91t29 115.5q0 50 -18 89t-51.5 65.5t-80.5 40t-104 13.5q-58 0 -105 -14t-81 -41.5t-52 -67.5t-18 -92q0 -58 31.5 -108.5t92 -89t145.5 -61.5z" />
    <glyph glyph-name="nine" unicode="9" horiz-adv-x="1017" 
d="M481 1276q132 0 223.5 -64t138.5 -182.5t47 -283.5q0 -139 -22.5 -254.5t-69 -205.5t-118 -153.5t-169 -100.5t-223.5 -45q-39 -3 -50 3.5t-13 27.5q-1 23 4.5 33t24.5 12q122 9 213 43t154.5 92.5t102.5 139.5t57 183.5t18 224.5q0 115 -24.5 200t-68 140.5t-101 82.5
t-124.5 27q-70 0 -125.5 -23t-94.5 -66.5t-59 -106t-20 -142.5q0 -86 36 -151t101.5 -102t155.5 -37q48 0 93.5 11.5t85.5 33t73 50t57 63.5t38 73l27 -62q-18 -54 -54.5 -99.5t-86.5 -79t-109.5 -52t-125.5 -18.5q-88 0 -159 26.5t-121 75t-76.5 116.5t-26.5 151
q0 99 27 177t78 132t123 82t163 28z" />
    <glyph glyph-name="colon" unicode=":" horiz-adv-x="313" 
d="M156 -34q-31 0 -46.5 16.5t-15.5 48.5q0 33 15.5 49t46.5 16q32 0 47.5 -16t15.5 -49q0 -32 -15.5 -48.5t-47.5 -16.5zM156 402q-31 0 -46.5 16.5t-15.5 48.5q0 33 15.5 49t46.5 16q32 0 47.5 -16t15.5 -49q0 -32 -15.5 -48.5t-47.5 -16.5z" />
    <glyph glyph-name="semicolon" unicode=";" horiz-adv-x="313" 
d="M156 402q-31 0 -46.5 16.5t-15.5 48.5q0 33 15.5 49t46.5 16q32 0 47.5 -16t15.5 -49q0 -32 -15.5 -48.5t-47.5 -16.5zM91 -256q-14 0 -26.5 9.5t-12.5 22.5q0 4 3 10t7 15q17 33 27 65t15 74.5t5 106.5q0 19 12.5 28t34.5 9q23 0 36 -10.5t13 -29.5q0 -49 -9.5 -101.5
t-28 -100t-47.5 -81.5q-5 -6 -11.5 -11.5t-17.5 -5.5z" />
    <glyph glyph-name="less" unicode="&#x3c;" horiz-adv-x="763" 
d="M619 200l-488 205q-16 8 -23.5 17.5t-7.5 26.5t7.5 27t23.5 17l488 205q23 9 33 4t18 -26q10 -21 5.5 -32.5t-20.5 -18.5l-424 -176l424 -176q15 -7 19 -18.5t-4 -33.5q-8 -21 -18.5 -25.5t-32.5 4.5z" />
    <glyph glyph-name="equal" unicode="=" horiz-adv-x="763" 
d="M113 523q-11 0 -18 10t-7 30q0 40 25 40h537q11 0 18 -10t7 -30q0 -40 -25 -40h-537zM113 273q-11 0 -18 10t-7 30q0 40 25 40h537q11 0 18 -10t7 -30q0 -40 -25 -40h-537z" />
    <glyph glyph-name="greater" unicode="&#x3e;" horiz-adv-x="763" 
d="M144 200q-22 -9 -32.5 -4.5t-18.5 25.5q-9 22 -4.5 33.5t19.5 18.5l423 176l-423 176q-16 7 -20.5 18.5t5.5 32.5q8 21 18.5 26t32.5 -4l487 -205q17 -7 24.5 -17t7.5 -27t-7.5 -26.5t-24.5 -17.5z" />
    <glyph glyph-name="question" unicode="?" horiz-adv-x="711" 
d="M278 216q-22 0 -33 7t-11 21v323q0 12 9 19.5t25 7.5q71 0 131 21.5t104.5 62.5t69 101t24.5 138q0 84 -29.5 146t-85.5 95.5t-135 33.5q-50 0 -100 -13.5t-96 -37.5t-86 -56q-10 -8 -21.5 -6t-22.5 14q-12 14 -13.5 25.5t8.5 21.5q46 41 101 70.5t114.5 45.5t115.5 16
q102 0 179 -42.5t120 -121.5t43 -192q0 -87 -28.5 -157.5t-78.5 -122t-117 -81.5t-143 -38v-273q0 -14 -11 -21t-33 -7zM278 -14q-28 0 -42 15.5t-14 47.5t14 48t42 16q27 0 41 -16t14 -48t-14 -47.5t-41 -15.5z" />
    <glyph glyph-name="at" unicode="@" horiz-adv-x="927" 
d="M285 248q0 51 11.5 91.5t34 69.5t54 44t70.5 15q23 0 50 -8.5t49 -20.5l1 4q4 10 12 15.5t27 5.5t29 -6t10 -18v-289q0 -18 8.5 -25.5t24.5 -7.5q33 0 60 14.5t47 40t31 59.5t11 74q0 98 -39 168t-113.5 107.5t-181.5 37.5q-81 0 -146.5 -27.5t-112 -77t-71.5 -116
t-25 -145.5q0 -78 24 -144.5t68.5 -115t107.5 -75.5t142 -27q53 0 104 13t95 35q20 10 33 -20q15 -29 -6 -39q-48 -25 -106.5 -38t-119.5 -13q-92 0 -167.5 32t-129 90t-82.5 135t-29 167q0 91 30.5 169t86.5 136.5t133 91t171 32.5q124 0 214 -45t138.5 -128.5t48.5 -197.5
q0 -56 -17.5 -103t-49.5 -81.5t-75 -53.5t-93 -19q-41 0 -64.5 19t-23.5 42v3v2q-24 -36 -55.5 -51t-68.5 -15q-66 0 -108 47t-42 147zM365 250q0 -39 9 -66.5t27.5 -41.5t45.5 -14q21 0 39.5 6.5t35.5 20t32 35.5v184q-23 13 -45 17t-44 4t-40 -8.5t-31.5 -26.5t-21 -45
t-7.5 -65z" />
    <glyph glyph-name="A.dec_locl" unicode="A" horiz-adv-x="1394" 
d="M179 -17q-25 0 -47.5 3t-41.5 8t-32 12t-19 19t0 28q5 18 15.5 25t21.5 3q19 -7 46 -12t58 -5q37 0 71.5 15t69 49.5t68.5 94t69 147.5t70.5 210t73 282t76.5 363q6 28 24 37.5t45 9.5q28 0 45 -8.5t22 -38.5q14 -72 31 -155t38 -175t46.5 -193.5t56 -210t65.5 -223.5
q17 -52 33 -90t33.5 -63.5t37.5 -38.5t42 -13q34 0 60 31t44.5 94t29.5 156q2 17 12.5 23.5t30.5 4.5q20 -3 29 -12t7 -25q-11 -116 -39.5 -194.5t-72 -118t-101.5 -39.5q-38 0 -69.5 13.5t-58 44.5t-50.5 80t-48 119q-10 35 -20 68.5t-20 66.5h-384q-34 -90 -68.5 -156
t-70 -111.5t-72.5 -73t-76 -39.5t-81 -12zM574 452h334q-37 129 -66 248t-53 230t-44 214q-43 -223 -85.5 -394t-85.5 -298z" />
    <glyph glyph-name="B.cur" unicode="B" horiz-adv-x="1194" 
d="M697 -16q-31 0 -62 5t-60.5 14.5t-56.5 22.5q-18 10 -23.5 22.5t4.5 30.5q8 18 19 22t32 -5q24 -10 48 -16.5t49 -9.5t50 -3q70 0 129 23.5t102.5 66t67.5 100.5t24 129q0 81 -38 136.5t-108 84.5t-166 29q-22 -11 -42 -17.5t-41 -6.5q-33 0 -51 16.5t-18 38.5q0 16 8 31
t25 24.5t42 9.5q23 0 42 -4.5t32 -11.5q58 10 103.5 33t77.5 56.5t49 78t17 97.5q0 68 -40 114t-119 69.5t-197 23.5q-110 0 -198 -23t-158 -68.5t-127 -114.5q-11 -11 -24.5 -11.5t-28.5 10.5q-16 13 -17 26.5t9 25.5q45 57 101.5 101t125.5 74.5t149.5 47t171.5 16.5
q140 0 239.5 -33.5t152.5 -98t53 -157.5q0 -55 -18 -102.5t-50 -86t-76 -66t-98 -41.5v-3q67 0 123.5 -21.5t98.5 -61t65 -93t23 -118.5q0 -71 -20 -133.5t-58 -112.5t-89.5 -86t-114 -55t-134.5 -19zM249 -18q-48 0 -87.5 17.5t-68 45t-44.5 54.5q-11 18 -10 32t17 25
q18 11 30.5 8.5t25.5 -18.5q20 -25 41 -43t45 -27.5t55 -9.5q52 0 76 41t24 126v809q0 14 11 21t32 7q22 0 33 -7t11 -21v-819q0 -75 -21 -129t-63.5 -83t-106.5 -29z" />
    <glyph glyph-name="C.cur" unicode="C" horiz-adv-x="1035" 
d="M611 -19q-113 0 -204.5 47t-156.5 132.5t-99.5 204.5t-34.5 262q0 96 16 180t47 156.5t75 129t100.5 97t123.5 61.5t143 21q66 0 128.5 -19t119 -60.5t102.5 -109.5q11 -17 9.5 -28t-18.5 -24q-14 -11 -26 -12t-24 15q-60 76 -131 114.5t-160 38.5q-60 0 -114 -17.5
t-100 -51t-82.5 -82.5t-62.5 -111t-39.5 -137t-13.5 -161q0 -130 29 -234t82.5 -177t127 -111.5t163.5 -38.5q45 0 87 12t80.5 34t73 53.5t64.5 72.5q14 17 28 18.5t28 -12.5q14 -11 15 -24t-11 -30q-48 -71 -107 -117.5t-124 -69t-134 -22.5z" />
    <glyph glyph-name="D.dec" unicode="D" horiz-adv-x="1356" 
d="M242 -19q-44 0 -79.5 16.5t-55.5 46.5t-20 68q0 42 20.5 73.5t55.5 49.5t81 18q41 0 76.5 -13t69 -34t68.5 -43.5t74.5 -43.5t88.5 -34t109 -13q62 0 116.5 17.5t102 51t85.5 82t64.5 110.5t40.5 136.5t14 160.5q0 127 -39.5 229.5t-114.5 175.5t-181.5 112.5
t-241.5 39.5q-53 0 -107 -6.5t-104 -22.5t-92.5 -43.5t-72.5 -68.5t-43 -99q-4 -19 -14.5 -26t-30.5 -4q-19 3 -26.5 14t-4.5 29q12 71 45.5 123.5t83.5 88.5t110 58.5t126 32t130 9.5q156 0 280 -46t211 -131.5t133 -204t46 -262.5q0 -99 -17.5 -184.5t-50 -156.5
t-78 -126.5t-103 -93.5t-125 -58t-142.5 -20q-79 0 -139.5 18t-107.5 45.5t-86 55t-74.5 46t-74.5 18.5q-32 0 -50 -16t-18 -41q0 -23 18 -38.5t48 -15.5q42 0 66.5 23.5t36 67.5t11.5 105v788q0 14 11 21t33 7t33 -7t11 -21v-789q0 -85 -22.5 -146.5t-68.5 -95t-115 -33.5z
" />
    <glyph glyph-name="E.cur" unicode="E" horiz-adv-x="931" 
d="M498 -19q-116 0 -202.5 42.5t-134 119.5t-47.5 183q0 60 19 115t53.5 100t82 76t104.5 44q-64 19 -110.5 61t-72 101.5t-25.5 128.5q0 57 16.5 106t47.5 88t74 67.5t96 43.5t114 15q60 0 115.5 -14t104.5 -42.5t89 -69.5q16 -15 18 -31t-15 -32q-16 -13 -29 -10.5
t-30 17.5q-35 31 -75.5 52.5t-86 32.5t-95.5 11q-57 0 -103.5 -16.5t-79.5 -47.5t-51 -73.5t-18 -94.5q0 -74 31.5 -131.5t87 -90.5t127.5 -33h162q15 0 21 -8.5t6 -31.5q0 -22 -6 -31t-21 -9h-160q-65 0 -120 -21.5t-94.5 -60t-61.5 -91.5t-22 -115q0 -82 36 -141
t101.5 -91t154.5 -32q56 0 109 17t100.5 51t90.5 86q15 17 27 20.5t27 -9.5q18 -14 20.5 -27.5t-14.5 -34.5q-48 -62 -105 -104t-121 -63.5t-135 -21.5z" />
    <glyph glyph-name="F.dec" unicode="F" horiz-adv-x="1245" 
d="M486 -17q-79 0 -146 26.5t-120.5 77t-91.5 124.5t-59 169q-2 13 0.5 24t11.5 20q11 11 21.5 13.5t22.5 -1.5q56 -20 108 -32.5t107 -17.5t123 -5q17 0 24.5 -9t7.5 -28q0 -20 -7.5 -29t-24.5 -9q-60 0 -109.5 3.5t-94 12t-93.5 24.5q19 -66 49.5 -118.5t71.5 -88.5
t91 -55t108 -19q73 0 129 25t94.5 76.5t58.5 132t20 192.5v112h-214q-13 0 -19 10.5t-6 29.5q0 20 6 30t19 10h214v410q-56 9 -103.5 25.5t-90.5 32.5t-85.5 27t-89.5 11q-46 0 -79.5 -15t-55 -41.5t-31.5 -61t-10 -73.5q0 -17 -11 -26t-34 -9q-20 0 -31.5 9t-11.5 26
q0 53 16.5 101.5t49 87.5t82.5 61.5t118 22.5q52 0 97.5 -11t89 -26.5t88.5 -31.5t96.5 -27t111.5 -11q50 0 96 12t86 31t71 41q17 12 30 8t24 -21q11 -16 10 -29.5t-18 -25.5q-43 -31 -91 -53t-101.5 -33t-114.5 -11h-10h-10v-400h178q25 0 25 -40q0 -19 -6 -29.5
t-19 -10.5h-178v-112q0 -132 -26 -228t-76 -158t-122.5 -92t-165.5 -30z" />
    <glyph glyph-name="G.cur_locl" unicode="G" horiz-adv-x="1278" 
d="M814 -777q-59 0 -101 24.5t-64.5 69.5t-22.5 107q0 63 25 129.5t74.5 136.5t124 145t174.5 156t225 168q16 11 28.5 7.5t23.5 -19.5t9 -30.5t-17 -23.5q-116 -80 -208 -153.5t-161 -141.5t-114.5 -132t-68 -124t-22.5 -118q0 -54 27 -85t75 -31q68 0 107 64t39 174v794
q-24 -61 -57 -112.5t-72 -91.5t-83.5 -68t-92.5 -42.5t-99 -14.5q-115 0 -199 64t-129 183t-45 284q0 84 13 163.5t37.5 152.5t59 136t76.5 114.5t90.5 88t101 56t108.5 19.5q76 0 131 -29.5t84.5 -86.5t29.5 -141q0 -90 -33 -180t-96.5 -179.5t-157 -177t-215 -172.5
t-268.5 -166q-18 -10 -30.5 -4.5t-21.5 22.5q-9 18 -5 31t22 23q135 74 247 152.5t198.5 159.5t146 163t90 164.5t30.5 163.5q0 56 -18.5 94t-52.5 58t-81 20q-44 0 -86.5 -17.5t-81.5 -50t-73 -78t-62 -101.5t-48 -120t-31 -134t-11 -144q0 -138 34.5 -238t98.5 -153.5
t152 -53.5q71 0 134 33.5t115.5 96t90.5 151.5t59 200q0 14 11 20.5t32 6.5q44 0 44 -27v-1031q0 -100 -29 -172.5t-82.5 -112t-128.5 -39.5z" />
    <glyph glyph-name="H.cur" unicode="H" horiz-adv-x="1381" 
d="M301 -18q-53 0 -90.5 24t-56.5 68.5t-19 104.5q0 51 16.5 99t48 91.5t77.5 80.5t105 65v550q0 67 -20.5 97t-63.5 30q-30 0 -58 -14t-54.5 -44.5t-55.5 -82.5q-8 -14 -21 -17t-28 6q-18 9 -20.5 22t6.5 29q33 62 69 103t77 61t90 20q83 0 125 -53t42 -157v-512
q79 37 155.5 75t152 77t149.5 78v238q0 81 19.5 138t57 86.5t93.5 29.5q51 0 88 -25t57 -70t20 -106q0 -50 -15.5 -96.5t-45.5 -88.5t-76.5 -80t-110.5 -72v-504q0 -55 12.5 -92t37.5 -55.5t63 -18.5q27 0 51 8.5t44.5 25.5t36.5 42q12 17 25 20t30 -8q16 -11 16.5 -23.5
t-10.5 -30.5q-20 -34 -49.5 -61t-66 -42.5t-79.5 -15.5q-51 0 -88.5 17.5t-61.5 49.5t-36 78t-12 102v460q-50 -27 -106.5 -56.5t-116.5 -59.5t-119.5 -59t-114.5 -54v-218q0 -83 -19 -141.5t-56.5 -88.5t-93.5 -30zM301 64q41 0 61 43t20 130v187q-38 -17 -67 -42
t-49 -56.5t-31 -68t-11 -76.5q0 -55 21 -86t56 -31zM1014 829q40 21 69.5 47t49.5 56.5t29.5 65t9.5 74.5q0 56 -21 89.5t-54 33.5q-41 0 -62 -42t-21 -128v-196z" />
    <glyph glyph-name="I.dec" unicode="I" horiz-adv-x="712" 
d="M292 -19q-51 0 -94 15.5t-76.5 42.5t-55.5 61q-11 17 -9.5 31t18.5 26q18 14 31.5 10.5t25.5 -18.5q33 -38 73 -60.5t91 -22.5q55 0 93.5 25t59 78t20.5 136v855q-18 -15 -43 -25t-52 -10q-25 0 -46.5 5.5t-41 12t-38.5 11.5t-37 5q-22 0 -40 -12t-28.5 -33.5
t-10.5 -51.5q0 -15 -9 -25t-34 -10q-21 0 -30.5 9.5t-9.5 25.5q0 55 20 95t56 62.5t84 22.5q28 0 51 -5t43.5 -11.5t40 -12t40.5 -5.5q26 0 45 12.5t34 26.5t26.5 19.5t25.5 5.5q21 0 31 -6.5t10 -20.5v-944q0 -106 -31.5 -177t-90.5 -107t-142 -36z" />
    <glyph glyph-name="J.dec" unicode="J" horiz-adv-x="793" 
d="M296 -777q-56 0 -96.5 23.5t-62 66.5t-21.5 101q0 74 27.5 145t75 138.5t108 131.5t127.5 122q44 37 89.5 73.5t91.5 70t87 62.5q18 13 29.5 9.5t22.5 -20.5q11 -16 8.5 -28.5t-16.5 -22.5q-44 -32 -92 -67t-95 -72.5t-89 -75.5q-57 -51 -107.5 -106t-90.5 -113.5
t-62.5 -119t-22.5 -123.5q0 -53 25 -82.5t71 -29.5q66 0 101.5 63.5t35.5 175.5v1615q-17 -15 -42 -25t-53 -10q-24 0 -45.5 5.5t-41 12t-38.5 11.5t-37 5q-23 0 -41 -12t-28 -33.5t-10 -51.5q0 -15 -9.5 -25t-33.5 -10q-22 0 -31 9.5t-9 25.5q0 55 19.5 95t55.5 62.5
t85 22.5q28 0 51 -5t43 -11.5t40 -12t40 -5.5q27 0 46 12.5t33 26.5q16 14 27 19.5t25 5.5q21 0 31.5 -6.5t10.5 -20.5v-1696q0 -102 -28 -175t-79.5 -112t-124.5 -39z" />
    <glyph glyph-name="K.dec" unicode="K" horiz-adv-x="1384" 
d="M1175 -17q-58 0 -97.5 21t-65.5 56.5t-43.5 82t-31.5 97.5t-29.5 102.5t-37.5 97.5t-55.5 81.5t-83 56.5t-121.5 21h-70v-585q0 -14 -11 -21t-33 -7t-33 7t-11 21v1146q-17 -15 -39 -23.5t-49 -8.5q-25 0 -46 5t-40.5 11.5t-38.5 11.5t-38 5q-22 0 -39 -11.5t-26.5 -33
t-9.5 -51.5q0 -15 -9.5 -24.5t-33.5 -9.5q-22 0 -31 9.5t-9 24.5q0 55 18.5 95.5t54 62.5t84.5 22q27 0 50.5 -5t43.5 -11.5t40 -11.5t41 -5t39.5 10t35.5 28q13 12 22 17t26 5q21 0 31.5 -6.5t10.5 -20.5v-566h63q67 0 112.5 25t76 67.5t51.5 95t39 108.5t38.5 108.5
t49.5 95t71.5 67.5t105.5 25q35 0 65.5 -8t58.5 -23q13 -8 15.5 -19t-4.5 -27q-8 -19 -18 -25t-24 0q-26 11 -48 16.5t-48 5.5q-38 0 -65 -18.5t-47 -51t-35 -73.5t-30 -87t-32 -92.5t-39.5 -88.5t-54.5 -76.5t-77 -54.5q58 -18 98.5 -53t67.5 -80t45 -95.5t32 -101
t27.5 -96.5t32.5 -82t46 -57t68 -21q31 0 53.5 7t40 18.5t32.5 24.5q17 13 29.5 14t24.5 -12q15 -17 13 -32t-17 -30q-37 -34 -84 -52t-98 -18z" />
    <glyph glyph-name="L.dec" unicode="L" horiz-adv-x="1076" 
d="M716 -11q-74 0 -133 18.5t-108.5 46.5t-91.5 56t-79.5 46.5t-74.5 18.5q-33 0 -51.5 -16t-18.5 -41q0 -24 18.5 -39.5t48.5 -15.5q38 0 63 22.5t38 65.5t13 104v554q0 108 22 193.5t64 145.5t102 92t136 32q66 0 119.5 -26.5t85.5 -75.5t32 -116q0 -61 -22.5 -109.5
t-65 -83.5t-104 -53.5t-138.5 -18.5q-101 0 -187.5 22t-159.5 60t-135 85q-15 10 -17 24t9 30q12 18 26 20.5t27 -8.5q56 -43 123 -77.5t146 -54t168 -19.5q58 0 102 12.5t75 36t46.5 57.5t15.5 75q0 44 -19 74.5t-52.5 46t-77.5 15.5q-55 0 -98.5 -26t-74 -75.5t-46 -120.5
t-15.5 -161v-550q0 -87 -24.5 -148t-70 -92.5t-109.5 -31.5q-46 0 -81.5 17t-55 47t-19.5 69q0 42 20.5 73t56 48.5t80.5 17.5q48 0 92.5 -18t89.5 -45.5t94 -55t103.5 -45.5t119.5 -18q63 0 113 21.5t83 62t46 95.5q4 17 17.5 22t34.5 -3q17 -4 23.5 -14.5t2.5 -26.5
q-15 -74 -60.5 -128.5t-113 -83.5t-153.5 -29z" />
    <glyph glyph-name="M.dec" unicode="M" horiz-adv-x="1929" 
d="M242 -17q-77 0 -123 50.5t-46 137.5q0 35 9.5 72.5t27 75t39.5 72.5q11 16 25.5 18.5t31.5 -7.5q18 -11 21.5 -24t-6.5 -30q-19 -30 -31.5 -60t-19.5 -58t-7 -55q0 -50 21.5 -81t64.5 -31q28 0 54 15.5t50 51.5t47.5 96.5t47.5 149t49.5 210t53 279t58.5 357.5
q5 24 20.5 34.5t43.5 10.5q25 0 39.5 -10t18.5 -35q20 -132 44.5 -265t53.5 -268t64.5 -275t76.5 -285l315 1094q8 25 22 34.5t36 9.5q29 0 45 -10t17 -35q14 -212 27 -376t25 -286t25 -208.5t27.5 -142.5t31.5 -88t37.5 -44.5t45.5 -12.5q34 0 62.5 27.5t52 88.5t44.5 158
q4 19 14 28t28 7q22 -2 32 -13.5t6 -31.5q-24 -126 -59.5 -201.5t-81.5 -109.5t-102 -34q-38 0 -70 12t-57 42.5t-45.5 84t-37.5 135.5t-31 198t-26 271.5t-24 356.5l-303 -1052q-7 -28 -21 -38t-35 -10q-24 0 -37 10t-21 38q-53 177 -97.5 350.5t-80.5 346t-65 345.5
q-29 -188 -55.5 -337t-52.5 -263.5t-53 -197.5t-56 -139.5t-61 -90t-69 -48t-80 -14.5z" />
    <glyph glyph-name="N.dec" unicode="N" horiz-adv-x="1501" 
d="M256 -17q-60 0 -101.5 28.5t-63 79.5t-21.5 115q0 47 9.5 93t27.5 87q7 16 20.5 21.5t31.5 -2.5q20 -8 26.5 -19t0.5 -27q-13 -34 -20 -72t-7 -71q0 -48 11.5 -82t34 -51.5t56.5 -17.5q35 0 63 17.5t49 56t34.5 100.5t20.5 149.5t7 204.5v640q0 16 11.5 23t32.5 7
t32.5 -6.5t17.5 -20.5l525 -1035v696q0 95 16 165t47 116.5t78 70t110 23.5q34 0 69 -10.5t67.5 -29t56.5 -41.5q11 -10 10 -23.5t-13 -28.5q-12 -14 -24 -15.5t-25 7.5q-30 25 -69.5 42t-73.5 17q-41 0 -71 -16.5t-50 -51.5t-30 -90.5t-10 -134.5v-880q0 -16 -11 -23.5
t-33 -7.5q-11 0 -19 2t-14 8.5t-12 17.5l-530 1044v-466q0 -130 -10 -230t-31 -172t-52.5 -118t-74.5 -67.5t-99 -21.5z" />
    <glyph glyph-name="O.dec" unicode="O" horiz-adv-x="1320" 
d="M635 1272q115 0 207.5 -43.5t158 -126t100 -199.5t34.5 -264q0 -95 -17.5 -181.5t-50 -160t-79.5 -132t-105 -99.5t-127 -63t-146 -22q-116 0 -209 45t-159 129.5t-101 202.5t-35 264q0 91 12 168t35.5 141t58 116t79 93t99 72t117.5 52q23 8 36.5 1.5t18.5 -23.5
q6 -16 -0.5 -28.5t-24.5 -19.5q-53 -19 -98.5 -45.5t-83 -62.5t-66.5 -81.5t-49.5 -102.5t-30.5 -126.5t-10 -153.5q0 -127 28.5 -229.5t82 -175.5t129.5 -112t171 -39q64 0 120.5 19t104.5 55t86.5 87t65.5 114.5t41 139t14 158.5q0 129 -28 230t-82 172t-128.5 108.5
t-168.5 37.5q-59 0 -99.5 -19t-64.5 -51t-34 -72t-10 -83q0 -55 16 -100t48 -76.5t78 -48.5t107 -17q87 0 179 25t194.5 74t221.5 120q15 9 28.5 3.5t22.5 -23.5q7 -16 4 -29.5t-17 -21.5q-122 -71 -228 -123t-205 -80.5t-200 -28.5q-82 0 -145.5 22t-107 63t-66.5 99.5
t-23 132.5q0 43 11.5 87.5t35.5 86t59.5 74.5t84 52t110.5 19z" />
    <glyph glyph-name="P.cur" unicode="P" horiz-adv-x="1110" 
d="M544 486q-17 -1 -26 10t-9 29q0 19 7 28.5t23 10.5q78 3 144.5 22t119.5 51.5t90 77.5t56.5 100t19.5 119q0 62 -24.5 109.5t-70.5 80t-113 49t-152 16.5q-113 0 -203.5 -22.5t-162 -68.5t-129.5 -114q-11 -12 -24.5 -13t-28.5 11q-16 13 -17 26.5t9 25.5
q45 57 102.5 101t128 74.5t153 46.5t176.5 16q108 0 191.5 -22.5t140.5 -66t87 -105.5t30 -142q0 -77 -23.5 -143.5t-68.5 -121t-108.5 -94t-143 -63t-174.5 -28.5zM249 -18q-48 0 -87.5 17.5t-68 45t-44.5 54.5q-11 18 -10 32t17 25q18 11 30.5 8.5t25.5 -18.5
q20 -25 41 -43t45 -27.5t55 -9.5q52 0 76 41t24 126v809q0 14 11 21t32 7q22 0 33 -7t11 -21v-819q0 -75 -21 -129t-63.5 -83t-106.5 -29z" />
    <glyph glyph-name="Q.cur" unicode="Q" horiz-adv-x="1275" 
d="M1025 -135q-49 0 -88.5 24t-72.5 63.5t-61.5 86.5t-56.5 94t-57.5 86.5t-64 63t-76.5 23.5q-32 0 -56.5 -13.5t-38 -37.5t-13.5 -54q0 -40 23 -71t63.5 -48t91.5 -17q60 0 113.5 18t99 52t82 82.5t62.5 111t39.5 137t13.5 159.5q0 128 -27.5 231.5t-80 177.5
t-128.5 113.5t-174 39.5q-60 0 -114.5 -18.5t-100 -53.5t-82.5 -84.5t-62.5 -111t-39.5 -133.5t-14 -152q0 -58 6.5 -116.5t18.5 -113t30 -103.5q7 -16 0 -29t-20 -20t-27 -4.5t-21 16.5q-26 46 -44 104.5t-27 125.5t-9 140q0 92 17 175.5t48.5 154.5t76.5 128t101 97
t122.5 61.5t140.5 21.5q118 0 211 -45.5t158 -131t99 -204.5t34 -266q0 -96 -16 -181t-47 -156.5t-75.5 -128t-100.5 -96.5t-122 -61t-141 -21q-59 0 -108 15.5t-85.5 44.5t-56 69.5t-19.5 89.5q0 53 24.5 95.5t69.5 67.5t107 25q55 0 99.5 -24t80.5 -63.5t66 -86.5
t57.5 -94t54.5 -86.5t56.5 -63.5t64.5 -24q26 0 48 9t42.5 31t42.5 61q12 19 23 23t26 -3q17 -7 23.5 -20t-3.5 -32q-22 -41 -46.5 -69.5t-52 -46.5t-54.5 -26t-53 -8z" />
    <glyph glyph-name="R.cur" unicode="R" horiz-adv-x="1246" 
d="M1069 -19q-34 0 -64.5 10t-59 31.5t-57.5 55t-60 80t-67 107.5q-16 27 -29.5 51.5t-26.5 47t-25 44.5t-24 43.5t-23 44.5t-24 47q-43 -1 -73 19t-30 52q0 27 18 43t49 16q23 0 46 -11t39 -29q63 12 116 41.5t91 72t59 95.5t21 111q0 56 -22.5 99.5t-66 74t-106 46.5
t-141.5 16q-113 0 -203.5 -22.5t-162 -68.5t-129.5 -114q-11 -12 -24.5 -13t-28.5 11q-16 13 -17 26.5t9 25.5q45 57 102.5 101t128 74.5t153 46.5t175.5 16q102 0 181.5 -21.5t134 -62.5t83 -99t28.5 -132q0 -55 -16.5 -106.5t-46.5 -97t-72 -82.5t-94.5 -64.5
t-113.5 -43.5q7 -15 16 -32t18.5 -35t20.5 -37.5t22.5 -40.5t24.5 -44t27 -48q35 -62 64.5 -107t53.5 -74.5t45.5 -47.5t42 -25.5t40.5 -7.5q38 0 63.5 17t50.5 51q9 14 22 18t31 -10q14 -10 15.5 -23.5t-5.5 -24.5q-21 -34 -50.5 -59t-62.5 -38.5t-66 -13.5zM249 -18
q-48 0 -87.5 17.5t-68 45t-44.5 54.5q-11 18 -10 32t17 25q18 11 30.5 8.5t25.5 -18.5q20 -25 41 -43t45 -27.5t55 -9.5q52 0 76 41t24 126v798q0 14 11 20.5t32 6.5q22 0 33 -6.5t11 -20.5v-808q0 -75 -21 -129t-63.5 -83t-106.5 -29z" />
    <glyph glyph-name="S.dec" unicode="S" horiz-adv-x="1150" 
d="M373 -19q-69 0 -125.5 24t-101.5 71q-12 13 -11.5 27t15.5 29q13 15 27 16t25 -11q39 -35 81.5 -53.5t91.5 -18.5q55 0 92.5 24.5t57 74t19.5 123.5v608q0 92 19 162t55.5 118t90.5 72.5t121 24.5q69 0 122 -27.5t83.5 -81t30.5 -129.5q0 -77 -25 -140t-72 -111t-112 -81
t-144 -49.5t-169 -16.5q-69 0 -134.5 9.5t-127 28.5t-118.5 48t-111 67q-12 10 -14.5 23t9.5 31q13 17 26 19t24 -6q43 -34 93 -60t107 -43.5t119.5 -26.5t130.5 -9q74 0 139 13t117.5 38.5t91 63.5t59 88t20.5 112q0 51 -19 86t-52.5 53.5t-78.5 18.5q-46 0 -81.5 -18.5
t-61 -55.5t-38.5 -92.5t-13 -128.5v-609q0 -101 -30 -168.5t-87.5 -102t-140.5 -34.5z" />
    <glyph glyph-name="T.dec" unicode="T" horiz-adv-x="964" 
d="M367 -18q-49 0 -88 17.5t-67.5 45t-45.5 54.5q-11 18 -9.5 32t18.5 25q18 11 30 8.5t25 -18.5q21 -25 41.5 -43t45 -27.5t53.5 -9.5q52 0 76.5 41t24.5 126v937h-171q-68 0 -112 -14t-68.5 -44t-36.5 -79q-5 -17 -16 -22.5t-32 -0.5q-19 5 -24.5 16t-1.5 29
q11 47 34.5 83.5t60 61.5t87.5 37.5t117 12.5h621q15 0 21 -8.5t6 -31.5q0 -22 -6 -31t-21 -9h-370v-947q0 -75 -21.5 -129t-64 -83t-106.5 -29z" />
    <glyph glyph-name="U.cur" unicode="U" horiz-adv-x="1284" 
d="M616 -18q-96 0 -164.5 39t-105 117.5t-36.5 196.5v730q0 67 -19.5 97t-63.5 30q-30 0 -57 -14t-53 -45t-54 -83q-8 -14 -22 -16.5t-29 5.5q-18 10 -21 23t6 29q33 62 69 103t77 61t90 20q83 0 124 -53t41 -157v-719q0 -94 26 -156.5t76 -92.5t122 -30q42 0 79 9.5
t69.5 28t59.5 45t47.5 61.5t33.5 76v957q0 14 11 20.5t33 6.5q21 0 32 -6.5t11 -20.5v-1032q0 -47 10 -79t29.5 -48.5t48.5 -16.5q32 0 57 19t48 56q11 17 24.5 20t28.5 -7q18 -12 20 -26t-7 -30q-16 -29 -36 -51.5t-42 -37.5t-47 -22t-51 -7q-48 0 -82.5 19t-55 57
t-27.5 93q0 2 -0.5 5t-0.5 5q-22 -44 -53 -77t-69 -56t-82.5 -34.5t-94.5 -11.5z" />
    <glyph glyph-name="V.dec" unicode="V" horiz-adv-x="1356" 
d="M710 -17q-22 0 -36 7.5t-18 27.5q-39 222 -75.5 395t-71.5 303t-70 220.5t-71.5 146.5t-74 81.5t-79.5 25.5q-31 0 -52 -14t-32 -40.5t-11 -62.5q0 -25 5 -51.5t13 -51.5q5 -17 -2 -27t-26 -16t-31.5 -0.5t-18.5 22.5q-11 33 -18 64t-7 61q0 44 12 81t35 63t56.5 40
t76.5 14q55 0 103 -23.5t91.5 -75.5t83.5 -137t77.5 -208t73.5 -287.5t72 -376.5q38 196 71 350t63.5 270.5t60 200t60 139.5t64 88.5t70.5 46t81 13.5q27 0 55 -6.5t54 -18.5t46 -28q17 -13 17 -26.5t-12 -29.5q-10 -14 -22.5 -16.5t-26.5 7.5q-16 11 -33.5 19t-36 12.5
t-36.5 4.5q-33 0 -62 -15t-55 -49t-52 -93.5t-53 -148t-58 -211.5t-67.5 -285.5t-80.5 -369.5q-4 -22 -16.5 -28.5t-35.5 -6.5z" />
    <glyph glyph-name="W.dec" unicode="W" horiz-adv-x="1921" 
d="M690 -17q-21 0 -36 7.5t-17 27.5q-31 212 -63 382t-65 300t-68 222.5t-71.5 152t-75 87.5t-80.5 28q-31 0 -52 -14t-32 -40.5t-11 -62.5q0 -25 5 -51.5t13 -51.5q5 -17 -2 -27t-26 -16q-19 -5 -31.5 0t-18.5 22q-11 33 -18 64t-7 61q0 44 11.5 81t34.5 63t56.5 40
t77.5 14q55 0 104 -25.5t92.5 -81t83 -142.5t74.5 -210.5t67.5 -285t61.5 -366.5l271 1071q6 23 19.5 31.5t36.5 8.5t37.5 -9t18.5 -35q19 -110 39 -216.5t42.5 -212t47 -212t52 -215t57.5 -220.5q29 199 56 354.5t52.5 273.5t52.5 202.5t55.5 141t61.5 89t72 46t86 13.5
q27 0 55 -6.5t54 -18.5t46 -28q15 -13 15.5 -26.5t-10.5 -29.5q-10 -14 -22.5 -16t-26.5 7q-16 11 -33.5 19t-36.5 12.5t-38 4.5q-36 0 -66.5 -13.5t-57 -47t-50.5 -92t-47.5 -146.5t-48.5 -211.5t-53 -287.5t-62 -374q-4 -22 -16.5 -28.5t-35.5 -6.5q-21 0 -35 7.5
t-19 27.5q-31 116 -60 226t-55 216t-49.5 210.5t-44.5 209.5t-40 211l-274 -1073q-6 -22 -18 -28.5t-35 -6.5z" />
    <glyph glyph-name="X.dec_locl" unicode="X" horiz-adv-x="1348" 
d="M961 -17q-84 0 -144 43.5t-98.5 125.5t-57 201t-18.5 269q0 74 6 141t17.5 127t29 111t40 93.5t50 76t60 56t70 34t79.5 11.5q81 0 137 -35t85 -97.5t29 -143.5q0 -77 -24.5 -134t-67 -97.5t-99.5 -69t-123.5 -48t-137.5 -34.5t-142.5 -28t-138 -29.5t-123.5 -39.5
t-99.5 -56t-66.5 -80t-24 -113q0 -63 17.5 -108t52 -68.5t83.5 -23.5q31 0 59.5 11t54 31.5t47.5 50t40.5 66.5t33 81.5t24.5 94.5t15 105.5t5 114.5q0 129 -16.5 232.5t-49.5 178.5t-81.5 115t-112.5 40q-34 0 -64 -14t-54.5 -38.5t-44.5 -57.5q-11 -17 -23.5 -20t-29.5 8
q-19 12 -23 27t9 36q29 46 64 78t77 48.5t90 16.5q83 0 146.5 -46t105.5 -131.5t64 -205t22 -267.5q0 -68 -7 -131.5t-19.5 -121.5t-31.5 -108.5t-43 -94t-53 -77.5t-62.5 -57.5t-70.5 -36t-78 -12.5q-72 0 -126 34.5t-83.5 97.5t-29.5 147q0 78 24 135.5t67 99t99.5 70.5
t123 49t137.5 35t142.5 29t138 30.5t123.5 39t99.5 54.5t66.5 78t24 109q0 57 -17.5 101.5t-53.5 70t-92 25.5q-36 0 -68 -13.5t-59 -39t-49.5 -62.5t-39.5 -85t-28.5 -104.5t-17.5 -122t-6 -139.5q0 -130 14 -233.5t43.5 -175t76 -109t110.5 -37.5q40 0 74.5 15t63.5 41
t50 60q14 18 27.5 21t31.5 -10q18 -12 19.5 -27t-10.5 -33q-30 -45 -69.5 -79t-87 -53t-103.5 -19z" />
    <glyph glyph-name="Y.cur" unicode="Y" horiz-adv-x="1242" 
d="M753 -777q-56 0 -96.5 23.5t-62 66.5t-21.5 101q0 74 27.5 145t75 138.5t108 131.5t127.5 122q44 37 90 73.5t91.5 70t87.5 62.5q17 13 28.5 9.5t22.5 -20.5q10 -16 8 -28.5t-16 -22.5q-44 -32 -92 -67t-95 -72.5t-89 -75.5q-57 -51 -107.5 -106t-90.5 -113.5t-62.5 -119
t-22.5 -123.5q0 -53 25.5 -82.5t71.5 -29.5q43 0 73.5 28.5t46.5 82t16 128.5v702q-22 -42 -52.5 -75t-68 -55t-81 -33.5t-91.5 -11.5q-70 0 -126.5 22.5t-95 66.5t-59 110.5t-20.5 154.5v638q0 66 -20 96.5t-63 30.5q-30 0 -57.5 -13.5t-53 -45t-54.5 -83.5q-8 -14 -22 -17
t-29 6q-18 10 -21 23t7 30q32 61 68 102t77.5 61t90.5 20q82 0 123 -53t41 -157v-627q0 -95 25.5 -157t74.5 -92.5t121 -30.5q51 0 95.5 15t81 43.5t64.5 69t45 92.5v866q0 14 11 21t33 7t33 -7t11 -21v-1694q0 -77 -16 -137t-45.5 -102.5t-73 -64.5t-97.5 -22z" />
    <glyph glyph-name="Z.cur" unicode="Z" horiz-adv-x="1020" 
d="M466 -777q-57 0 -98.5 25t-64 70t-22.5 105q0 83 40.5 169.5t120 178t199 189t277.5 201.5q21 14 33 10.5t23 -21.5q11 -17 9 -30.5t-18 -24.5q-118 -76 -212 -148.5t-164.5 -140.5t-118.5 -132.5t-71.5 -126t-23.5 -121.5q0 -54 25 -86t72 -32q28 0 51 12t42 36.5
t32.5 62t22.5 89.5t14 118.5t5 149.5q0 110 -6.5 192t-23 138.5t-45 92t-72.5 52t-107 19.5q-17 0 -28 12.5t-14.5 29.5t3 32.5t23.5 22.5q109 44 192 96t138.5 115t84.5 140.5t29 170.5q0 95 -38 162t-108 101.5t-166 34.5q-69 0 -134 -18t-124 -50.5t-113 -78.5
q-16 -14 -29 -10t-25 21q-13 17 -12.5 30t12.5 25q66 55 134.5 92t141.5 55.5t153 18.5q122 0 212.5 -45t140 -130t49.5 -206q0 -99 -29.5 -182.5t-86 -152.5t-136 -124.5t-180.5 -96.5l-7 -3q71 -5 121.5 -41t81.5 -104t45.5 -169.5t14.5 -238.5q0 -82 -5.5 -151t-16 -126
t-26.5 -101.5t-37.5 -78t-48.5 -55.5t-60 -33t-71 -11z" />
    <glyph glyph-name="bracketleft" unicode="[" horiz-adv-x="528" 
d="M448 1292q0 -22 -6 -31t-21 -9h-133v-1247h133q15 0 21 -8.5t6 -31.5q0 -22 -6 -31t-21 -9h-176q-44 0 -44 27v1352q0 28 44 28h176q15 0 21 -8.5t6 -31.5z" />
    <glyph glyph-name="backslash" unicode="\" horiz-adv-x="446" 
d="M405 -75q-20 -5 -32 -1t-16 17l-352 1354q-4 14 5 23t31 14q20 6 32.5 2t16.5 -18l352 -1353q4 -14 -5.5 -23t-31.5 -15z" />
    <glyph glyph-name="bracketright" unicode="]" horiz-adv-x="528" 
d="M80 -35q0 23 6 31.5t21 8.5h132v1247h-132q-15 0 -21 9t-6 31q0 23 6 31.5t21 8.5h175q44 0 44 -27v-1352q0 -28 -44 -28h-175q-15 0 -21 9t-6 31z" />
    <glyph glyph-name="asciicircum" unicode="^" horiz-adv-x="763" 
d="M124 906l210 335q11 16 21 23.5t26 7.5q17 0 27.5 -7.5t20.5 -23.5l210 -335q12 -19 8.5 -31.5t-21.5 -24.5q-20 -14 -32.5 -9.5t-22.5 20.5l-190 307l-190 -307q-10 -17 -23.5 -21t-33.5 10q-18 12 -20 24.5t10 31.5z" />
    <glyph glyph-name="underscore" unicode="_" horiz-adv-x="550" 
d="M63 -136q-15 0 -21.5 9t-6.5 31q0 23 6.5 31.5t21.5 8.5h425q15 0 21 -8.5t6 -31.5q0 -22 -6 -31t-21 -9h-425z" />
    <glyph glyph-name="grave" unicode="`" horiz-adv-x="645" 
d="M353 610q-4 0 -8.5 3t-10.5 10l-123 147q-7 8 -9.5 12.5t-2.5 11.5q0 9 10.5 19.5t24 18t23.5 7.5q14 0 24 -15l107 -164q5 -7 5.5 -10t0.5 -6q0 -10 -15 -22t-26 -12z" />
    <glyph glyph-name="a.mod" unicode="a" horiz-adv-x="622" 
d="M258 -17q-57 0 -101 27.5t-69 83.5t-25 141q0 52 9.5 96t28.5 79t46 59t62 37t77 13q32 0 66 -10.5t64 -27.5v5q0 15 11 22t33 7t32.5 -6.5t10.5 -20.5v-392q0 -13 4 -21.5t11 -12.5t16 -4q10 0 16.5 2.5t13 7.5t15.5 12q7 6 16 3.5t18 -10.5q9 -10 10 -21t-4 -19
q-11 -16 -28 -27t-36.5 -17t-39.5 -6q-23 0 -40 5t-29 15.5t-18.5 25.5t-9.5 34q0 1 -1 4.5t-1 7.5q-23 -37 -49.5 -57t-54.5 -27.5t-54 -7.5zM151 239q0 -55 13 -94.5t39.5 -60.5t66.5 -21q29 0 55.5 10t49.5 33t41 60v242q-31 19 -60 25.5t-61 6.5q-26 0 -48 -8t-40 -24
t-30.5 -40t-19 -56t-6.5 -73z" />
    <glyph glyph-name="b.mlp" unicode="b" horiz-adv-x="689" 
d="M-57 -17q-19 0 -28 11.5t-9 26t9 26t28 11.5q32 0 62.5 17.5t60 51t57 80.5t52 106t45.5 127.5t38 145t29 159.5t18.5 170t6.5 175q0 17 13 26t30 9t30 -9t13 -26q0 -92 -7.5 -183.5t-22.5 -179t-35.5 -170t-46 -156.5t-56 -138.5t-64 -116t-70.5 -88t-75.5 -56
t-77.5 -19.5zM330 -19q-45 0 -83 17t-66 50.5t-43 84.5t-15 118v830q0 97 36 146t106 49q45 0 74.5 -21t44 -62t14.5 -103q0 -19 -13 -28t-30 -9t-30 9t-13 28q0 37 -5.5 60t-16.5 34.5t-28 11.5q-18 0 -30 -11.5t-17.5 -37t-5.5 -66.5v-830q0 -47 7.5 -82.5t22.5 -59.5
t38 -36t54 -12q27 0 52 8.5t47.5 25t40.5 41t31.5 56.5t20.5 71.5t7 86.5q0 71 -22 99.5t-48 28.5q-18 0 -24.5 -10.5t-6.5 -22.5q0 -13 10 -26t35 -21t71 -8q38 0 72 16t71 39q12 8 22 2t16 -18t6 -24.5t-9 -18.5q-43 -30 -84 -46t-94 -16q-61 0 -100.5 15.5t-59 43
t-19.5 62.5q0 27 11 47.5t32 32t51 11.5q39 0 67.5 -17.5t47 -45t27 -60t8.5 -62.5q0 -50 -8.5 -96.5t-24.5 -88t-40 -75.5t-55 -58.5t-69 -38t-83 -13.5z" />
    <glyph glyph-name="c.mod" unicode="c" horiz-adv-x="522" 
d="M283 -19q-67 0 -119.5 30t-82.5 89t-30 145q0 60 17.5 110.5t49 87t74.5 56.5t95 20q44 0 90.5 -18.5t83.5 -62.5q11 -14 8.5 -25t-13.5 -23q-13 -13 -24.5 -16t-23.5 7q-27 23 -54 40.5t-71 17.5q-33 0 -60 -13t-45.5 -38t-28.5 -59.5t-10 -78.5q0 -58 17.5 -100.5
t49.5 -65.5t77 -23q32 0 54.5 9t41.5 25.5t40 39.5q11 11 23 10t26 -12t18 -21.5t-5 -23.5q-27 -39 -60.5 -62.5t-69 -34t-68.5 -10.5z" />
    <glyph glyph-name="d.mod" unicode="d" horiz-adv-x="628" 
d="M258 -17q-57 0 -101 27.5t-69 83.5t-25 141q0 52 10 96t28.5 79t46 59t63.5 37t79 13q30 0 64 -9t64 -26v762q0 13 11 19.5t32 6.5q22 0 32.5 -6.5t10.5 -19.5v-1150q0 -20 8.5 -29t22.5 -9q9 0 16.5 3t14.5 8t15 11t17.5 2t16.5 -12q8 -9 9.5 -19t-4.5 -18
q-11 -16 -28 -27t-36.5 -17t-39.5 -6q-38 0 -59 14t-29.5 34.5t-8.5 41.5v1.5v1.5q-24 -38 -51.5 -58t-55.5 -27.5t-54 -7.5zM151 239q0 -55 13 -94.5t39.5 -60.5t66.5 -21q29 0 55.5 10t50 33t42.5 60v238q-31 20 -61 28t-62 8q-26 0 -48 -8t-40 -24t-30.5 -40t-19 -56
t-6.5 -73z" />
    <glyph glyph-name="e.ful" unicode="e" horiz-adv-x="444" 
d="M300 -17q-40 0 -77.5 17t-69 48t-55 73.5t-36.5 93t-13 106.5q0 34 8 64.5t23 55t36 42t47 27t56 9.5q57 0 92.5 -23t51.5 -60.5t16 -80.5q0 -34 -12.5 -70t-34.5 -70.5t-51 -66.5q-43 -48 -98 -85.5t-116.5 -58.5t-126.5 -21q-14 0 -21 11.5t-5.5 26t12.5 26t33 11.5
q46 0 94.5 18t92.5 48t75 65q22 25 37.5 51.5t23.5 53.5t8 52q0 53 -20 73.5t-54 20.5q-17 0 -31.5 -7.5t-25.5 -23t-17 -37.5t-6 -51q0 -57 16.5 -104.5t43.5 -81.5t57.5 -53t57.5 -19q19 0 37 7.5t37.5 22.5t39.5 37q14 16 27 15.5t27 -11.5t16.5 -23t-6.5 -26
q-25 -38 -58.5 -60.5t-67.5 -32t-63 -9.5z" />
    <glyph glyph-name="f.ful" unicode="f" horiz-adv-x="404" 
d="M169 -37q19 19 37.5 35.5t36.5 31.5t34.5 27t30.5 21q14 10 25.5 5t18 -17.5t5.5 -26.5t-11 -22q-18 -11 -37.5 -27t-40.5 -34.5t-42 -37.5t-41 -37zM312 1090q0 36 -5.5 59.5t-16.5 35t-28 11.5q-16 0 -28.5 -12t-18.5 -37.5t-6 -65.5v-1615q0 -56 -11 -100.5t-33 -76
t-55 -48.5t-77 -17q-48 0 -82 21.5t-52 61.5t-18 97q0 46 9 96.5t27.5 104t47 108t68 108.5t90.5 105l21 17v-107l-21 -19q-29 -34 -53.5 -73.5t-43 -81.5t-31.5 -85.5t-19.5 -86.5t-6.5 -84q0 -32 8.5 -56.5t24 -37.5t37.5 -13q21 0 36.5 11.5t26.5 33t16 51.5t5 66v1620
q0 95 35.5 145t106.5 50q44 0 73.5 -21t44.5 -62t15 -103q0 -100 -7.5 -197t-21.5 -187.5t-34 -172.5t-45.5 -154.5t-56 -133.5t-64 -109.5t-70.5 -82.5t-76 -52t-80 -18q-19 0 -28 11.5t-9 26t9 26t28 11.5q34 0 65.5 15t62 44.5t57.5 72.5t51.5 98t44.5 121t36.5 142.5
t28 162.5t17.5 180.5t6 195.5z" />
    <glyph glyph-name="g.jmc" unicode="g" horiz-adv-x="623" 
d="M466 -55q16 15 32 28.5t31.5 25.5t29.5 22t25 17q14 9 26 4t18.5 -18t4.5 -26.5t-16 -22.5q-13 -8 -29 -20.5t-34 -27.5t-36.5 -31t-35.5 -30zM315 -776q-49 0 -85 21t-55.5 60.5t-19.5 97.5q0 45 10 93.5t29 99.5t48.5 102t70.5 101q15 19 32 38.5t36 38t37 34.5v164
q-23 -37 -50.5 -56.5t-55 -27t-54.5 -7.5q-57 0 -101 27.5t-69 83.5t-25 141q0 52 10 96t28.5 79t46 59t62.5 37t77 13q28 0 48 -2.5t39.5 -9.5t43.5 -23v5q0 13 10.5 19.5t32.5 6.5q21 0 32 -6.5t11 -19.5v-1020q0 -58 -12.5 -103.5t-37 -77t-60 -48t-79.5 -16.5zM322 -700
q23 0 41 11.5t30 33t18.5 53.5t6.5 72v338l-21.5 -21.5t-19 -20t-17.5 -19.5q-28 -38 -49 -80t-36 -86t-23 -88t-8 -86q0 -33 9.5 -57.5t27 -37t41.5 -12.5zM271 63q29 0 55.5 10t50 33t41.5 60v238q-31 19 -61 27.5t-61 8.5q-26 0 -48.5 -8t-40 -24t-30 -40t-19 -56
t-6.5 -73q0 -55 13 -94.5t39.5 -60.5t66.5 -21z" />
    <glyph glyph-name="h.lop" unicode="h" horiz-adv-x="676" 
d="M-66 -17q-19 0 -28 11.5t-9 26t9 26t28 11.5q27 0 49.5 11.5t44.5 38.5t46 73t54 114q7 17 18.5 18t19.5 -8.5t3 -25.5q-24 -79 -50 -135.5t-55 -92t-61.5 -52t-68.5 -16.5zM569 -17q-26 0 -45 7t-31 20t-17.5 32.5t-5.5 43.5v240q0 35 -10.5 60.5t-32.5 39t-59 13.5
q-26 0 -53 -9t-51.5 -30t-43.5 -55.5t-30 -85.5l-15 85q10 38 29 70t46 55.5t60 36.5t70 13q52 0 91.5 -19t62 -59.5t22.5 -106.5v-238q0 -13 4 -21.5t11.5 -12.5t16.5 -4t16.5 3t14.5 8.5t14 10.5q8 6 18 2t17 -12q8 -10 8.5 -20t-5.5 -19q-11 -15 -27.5 -26t-35.5 -16.5
t-39 -5.5zM165 -15q-22 0 -32 6.5t-10 19.5v1070q0 97 36 146t106 49q44 0 74 -21t44.5 -62t14.5 -103q0 -49 -3.5 -102t-10.5 -109t-18 -113t-26 -113.5t-34.5 -110t-43.5 -103.5t-53 -94v-334q0 -13 -11 -19.5t-33 -6.5zM209 474q13 37 25.5 83.5t24 98t21 107t17 111.5
t11.5 111t4 105q0 34 -5.5 57.5t-16.5 36t-28 12.5q-18 0 -30 -11.5t-17.5 -37t-5.5 -66.5v-607z" />
    <glyph glyph-name="i.mod" unicode="i" horiz-adv-x="300" 
d="M193 -17q-52 0 -75.5 27t-23.5 76v403q0 13 10.5 19.5t31.5 6.5q22 0 33 -6.5t11 -19.5v-393q0 -20 9 -29t22 -9q11 0 18.5 3.5t14 8.5t14.5 11q6 5 16.5 1t16.5 -12q8 -9 9 -19t-5 -18q-11 -16 -27.5 -27t-36 -17t-38.5 -6zM138 669q-28 0 -42.5 15.5t-14.5 46.5
q0 32 14.5 48t42.5 16q27 0 41 -16t14 -48q1 -31 -13.5 -46.5t-41.5 -15.5z" />
    <glyph glyph-name="j.jmc" unicode="j" horiz-adv-x="316" 
d="M159 -55q16 15 32 28.5t31.5 25.5t29.5 22t25 17q14 9 26 4t18.5 -18t4.5 -26.5t-16 -22.5q-13 -8 -29 -20.5t-34 -27.5t-36.5 -31t-35.5 -30zM24 -776q-46 0 -79.5 21t-52 61t-18.5 97q0 53 12.5 112t37.5 120.5t63 121.5t89 114q9 11 18.5 21t19.5 19v578
q0 13 10.5 19.5t31.5 6.5q22 0 33 -6.5t11 -19.5v-1033q0 -55 -11.5 -98t-34 -73t-55.5 -45.5t-75 -15.5zM30 -700q21 0 36.5 10.5t26 30t16 47.5t5.5 64v355q-6 -7 -11.5 -14t-11.5 -14q-31 -39 -55.5 -85t-40.5 -95t-24.5 -98.5t-8.5 -95.5q0 -32 8 -55.5t23.5 -36.5
t36.5 -13zM156 669q-28 0 -42 15.5t-14 46.5q0 32 14 48t42 16t41.5 -16t13.5 -48q0 -31 -13.5 -46.5t-41.5 -15.5z" />
    <glyph glyph-name="k.lop" unicode="k" horiz-adv-x="564" 
d="M-66 -17q-19 0 -28 11.5t-9 26t9 26t28 11.5q27 0 49.5 11.5t44.5 38.5t46 73t54 114q7 17 18.5 18t19.5 -8.5t3 -25.5q-24 -79 -50 -135.5t-55 -92t-61.5 -52t-68.5 -16.5zM165 -15q-22 0 -32 6.5t-10 19.5v1070q0 64 16 107.5t48 65.5t78 22q44 0 74 -21t44.5 -62
t14.5 -103q0 -56 -4 -117.5t-13.5 -126.5t-23 -131t-33 -129.5t-44.5 -123t-55 -113t-67 -97.5l-8 83q14 13 29 45.5t30.5 80.5t30.5 106.5t28 124t22.5 134t15.5 136t6 128.5q0 34 -5.5 57.5t-16.5 36t-28 12.5q-18 0 -30 -11.5t-17.5 -37t-5.5 -66.5v-1070
q0 -13 -11 -19.5t-33 -6.5zM470 -17q-30 0 -55 11t-52.5 38t-63.5 73.5t-88 117.5l-6 -1v52q44 3 81 13.5t64.5 26.5t42.5 37t15 45q0 23 -12 32.5t-30 9.5q-24 0 -53 -18.5t-59.5 -52t-57.5 -78.5l-1 71q22 42 51.5 78t64 58t70.5 22q59 0 86 -31.5t27 -75.5
q0 -27 -8.5 -51.5t-25 -45.5t-39.5 -37.5t-51 -28.5t-61 -18q34 -45 59.5 -77.5t45.5 -53t36 -30.5t29 -10q16 0 30 8t30 24q11 11 20 12t22 -7q17 -9 17.5 -22t-7.5 -24q-30 -42 -64 -54.5t-57 -12.5z" />
    <glyph glyph-name="l.lop" unicode="l" horiz-adv-x="394" 
d="M-57 -17q-19 0 -28 11.5t-9 26t9 26t28 11.5q32 0 62.5 17.5t60 51t57 80.5t52 106t45.5 127.5t38 145t29 159.5t18.5 170t6.5 175q0 17 13 26t30 9t30 -9t13 -26q0 -92 -7.5 -183.5t-22.5 -179t-35.5 -170t-46 -156.5t-56 -138.5t-64 -116t-70.5 -88t-75.5 -56
t-77.5 -19.5zM221 -17q-26 0 -45 7t-30.5 20t-17 32.5t-5.5 43.5v995q0 97 36 146t106 49q45 0 74.5 -21t44 -62t14.5 -103q0 -19 -13 -28t-30 -9t-30 9t-13 28q0 37 -5.5 60t-16.5 34.5t-28 11.5q-18 0 -30 -11.5t-17.5 -37t-5.5 -66.5v-985q0 -13 4 -21.5t11 -12.5t16 -4
t16.5 3t14.5 8.5t14 10.5q8 7 18 2.5t17 -12.5q8 -10 8.5 -20t-4.5 -19q-11 -15 -28 -26t-36 -16.5t-39 -5.5z" />
    <glyph glyph-name="m.mod" unicode="m" horiz-adv-x="964" 
d="M856 -17q-26 0 -45 7t-30.5 20t-17 32.5t-5.5 43.5v240q0 35 -10 60.5t-32.5 39t-59.5 13.5q-26 0 -52.5 -9t-50.5 -29.5t-42.5 -55.5t-29.5 -86h-26q0 57 15.5 104.5t44 82.5t67.5 54t86 19q51 0 90.5 -19t62.5 -59.5t23 -106.5v-238q0 -13 4 -21.5t11 -12.5t16 -4
q12 0 19 3t13 8t14 11q7 5 17 2.5t18 -13.5q6 -7 8 -17.5t-4 -18.5q-11 -16 -28 -27t-36.5 -17t-39.5 -6zM136 -15q-21 0 -31.5 6.5t-10.5 19.5v478q0 13 10.5 19.5t31.5 6.5q22 0 33 -6.5t11 -19.5v-59q16 25 35.5 42t40 27.5t41 15t38.5 4.5q51 0 91 -19t63.5 -59.5
t23.5 -106.5v-323q0 -13 -11 -19.5t-33 -6.5t-32.5 6.5t-10.5 19.5v315q0 36 -10 61.5t-32.5 38.5t-60.5 13q-18 0 -37 -5.5t-38.5 -18.5t-36.5 -34t-31 -52v-318q0 -13 -11 -19.5t-33 -6.5z" />
    <glyph glyph-name="n.mod" unicode="n" horiz-adv-x="646" 
d="M539 -17q-26 0 -45 7t-31 20t-17.5 32.5t-5.5 43.5v240q0 35 -10.5 60.5t-32.5 39t-59 13.5q-22 0 -44 -6t-43 -19t-39 -35t-32 -54v-314q0 -13 -11 -19.5t-33 -6.5q-21 0 -31.5 6.5t-10.5 19.5v478q0 13 10.5 19.5t31.5 6.5q22 0 33 -6.5t11 -19.5v-65q15 21 33 38.5
t40 30t46 19.5t51 7q52 0 91.5 -19t62 -59.5t22.5 -106.5v-238q0 -13 4 -21.5t11.5 -12.5t16.5 -4t16.5 3t14.5 8.5t14 10.5q8 6 18 2t17 -12q8 -10 8.5 -20t-5.5 -19q-11 -15 -27.5 -26t-35.5 -16.5t-39 -5.5z" />
    <glyph glyph-name="o.mod" unicode="o" horiz-adv-x="588" 
d="M295 -19q-67 0 -119.5 35t-82.5 95.5t-30 138.5q0 59 17 108t48.5 85t73.5 56t93 20q67 0 119 -34.5t82 -95.5t30 -139q0 -47 -11 -88t-31.5 -74t-49 -57t-64 -37t-75.5 -13zM295 61q33 0 59.5 13t45 38t28.5 60t10 78q0 58 -17 100.5t-49 65.5t-77 23q-33 0 -60 -13
t-45.5 -38t-28.5 -59.5t-10 -78.5q0 -58 17.5 -100.5t49.5 -65.5t77 -23z" />
    <glyph glyph-name="p.ful" unicode="p" horiz-adv-x="635" 
d="M142 -772q-21 0 -31.5 6.5t-10.5 19.5v1235q0 13 10.5 19.5t31.5 6.5q22 0 33 -6.5t11 -19.5v-65q19 29 45 50.5t58 33t67 11.5q52 0 91.5 -19t62 -59.5t22.5 -106.5q0 -24 -3 -47.5t-7.5 -46t-9 -44.5t-7.5 -43.5t-3 -42.5q0 -27 14.5 -39.5t34.5 -12.5q9 0 19 2.5
t20 7.5t19 12q8 7 18 2.5t17 -12.5q8 -10 8.5 -20t-5.5 -19q-11 -15 -28.5 -26t-38 -16.5t-40.5 -5.5q-55 0 -88 33.5t-33 88.5q0 20 2.5 42t7 44.5t8.5 45t6.5 45t2.5 44.5q0 53 -23.5 83t-78.5 30q-22 0 -44.5 -6t-43.5 -19t-38.5 -35t-31.5 -54v-1071q0 -13 -11 -19.5
t-33 -6.5z" />
    <glyph glyph-name="q.jmc" unicode="q" horiz-adv-x="647" 
d="M258 -17q-57 0 -101 27.5t-69 83.5t-25 141q0 52 9.5 96t28.5 79t46 59t62 37t77 13q33 0 67.5 -9t64.5 -26v5q0 13 11 19.5t32 6.5q22 0 32.5 -6.5t10.5 -19.5v-1235q0 -13 -10.5 -19.5t-32.5 -6.5q-21 0 -32 6.5t-11 19.5v814q-24 -34 -51.5 -52.5t-55 -25.5t-53.5 -7z
M151 239q0 -55 13 -94.5t39.5 -60.5t66.5 -21q29 0 55.5 10t50 33t42.5 60v238q-31 20 -61 28t-62 8q-26 0 -48 -8t-40 -24t-30.5 -40t-19 -56t-6.5 -73z" />
    <glyph glyph-name="r.mlp" unicode="r" horiz-adv-x="568" 
d="M-55 -17q-19 0 -28.5 11.5t-10 26t8.5 26t28 11.5q25 0 46.5 15.5t40 46t33.5 75.5t27 105t20 133l60 -9q-9 -112 -27.5 -195t-46.5 -137.5t-65.5 -81.5t-85.5 -27zM460 -17q-26 0 -45 7t-31 20.5t-18 34t-6 46.5q0 28 2.5 64t5 74t5 72.5t2.5 59.5q0 39 -9.5 53.5
t-35.5 14.5q-21 0 -46.5 -6t-52 -13.5t-52.5 -13.5t-49 -6q-45 0 -77 16t-48.5 44.5t-16.5 63.5q0 41 23 65t62 24q36 0 58 -19t32 -49.5t10 -65.5q8 0 26 6.5t42.5 15.5t52 15.5t54.5 6.5q40 0 65 -15t36.5 -46.5t11.5 -82.5q0 -23 -2.5 -58.5t-5 -75t-5 -74.5t-2.5 -58
q0 -26 7.5 -35.5t22.5 -9.5q10 0 18 3t15.5 8.5t14.5 10.5q8 6 18 2t17 -12q8 -10 8.5 -20t-4.5 -19q-11 -15 -27.5 -26t-36 -16.5t-39.5 -5.5zM110 456q0 24 -4 44t-12 32t-20 12q-11 0 -17.5 -8t-6.5 -23q0 -20 16 -38.5t44 -18.5z" />
    <glyph glyph-name="s.ful" unicode="s" horiz-adv-x="550" 
d="M-55 -17q-19 0 -28.5 11.5t-10 26t8.5 26t28 11.5q33 0 62.5 27.5t57.5 81t55.5 133t55.5 183.5l55 -14q-26 -122 -54.5 -213t-62 -152t-74.5 -91t-93 -30zM305 -19q-46 0 -86 14t-68 41q-7 8 -6.5 20t14.5 25q11 11 20 13.5t20 -5.5q26 -19 50.5 -29t61.5 -10
q40 0 63.5 23.5t23.5 61.5q0 36 -18.5 65t-48 54.5t-62.5 50t-62.5 51.5t-48 59.5t-18.5 72.5q0 38 20 62.5t51 24.5q21 0 33 -10.5t12 -29.5q0 -16 -5.5 -37.5t-16.5 -47.5q0 -22 18 -41.5t46.5 -39t60 -41.5t60 -49.5t46.5 -63t18 -82.5q0 -67 -48.5 -109.5t-129.5 -42.5z
" />
    <glyph glyph-name="t.mod" unicode="t" horiz-adv-x="388" 
d="M243 -17q-42 0 -69.5 15.5t-41 44t-13.5 68.5v309h-78q-15 0 -21 9t-6 31q0 23 6 31.5t21 8.5h78v204q0 13 10.5 19.5t31.5 6.5q22 0 33 -6.5t11 -19.5v-204h126q15 0 21.5 -8.5t6.5 -31.5q0 -22 -6.5 -31t-21.5 -9h-126v-299q0 -34 9.5 -48.5t34.5 -14.5q23 0 39.5 11
t34.5 27q12 11 22.5 7.5t19.5 -12.5q11 -10 11.5 -20.5t-5.5 -19.5q-17 -25 -38 -40t-44 -21.5t-46 -6.5z" />
    <glyph glyph-name="u.mod" unicode="u" horiz-adv-x="646" 
d="M269 -17q-58 0 -97 20.5t-58.5 61t-19.5 101.5v323q0 13 10.5 19.5t31.5 6.5q22 0 33 -6.5t11 -19.5v-323q0 -35 11 -59t33.5 -36t55.5 -12q28 0 52 9t43.5 24.5t34.5 37.5t25 47v312q0 13 10.5 19.5t32.5 6.5q21 0 32 -6.5t11 -19.5v-393q0 -14 4 -23t11.5 -13t16.5 -4
t16.5 3.5t15 9.5t14.5 11q8 6 17.5 3t17.5 -14q5 -7 7 -17t-5 -19q-10 -15 -26 -26.5t-35 -18.5t-39 -7q-24 0 -41.5 6.5t-29.5 18.5t-19 28t-9 35l-1 9q-14 -22 -31.5 -39.5t-38.5 -30t-45.5 -19t-51.5 -6.5z" />
    <glyph glyph-name="v.mlp" unicode="v" horiz-adv-x="604" 
d="M301 -19q-39 0 -72 13.5t-57.5 40t-38.5 66.5t-14 92v176q0 42 -13 56.5t-36 14.5q-17 0 -28.5 -9t-18 -26t-8.5 -40q-1 -16 -9 -23.5t-26 -7.5q-16 0 -26 7t-9 33q2 43 17.5 74.5t43 49t64.5 17.5q35 0 60.5 -10t42 -31t24.5 -52t8 -73v-138q0 -42 6.5 -71t19 -46
t32.5 -25t47 -8q19 0 35.5 4.5t31 15t26 27t19.5 40t12.5 55t4.5 71.5q0 81 -8 125t-22.5 61.5t-33.5 17.5q-18 0 -24.5 -10.5t-6.5 -22.5q0 -13 10 -26t35.5 -21t70.5 -8q38 0 72 16t71 39q12 8 22 2t16 -18t6 -24.5t-9 -18.5q-43 -30 -84 -46t-94 -16q-61 0 -100.5 15.5
t-59 43t-19.5 62.5q0 27 11 47.5t32 32t51 11.5q53 0 86 -34t48.5 -93t15.5 -135q0 -46 -6.5 -85.5t-19 -72t-31 -57.5t-43.5 -42.5t-56 -26.5t-68 -9z" />
    <glyph glyph-name="w.mlp" unicode="w" horiz-adv-x="888" 
d="M279 -17q-39 0 -67.5 12t-48 36.5t-29 62t-9.5 89.5v186q0 42 -13 56.5t-36 14.5q-16 0 -28 -9t-18.5 -26t-8.5 -40q-1 -16 -9 -23.5t-26 -7.5q-16 0 -26 7t-9 33q2 43 17.5 74.5t43.5 49t64 17.5q35 0 60.5 -10t42 -31t24.5 -52t8 -73v-143q0 -39 3 -67t12 -45.5
t25.5 -26t42.5 -8.5q20 0 42 7.5t41 26.5t30.5 52.5t11.5 84.5l29 -120q-12 -31 -29.5 -55t-40 -40t-47.5 -24t-52 -8zM584 -19q-40 0 -70.5 13t-51.5 39t-32 65t-11 91v300q0 13 10.5 19.5t31.5 6.5q22 0 33 -6.5t11 -19.5v-283q0 -39 3.5 -67t13 -45t26.5 -25t45 -8
q19 0 36 4.5t31.5 15t26 27t19.5 40t12.5 55t4.5 71.5q0 81 -8.5 125t-22.5 61.5t-33 17.5q-18 0 -24.5 -10.5t-6.5 -22.5q0 -13 10 -26t35.5 -21t70.5 -8q38 0 72 16t70 39q12 8 22 2t16.5 -18t6 -24.5t-9.5 -18.5q-43 -30 -83.5 -46t-93.5 -16q-61 0 -101 15.5t-59 43
t-19 62.5q0 27 11 47.5t32 32t51 11.5q53 0 86 -34t48.5 -93t15.5 -135q0 -46 -6.5 -85.5t-19 -72t-31 -57.5t-43.5 -42.5t-56.5 -26.5t-68.5 -9z" />
    <glyph glyph-name="x.cnt" unicode="x" horiz-adv-x="640" 
d="M196 -17q-37 0 -78 22t-65 73q-7 16 -3.5 27t19.5 19t26.5 4.5t15.5 -13.5q10 -15 21 -28t26.5 -21t37.5 -8t40 14t32 41t25 67.5t18 93.5q-4 33 -9.5 59.5t-14 47.5t-19.5 35t-24.5 21t-30.5 7q-27 0 -45 -18.5t-27.5 -43.5t-12.5 -47q-2 -13 -9 -19.5t-29 -6.5
t-27.5 11t-4.5 20q5 43 24 84t53 68t83 27q39 0 68.5 -14.5t50 -40t32.5 -59.5q14 37 34.5 62t46.5 38.5t55 13.5q33 0 58 -13t42 -34.5t27 -47t13 -50.5q1 -10 -3.5 -20t-25.5 -15q-12 -3 -24 0.5t-16 23.5q-3 15 -10.5 34t-22 33t-38.5 14q-17 0 -32.5 -9.5t-29 -29.5
t-25.5 -53t-22 -81q3 -42 9.5 -76t16 -60t22.5 -43.5t29.5 -26.5t35.5 -9q21 0 35.5 8.5t25 22t18.5 28.5q5 10 16 13t27 -5q17 -9 21 -19t-4 -26q-16 -34 -40.5 -55t-51.5 -30.5t-52 -9.5q-44 0 -77 16.5t-54 46t-33 68.5q-12 -39 -33.5 -68.5t-49.5 -46t-61 -16.5z" />
    <glyph glyph-name="y.jmc" unicode="y" horiz-adv-x="640" 
d="M485 -55q16 15 32 28.5t31.5 25.5t29.5 22t25 17q14 9 26 4t18.5 -18t4.5 -26.5t-16 -22.5q-13 -8 -29 -20.5t-34 -27.5t-36.5 -31t-35.5 -30zM332 -776q-49 0 -85 21t-55.5 60.5t-19.5 97.5q0 50 11 104t34 110.5t57.5 112.5t81.5 108q19 19 38.5 37.5t40.5 35.5v166
q-13 -22 -30.5 -39.5t-38.5 -29.5t-45.5 -18.5t-51.5 -6.5q-58 0 -97 20.5t-58.5 61t-19.5 101.5v323q0 13 10.5 19.5t31.5 6.5q22 0 33 -6.5t11 -19.5v-323q0 -35 11 -59t33.5 -36t55.5 -12q28 0 52 9t43.5 24.5t34.5 37.5t25 47v312q0 13 10.5 19.5t32.5 6.5q21 0 32 -6.5
t11 -19.5v-1020q0 -58 -12.5 -103.5t-37 -77t-60 -48t-79.5 -16.5zM337 -700q24 0 42 11.5t30.5 33t19 53.5t6.5 72v337q-13 -10 -26 -20.5t-25 -22.5q-29 -36 -51.5 -80t-38.5 -90.5t-24.5 -94t-8.5 -92.5q0 -33 9 -57.5t26 -37t41 -12.5z" />
    <glyph glyph-name="z.cnt" unicode="z" horiz-adv-x="465" 
d="M216 -776q-48 0 -84 23.5t-55 66.5t-19 100q0 69 9.5 134t30.5 125t54.5 116.5t80.5 111t109 106.5l35 -70q-44 -40 -81 -84t-64.5 -93t-46 -103t-28 -112t-9.5 -120q0 -54 19.5 -84t56.5 -30q23 0 41 14t31.5 43t22.5 76t13 113t4 153q0 82 -2.5 145t-10.5 109t-23.5 76
t-41.5 45.5t-65 16.5q-11 2 -22 2t-21 -1q-14 -1 -24.5 6.5t-14.5 19.5t2 25.5t26 23.5q38 19 72 38.5t60 41t40.5 46t14.5 52.5q0 35 -18.5 59.5t-66.5 24.5q-34 0 -64.5 -17t-56.5 -44q-12 -12 -22 -10.5t-27 14.5q-19 14 -18.5 28t8.5 24q17 21 45.5 40t63.5 31.5
t71 12.5q35 0 66.5 -8.5t56 -27t38.5 -49t14 -74.5q0 -28 -9.5 -54.5t-28.5 -50t-46.5 -44.5t-63.5 -38v-3q41 -11 70.5 -38.5t48.5 -79.5t28 -135t9 -207q0 -103 -8 -183t-24 -137.5t-41 -94t-58 -54t-77 -17.5zM359 23q29 25 59 46.5t48 33.5q14 8 26.5 3.5t20 -16.5
t7.5 -25.5t-13 -23.5q-26 -18 -57.5 -43t-61.5 -49z" />
    <glyph glyph-name="braceleft" unicode="{" horiz-adv-x="467" 
d="M342 1332q15 0 21 -8.5t6 -31.5q0 -22 -6 -31t-21 -9q-43 0 -73 -13.5t-46.5 -38t-16.5 -57.5q0 -28 11.5 -58.5t27.5 -63t32 -66.5t27.5 -69.5t11.5 -71.5q0 -42 -17.5 -79.5t-49.5 -64.5t-77 -42q45 -14 77 -41.5t49.5 -64.5t17.5 -79q0 -30 -8 -60t-20.5 -59.5
t-26.5 -58t-26.5 -55t-20.5 -51t-8 -46.5q0 -49 35.5 -78.5t100.5 -29.5q15 0 21 -8.5t6 -31.5q0 -22 -6 -31t-21 -9q-66 0 -116.5 21.5t-79 63.5t-28.5 102q0 29 8.5 56.5t20.5 55.5t26.5 55t27 54.5t20.5 54.5t8 55q0 35 -13.5 64t-41 50t-68.5 31q-15 5 -21.5 11.5
t-6.5 28.5q0 23 6.5 30t21.5 10q41 10 68.5 30t41 50t13.5 66q0 33 -11 65t-27.5 64.5l-33 65t-28 66.5t-11.5 70q0 61 28.5 102.5t79 63t116.5 21.5z" />
    <glyph glyph-name="bar" unicode="|" horiz-adv-x="502" 
d="M251 -77q-44 0 -44 27v1357q0 28 44 28t44 -28v-1357q0 -27 -44 -27z" />
    <glyph glyph-name="braceright" unicode="}" horiz-adv-x="467" 
d="M125 -75q-15 0 -21 9t-6 31q0 23 6 31.5t21 8.5q43 0 73.5 13.5t46 38.5t15.5 57q0 28 -11 58.5t-27 63t-32.5 66.5t-27.5 69.5t-11 71.5q0 43 17 80t49.5 64t76.5 42q-44 14 -76.5 41.5t-49.5 64.5t-17 79q0 30 8 60t20.5 59.5t26.5 58t26 55t20 51t8 46.5
q0 49 -35 78.5t-100 29.5q-15 0 -21 9t-6 31q0 23 6 31.5t21 8.5q67 0 116.5 -21.5t78 -63t28.5 -102.5q0 -28 -8 -56t-20.5 -56t-26.5 -55t-26.5 -54.5t-20.5 -54.5t-8 -55q0 -34 13.5 -63.5t41 -50.5t67.5 -31q15 -4 21.5 -10.5t6.5 -29.5q0 -22 -6.5 -29.5t-21.5 -10.5
q-40 -9 -67.5 -29.5t-41 -50t-13.5 -66.5q0 -33 11 -65t27.5 -64.5l33 -65t27.5 -66.5t11 -70q0 -60 -28.5 -102t-78 -63.5t-116.5 -21.5z" />
    <glyph glyph-name="asciitilde" unicode="~" horiz-adv-x="763" 
d="M516 316q-41 0 -71 13t-54 35.5t-47 48.5q-29 32 -50.5 46t-45.5 14q-33 0 -60.5 -24.5t-27.5 -83.5q0 -37 -42 -37q-22 0 -32.5 8.5t-10.5 29.5q0 64 24 106t63.5 63t85.5 21q61 0 99.5 -27.5t72.5 -65.5q30 -34 51.5 -48.5t44.5 -14.5q33 0 60 25t27 83q0 37 42 37
q23 0 33 -8.5t10 -30.5q0 -63 -24 -105t-63 -63.5t-85 -21.5z" />
    <glyph glyph-name="nbspace" unicode="&#xa0;" horiz-adv-x="300" 
 />
    <glyph glyph-name="exclamdown" unicode="&#xa1;" horiz-adv-x="485" 
d="M243 285q44 0 44 -28v-1001q0 -13 -11 -20t-33 -7q-44 0 -44 27v1001q0 14 11 21t33 7zM243 515q27 0 41.5 -15.5t13.5 -47.5q0 -31 -14 -47.5t-41 -16.5q-28 0 -42 16.5t-14 47.5q0 32 14 47.5t42 15.5z" />
    <glyph glyph-name="cent" unicode="&#xa2;" horiz-adv-x="708" 
d="M377 -19q-93 0 -162 44.5t-106 128t-37 200.5q0 71 14 131t40.5 108t63.5 80.5t85 50t104 17.5q40 0 81 -12.5t78 -37.5t67 -62q9 -12 6.5 -22.5t-15.5 -23.5q-13 -12 -23 -13.5t-22 8.5q-27 27 -52.5 45.5t-54.5 28t-67 9.5q-40 0 -74 -13.5t-60.5 -39t-45 -63t-28 -85
t-9.5 -104.5q0 -91 26.5 -157.5t75 -102t115.5 -35.5q41 0 72.5 12t60 35.5t57.5 60.5q11 12 23 12.5t25 -10.5q15 -10 18 -21.5t-5 -24.5q-32 -50 -74 -81.5t-88 -47t-89 -15.5zM369 -150q-40 0 -40 28v975q0 28 40 28t40 -28v-975q0 -28 -40 -28z" />
    <glyph glyph-name="sterling" unicode="&#xa3;" horiz-adv-x="902" 
d="M81 0q-17 0 -22.5 9.5t-5.5 31.5t7 30.5t21 8.5h182v420h-148q-16 0 -21.5 8.5t-5.5 31.5t6.5 31t20.5 8h148v375q0 97 34.5 168.5t99 110.5t154.5 39q80 0 148.5 -27t127.5 -79q9 -9 13.5 -22.5t-10.5 -31.5q-14 -16 -26.5 -16.5t-28.5 10.5q-59 44 -111 64.5t-111 20.5
q-96 0 -149.5 -63t-53.5 -177v-372h289q14 0 20.5 -8t6.5 -31t-5.5 -31.5t-21.5 -8.5h-289v-420h490q14 0 21 -8.5t7 -30.5t-5.5 -31.5t-22.5 -9.5h-759z" />
    <glyph glyph-name="yen" unicode="&#xa5;" horiz-adv-x="901" 
d="M447 -14q-44 0 -44 28v333h-263q-15 0 -21.5 8.5t-6.5 30.5q0 23 6.5 31t21.5 8h263v94h-263q-15 0 -21.5 8.5t-6.5 30.5q0 23 6.5 31t21.5 8h231l-335 620q-7 13 -1.5 24t26.5 21q19 11 31.5 11t21.5 -17l334 -623l342 623q9 17 20.5 17t30.5 -11q21 -10 26.5 -21
t-1.5 -24l-342 -620h233q15 0 21.5 -8t6.5 -31q0 -22 -6.5 -30.5t-21.5 -8.5h-266v-94h266q15 0 21.5 -8t6.5 -31q0 -22 -6.5 -30.5t-21.5 -8.5h-266v-333q0 -28 -44 -28z" />
    <glyph glyph-name="section" unicode="&#xa7;" horiz-adv-x="890" 
d="M433 -563q-55 0 -103.5 9.5t-91.5 29t-81.5 48t-71.5 65.5q-9 11 -7.5 21.5t15.5 24.5q15 15 25 16.5t27 -14.5q38 -36 83 -61.5t97 -39.5t108 -14q50 0 95.5 17t81.5 49.5t57 80.5t21 111q0 65 -25.5 110.5t-68.5 78.5t-96 59t-110 50.5t-110.5 53.5t-96.5 68.5
t-68 95.5t-25 133q0 65 20.5 120t57.5 101.5t86 81.5q-48 40 -78 97t-30 140q0 70 23 126t65.5 95.5t99.5 60.5t124 21q68 0 125 -18.5t105 -49.5t86 -68q13 -13 11.5 -24.5t-12.5 -23.5q-14 -14 -26 -16.5t-29 11.5q-34 31 -73.5 54t-85.5 36.5t-100 13.5q-72 0 -121 -25.5
t-74.5 -74.5t-25.5 -118q0 -62 25 -105t66.5 -74.5t94 -56.5t108.5 -49t108.5 -53t94 -68t66.5 -94t25 -133q0 -64 -21 -119t-57.5 -100.5t-84.5 -80.5q53 -43 86 -104t33 -152q0 -82 -29 -145.5t-78 -107.5t-111 -67t-129 -23zM597 79q40 31 70.5 70.5t47.5 86.5t17 100
q0 55 -19 95t-51 70t-73.5 54t-88 44.5t-94 41.5t-90.5 47q-42 -32 -73 -72t-47 -87.5t-16 -99.5q0 -53 18 -93t50 -70t74 -53.5t88.5 -44t94.5 -42t92 -47.5z" />
    <glyph glyph-name="dieresis" unicode="&#xa8;" horiz-adv-x="645" 
d="M206 669q-28 0 -42 15.5t-14 46.5q0 32 14 48t42 16t41.5 -16t13.5 -48q2 -31 -12.5 -46.5t-42.5 -15.5zM441 669q-28 0 -42 15.5t-14 46.5q0 32 14 48t42 16q27 0 41 -16t14 -48q1 -31 -13.5 -46.5t-41.5 -15.5z" />
    <glyph glyph-name="copyright" unicode="&#xa9;" horiz-adv-x="1211" 
d="M606 98q-104 0 -193 39t-154 109t-101.5 164.5t-36.5 205.5q0 112 36.5 206.5t101.5 164t154 108.5t193 39t192.5 -39t154 -108.5t102 -164t36.5 -206.5q0 -111 -36.5 -205.5t-102 -164.5t-154 -109t-192.5 -39zM606 148q92 0 171 35.5t137.5 98.5t91 148.5t32.5 185.5
q0 101 -32.5 186t-91 148t-137.5 98.5t-171 35.5q-93 0 -171.5 -35.5t-137 -98.5t-91 -148t-32.5 -186q0 -100 32.5 -185.5t91 -148.5t137 -98.5t171.5 -35.5zM609 327q-73 0 -125 36.5t-79.5 103t-27.5 153.5q0 83 30.5 148.5t83.5 104t120 38.5q46 0 89.5 -20t76.5 -64
q8 -9 5 -16.5t-15 -16.5q-10 -10 -18.5 -11t-16.5 7q-24 24 -54.5 37.5t-66.5 13.5q-44 0 -79.5 -27.5t-56 -77t-20.5 -116.5q0 -70 19.5 -120t55.5 -76t84 -26q35 0 67.5 19t61.5 57q7 9 17 8t20 -9q11 -7 13.5 -15t-2.5 -17q-24 -37 -53.5 -63t-61.5 -38.5t-67 -12.5z" />
    <glyph glyph-name="ordfeminine" unicode="&#xaa;" horiz-adv-x="480" 
d="M195 868q-67 0 -108.5 47.5t-41.5 146.5q0 51 11.5 91.5t34 69.5t54 44t70.5 15q23 0 50 -8t49 -21v2q3 12 12 17.5t28 5.5t29 -5.5t10 -17.5v-297q0 -8 3 -12.5t7.5 -6.5t9.5 -2q10 0 14.5 3.5t15.5 10.5q4 3 13 1t15 -10q9 -8 9.5 -18.5t-4.5 -17.5q-8 -11 -21.5 -20
t-29 -13.5t-31.5 -4.5q-37 0 -55 16t-24 43q0 -1 -0.5 2t-0.5 4q-25 -35 -54.5 -50t-64.5 -15zM125 1065q0 -39 9 -66.5t27 -42t45 -14.5q21 0 40 6.5t36 20.5t32 36v183q-23 14 -45 18t-44 4t-40.5 -8.5t-31.5 -26.5t-20.5 -45t-7.5 -65z" />
    <glyph glyph-name="guillemetleft" unicode="&#xab;" horiz-adv-x="725" 
d="M330 -14q-15 0 -28 6t-26 22l-158 200q-14 17 -19 24.5t-5 12.5q0 6 5 13.5t19 24.5l158 199q13 16 26 21.5t28 5.5q18 0 29.5 -8.5t13.5 -20.5t-8 -25l-167 -210l167 -211q15 -19 3.5 -36.5t-38.5 -17.5zM580 -14q-15 0 -28 6t-26 22l-158 200q-14 17 -19 24.5t-5 12.5
q0 6 5 13.5t19 24.5l158 199q13 16 26 21.5t28 5.5q18 0 29.5 -8.5t13.5 -20.5t-8 -25l-167 -210l167 -211q15 -19 3.5 -36.5t-38.5 -17.5z" />
    <glyph glyph-name="logicalnot" unicode="&#xac;" horiz-adv-x="763" 
d="M633 155q-22 0 -32.5 6.5t-10.5 19.5v217h-477q-11 0 -18 10t-7 30q0 40 25 40h537q25 0 25 -40v-257q0 -13 -10.5 -19.5t-31.5 -6.5z" />
    <glyph glyph-name="registered" unicode="&#xae;" horiz-adv-x="683" 
d="M341 810q-58 0 -109 21.5t-90 60.5t-60.5 90t-21.5 109q0 59 21.5 109.5t60.5 89.5t90 60.5t109 21.5q59 0 110 -21.5t90 -60.5t60.5 -89.5t21.5 -109.5q0 -58 -21.5 -109t-60.5 -90t-90 -60.5t-110 -21.5zM341 847q67 0 122.5 33t88.5 88.5t33 122.5t-33 122.5
t-88.5 88.5t-122.5 33q-66 0 -121.5 -33t-88.5 -88.5t-33 -122.5t33 -122.5t88.5 -88.5t121.5 -33zM266 918q-17 0 -24.5 6t-7.5 16v312q0 21 39 21h60q62 0 97 -20t35 -72q0 -40 -27 -64.5t-70 -35.5q23 -31 47.5 -54.5t52.5 -45.5q13 -10 14.5 -20.5t-11.5 -24.5
q-23 -26 -47 -6q-34 28 -65.5 61.5t-58.5 74.5v-126q0 -10 -7.5 -16t-26.5 -6zM300 1126q44 0 71 12t27 37q0 17 -14.5 24.5t-33.5 7.5h-50v-81z" />
    <glyph glyph-name="macron" unicode="&#xaf;" horiz-adv-x="645" 
d="M189 686q-17 0 -22 12t-5 30q0 19 5 31t22 12h268q18 0 22.5 -12t4.5 -31q0 -18 -4.5 -30t-22.5 -12h-268z" />
    <glyph glyph-name="degree" unicode="&#xb0;" horiz-adv-x="544" 
d="M272 881q-55 0 -98 25t-68 69.5t-25 102.5q0 57 25 100.5t68 68.5t98 25q56 0 99 -25t67.5 -68.5t24.5 -100.5q0 -58 -24.5 -102.5t-67.5 -69.5t-99 -25zM272 951q51 0 83 34t32 93t-32 92t-83 33t-83 -33t-32 -92t32 -93t83 -34z" />
    <glyph glyph-name="plusminus" unicode="&#xb1;" horiz-adv-x="763" 
d="M381 218q-21 0 -31.5 6.5t-10.5 19.5v460q0 13 10.5 19.5t31.5 6.5q22 0 32.5 -6.5t10.5 -19.5v-460q0 -13 -10.5 -19.5t-32.5 -6.5zM113 83q-11 0 -18 10t-7 30q0 40 25 40h537q11 0 18 -10t7 -30q0 -40 -25 -40h-537zM113 436q-11 0 -18 10t-7 30q0 40 25 40h537
q11 0 18 -10t7 -30q0 -40 -25 -40h-537z" />
    <glyph glyph-name="acute" unicode="&#xb4;" horiz-adv-x="645" 
d="M292 610q-11 0 -26 12t-15 22q0 3 1 6t5 10l107 164q5 8 10.5 11.5t13.5 3.5q10 0 23.5 -7.5t24 -18t10.5 -19.5q0 -7 -2.5 -11.5t-9.5 -12.5l-123 -147q-12 -13 -19 -13z" />
    <glyph glyph-name="paragraph" unicode="&#xb6;" horiz-adv-x="1110" 
d="M549 -390q-43 0 -43 28v815h-37q-121 0 -210.5 48.5t-138.5 138t-49 213.5q0 91 28 164.5t80 125t125.5 79.5t164.5 28h533q15 0 21.5 -8.5t6.5 -31.5q0 -22 -6.5 -31t-21.5 -9h-142v-1532q0 -28 -44 -28t-44 28v1532h-179v-1532q0 -28 -44 -28z" />
    <glyph glyph-name="periodcentered" unicode="&#xb7;" horiz-adv-x="313" 
d="M156 207q-28 0 -42 15.5t-14 46.5q0 32 14 48t42 16q27 0 41 -16t14 -48q1 -31 -13.5 -46.5t-41.5 -15.5z" />
    <glyph glyph-name="cedilla" unicode="&#xb8;" horiz-adv-x="645" 
d="M314 -269q-16 0 -48 5.5t-59 22.5q-11 7 -12.5 18.5t3.5 22.5q7 14 16 18t22 -2q11 -4 30 -10t41 -6q31 0 43.5 7.5t12.5 26.5q0 15 -15.5 26t-59.5 5q-11 -1 -17 1t-12 9q-5 7 -5.5 14t2.5 14l50 110h70l-59 -118l-30 16q45 17 80 11t55 -29t20 -59q0 -32 -14.5 -55
t-42.5 -35.5t-71 -12.5z" />
    <glyph glyph-name="ordmasculine" unicode="&#xba;" horiz-adv-x="454" 
d="M228 867q-52 0 -93.5 27t-65.5 74.5t-24 106.5q0 44 13.5 82t38 66t58 43.5t73.5 15.5q52 0 92.5 -27t64.5 -74t24 -106q0 -45 -14 -82.5t-38.5 -66t-57.5 -44t-71 -15.5zM228 941q23 0 41.5 9t31.5 26.5t20 42.5t7 56q0 62 -26.5 97.5t-73.5 35.5q-24 0 -42.5 -9
t-32 -26.5t-20.5 -42t-7 -55.5q0 -63 27.5 -98.5t74.5 -35.5z" />
    <glyph glyph-name="guillemetright" unicode="&#xbb;" horiz-adv-x="725" 
d="M145 -14q-18 0 -29.5 8.5t-13.5 21t8 24.5l167 211l-167 210q-15 19 -3.5 36.5t38.5 17.5q15 0 28.5 -5.5t25.5 -21.5l159 -199q14 -17 18.5 -24.5t4.5 -13.5q0 -5 -4.5 -12.5t-18.5 -24.5l-159 -200q-12 -16 -25.5 -22t-28.5 -6zM395 -14q-18 0 -29.5 8.5t-13.5 21
t8 24.5l167 211l-167 210q-15 19 -3.5 36.5t38.5 17.5q15 0 28.5 -5.5t25.5 -21.5l159 -199q14 -17 18.5 -24.5t4.5 -13.5q0 -5 -4.5 -12.5t-18.5 -24.5l-159 -200q-12 -16 -25.5 -22t-28.5 -6z" />
    <glyph glyph-name="questiondown" unicode="&#xbf;" horiz-adv-x="711" 
d="M418 285q22 0 33 -7t11 -21v-323q0 -12 -8.5 -19.5t-25.5 -7.5q-71 0 -131 -21.5t-105 -62.5t-69.5 -101t-24.5 -138q0 -83 30 -145.5t86 -96t135 -33.5q51 0 100.5 13.5t95.5 37.5t86 56q10 9 21 6.5t23 -14.5q12 -14 13.5 -25.5t-8.5 -21.5q-46 -41 -101 -70.5
t-114 -45.5t-116 -16q-102 0 -179.5 42.5t-120 122t-42.5 191.5q0 87 28 157.5t78 122t117 81.5t144 38v273q0 14 11 21t33 7zM418 515q28 0 42 -15.5t14 -47.5q0 -31 -14 -47.5t-42 -16.5q-27 0 -41 16.5t-14 47.5q0 32 14 47.5t41 15.5z" />
    <glyph glyph-name="Agrave" unicode="&#xc0;" horiz-adv-x="1003" 
d="M76 -14q-26 0 -35.5 12.5t-3.5 32.5l408 1201q8 23 20.5 31.5t35.5 8.5q24 0 36 -8.5t19 -31.5l409 -1201q7 -20 -3.5 -32.5t-36.5 -12.5q-22 0 -32 8.5t-17 28.5l-115 346h-521l-116 -346q-7 -20 -16.5 -28.5t-31.5 -8.5zM268 449h465l-232 690zM556 1318q-4 0 -8.5 3
t-11.5 7l-168 126q-10 8 -12.5 13t-2.5 12q0 12 8.5 24t21 21t21.5 9q8 0 12.5 -3t9.5 -8l158 -149q7 -6 8.5 -10.5t1.5 -8.5q0 -10 -12.5 -23t-25.5 -13z" />
    <glyph glyph-name="Aacute" unicode="&#xc1;" horiz-adv-x="1003" 
d="M76 -14q-26 0 -35.5 12.5t-3.5 32.5l408 1201q8 23 20.5 31.5t35.5 8.5q24 0 36 -8.5t19 -31.5l409 -1201q7 -20 -3.5 -32.5t-36.5 -12.5q-22 0 -32 8.5t-17 28.5l-115 346h-521l-116 -346q-7 -20 -16.5 -28.5t-31.5 -8.5zM268 449h465l-232 690zM446 1318q-13 0 -25 13
t-12 23q0 4 1.5 8.5t7.5 10.5l158 149q5 5 9.5 8t12.5 3q10 0 22 -9t21 -21t9 -24q0 -7 -2.5 -12t-12.5 -13l-169 -126q-7 -4 -11.5 -7t-8.5 -3z" />
    <glyph glyph-name="Acircumflex" unicode="&#xc2;" horiz-adv-x="1003" 
d="M76 -14q-26 0 -35.5 12.5t-3.5 32.5l408 1201q8 23 20.5 31.5t35.5 8.5q24 0 36 -8.5t19 -31.5l409 -1201q7 -20 -3.5 -32.5t-36.5 -12.5q-22 0 -32 8.5t-17 28.5l-115 346h-521l-116 -346q-7 -20 -16.5 -28.5t-31.5 -8.5zM268 449h465l-232 690zM338 1318
q-10 0 -22.5 12t-12.5 22v7t5 9l149 145q7 7 16 13.5t28 6.5t27.5 -6.5t15.5 -13.5l151 -145q5 -5 5.5 -9t0.5 -7q0 -10 -13 -22t-23 -12q-6 0 -11 3.5t-13 9.5l-140 102l-138 -102q-8 -6 -13.5 -9.5t-11.5 -3.5z" />
    <glyph glyph-name="Atilde" unicode="&#xc3;" horiz-adv-x="1003" 
d="M76 -14q-26 0 -35.5 12.5t-3.5 32.5l408 1201q8 23 20.5 31.5t35.5 8.5q24 0 36 -8.5t19 -31.5l409 -1201q7 -20 -3.5 -32.5t-36.5 -12.5q-22 0 -32 8.5t-17 28.5l-115 346h-521l-116 -346q-7 -20 -16.5 -28.5t-31.5 -8.5zM268 449h465l-232 690zM344 1350q-34 0 -34 27
q1 62 26.5 94.5t75.5 32.5q31 0 55.5 -11.5t44.5 -26t37.5 -26t34.5 -11.5q16 0 24 16t9 39q3 21 34 21q19 0 27.5 -7t8.5 -20q-1 -63 -26.5 -94.5t-76.5 -31.5q-30 0 -55 11.5t-45.5 26.5t-38 26.5t-33.5 11.5t-23 -13t-9 -39q-1 -12 -10 -19t-26 -7z" />
    <glyph glyph-name="Adieresis" unicode="&#xc4;" horiz-adv-x="1003" 
d="M76 -14q-26 0 -35.5 12.5t-3.5 32.5l408 1201q8 23 20.5 31.5t35.5 8.5q24 0 36 -8.5t19 -31.5l409 -1201q7 -20 -3.5 -32.5t-36.5 -12.5q-22 0 -32 8.5t-17 28.5l-115 346h-521l-116 -346q-7 -20 -16.5 -28.5t-31.5 -8.5zM268 449h465l-232 690zM371 1357
q-28 0 -42.5 16t-14.5 47q0 32 14.5 47.5t42.5 15.5q27 0 41 -15.5t14 -47.5q1 -32 -13 -47.5t-42 -15.5zM633 1357q-28 0 -42 16t-14 47q0 32 14 47.5t42 15.5q27 0 41 -15.5t14 -47.5q1 -31 -13.5 -47t-41.5 -16z" />
    <glyph glyph-name="Aring" unicode="&#xc5;" horiz-adv-x="1003" 
d="M76 -14q-26 0 -35.5 12.5t-3.5 32.5l408 1201q8 23 20.5 31.5t35.5 8.5q24 0 36 -8.5t19 -31.5l409 -1201q7 -20 -3.5 -32.5t-36.5 -12.5q-22 0 -32 8.5t-17 28.5l-115 346h-521l-116 -346q-7 -20 -16.5 -28.5t-31.5 -8.5zM268 449h465l-232 690zM501 1311q-41 0 -73 16
t-49.5 43.5t-17.5 63.5q0 35 17.5 62.5t49.5 43t73 15.5q43 0 75 -15.5t50 -43t18 -62.5q0 -36 -18 -63.5t-50 -43.5t-75 -16zM501 1372q33 0 51.5 18t18.5 44t-18.5 43t-51.5 17q-32 0 -50 -17t-18 -43t18 -44t50 -18z" />
    <glyph glyph-name="AE.cur" unicode="&#xc6;" horiz-adv-x="1718" 
d="M152 -17q-26 0 -49 5t-44 17q-14 8 -20 20t0 30q7 17 18 24t22 2q23 -10 38.5 -13.5t33.5 -3.5q26 0 51 11.5t53 41t60.5 84t73 140.5t92 209t117 290t147.5 386q9 24 27 34.5t47 10.5t45 -12t17 -39q5 -117 15 -235.5t24 -238.5t32.5 -241.5t40.5 -243.5
q5 -23 -2.5 -34.5t-29.5 -17.5q-22 -4 -34 4t-16 31q-7 37 -13.5 75t-13.5 74h-381q-45 -103 -83 -175t-71.5 -118t-65 -71.5t-63.5 -35.5t-68 -10zM538 472h332q-17 115 -30.5 228t-23 224t-15.5 221q-81 -217 -145.5 -383t-117.5 -290zM1275 -19q-115 0 -199 42.5
t-129.5 119.5t-45.5 183q0 60 19 115t53.5 100t81.5 76t104 44q-63 19 -107.5 61t-68 101t-23.5 127q0 57 16.5 105.5t47.5 88.5t74 68.5t95 44t111 15.5t113.5 -14t103 -42t88.5 -70q16 -15 18 -31t-16 -32q-16 -13 -28.5 -10t-29.5 17q-35 30 -76 51.5t-85.5 33
t-91.5 11.5q-54 0 -99.5 -17t-78.5 -48t-51.5 -74.5t-18.5 -94.5q0 -73 29.5 -130t83 -90t125.5 -33h161q15 0 21.5 -8.5t6.5 -31.5q0 -22 -6.5 -31t-21.5 -9h-160q-65 0 -119.5 -21.5t-94.5 -60t-62 -91.5t-22 -115q0 -82 34.5 -141t98 -91t150.5 -32q57 0 112 17.5t105 52
t92 86.5q15 17 27.5 20.5t27.5 -9.5q17 -14 20 -27.5t-14 -34.5q-48 -62 -108 -104.5t-126.5 -64.5t-136.5 -22z" />
    <glyph glyph-name="Ccedilla" unicode="&#xc7;" horiz-adv-x="1035" 
d="M611 -19q-113 0 -204.5 46.5t-156.5 132t-99.5 204t-34.5 263.5q0 97 16 182t47 156.5t75.5 128t101 96.5t123.5 61t142 21q60 0 121 -16.5t116.5 -52.5t95.5 -93q9 -12 5 -21t-16 -20q-14 -12 -24 -14t-20 8q-39 40 -83.5 67.5t-93.5 42t-101 14.5q-59 0 -112.5 -17
t-99.5 -50t-83 -81.5t-63 -111t-40 -137.5t-14 -163q0 -130 29.5 -234t82.5 -177t127 -111.5t163 -38.5q48 0 91 14t82 39.5t74 58.5t68 70q9 9 20.5 7t24.5 -13q14 -11 17 -20t-5 -20q-55 -75 -115.5 -124t-124.5 -73t-132 -24zM580 -278q-20 0 -52.5 6t-59.5 22
q-11 7 -12.5 18.5t3.5 22.5q7 14 16 18t22 -1q11 -5 30.5 -11t45.5 -6q31 0 45.5 8t14.5 30q0 19 -17.5 30.5t-61.5 5.5q-11 -1 -17 1t-12 9q-5 7 -5.5 14t2.5 14l46 110h66l-51 -118l-30 16q45 17 80.5 11t57 -30t21.5 -63q0 -34 -15.5 -58t-44.5 -36.5t-72 -12.5z" />
    <glyph glyph-name="Egrave" unicode="&#xc8;" horiz-adv-x="885" 
d="M225 0q-22 0 -33 10t-11 30v1182q0 14 11 21t33 7h576q15 0 21.5 -8.5t6.5 -31.5q0 -22 -6.5 -31t-21.5 -9h-532v-470h448q15 0 21.5 -8.5t6.5 -31.5q0 -22 -6.5 -31t-21.5 -9h-448v-540h532q15 0 21.5 -8.5t6.5 -31.5q0 -22 -6.5 -31t-21.5 -9h-576zM571 1318
q-4 0 -8.5 3t-11.5 7l-168 126q-10 8 -12.5 13t-2.5 12q0 12 8.5 24t21 21t21.5 9q8 0 12.5 -3t9.5 -8l158 -149q7 -6 8.5 -10.5t1.5 -8.5q0 -10 -12.5 -23t-25.5 -13z" />
    <glyph glyph-name="Eacute" unicode="&#xc9;" horiz-adv-x="885" 
d="M225 0q-22 0 -33 10t-11 30v1182q0 14 11 21t33 7h576q15 0 21.5 -8.5t6.5 -31.5q0 -22 -6.5 -31t-21.5 -9h-532v-470h448q15 0 21.5 -8.5t6.5 -31.5q0 -22 -6.5 -31t-21.5 -9h-448v-540h532q15 0 21.5 -8.5t6.5 -31.5q0 -22 -6.5 -31t-21.5 -9h-576zM461 1318
q-13 0 -25 13t-12 23q0 4 1.5 8.5t7.5 10.5l158 149q5 5 9.5 8t12.5 3q10 0 22 -9t21 -21t9 -24q0 -7 -2.5 -12t-12.5 -13l-169 -126q-7 -4 -11.5 -7t-8.5 -3z" />
    <glyph glyph-name="Ecircumflex" unicode="&#xca;" horiz-adv-x="885" 
d="M225 0q-22 0 -33 10t-11 30v1182q0 14 11 21t33 7h576q15 0 21.5 -8.5t6.5 -31.5q0 -22 -6.5 -31t-21.5 -9h-532v-470h448q15 0 21.5 -8.5t6.5 -31.5q0 -22 -6.5 -31t-21.5 -9h-448v-540h532q15 0 21.5 -8.5t6.5 -31.5q0 -22 -6.5 -31t-21.5 -9h-576zM353 1318
q-10 0 -22.5 12t-12.5 22v7t5 9l149 145q7 7 16 13.5t28 6.5t27.5 -6.5t15.5 -13.5l151 -145q5 -5 5.5 -9t0.5 -7q0 -10 -13 -22t-23 -12q-6 0 -11 3.5t-13 9.5l-140 102l-138 -102q-8 -6 -13.5 -9.5t-11.5 -3.5z" />
    <glyph glyph-name="Edieresis" unicode="&#xcb;" horiz-adv-x="885" 
d="M225 0q-22 0 -33 10t-11 30v1182q0 14 11 21t33 7h576q15 0 21.5 -8.5t6.5 -31.5q0 -22 -6.5 -31t-21.5 -9h-532v-470h448q15 0 21.5 -8.5t6.5 -31.5q0 -22 -6.5 -31t-21.5 -9h-448v-540h532q15 0 21.5 -8.5t6.5 -31.5q0 -22 -6.5 -31t-21.5 -9h-576zM386 1357
q-28 0 -42.5 16t-14.5 47q0 32 14.5 47.5t42.5 15.5q27 0 41 -15.5t14 -47.5q1 -32 -13 -47.5t-42 -15.5zM648 1357q-28 0 -42 16t-14 47q0 32 14 47.5t42 15.5q27 0 41 -15.5t14 -47.5q1 -31 -13.5 -47t-41.5 -16z" />
    <glyph glyph-name="Igrave" unicode="&#xcc;" horiz-adv-x="451" 
d="M226 -14q-22 0 -33 7t-11 21v1231q0 14 11 20.5t33 6.5q21 0 32 -6.5t11 -20.5v-1231q0 -14 -11 -21t-32 -7zM280 1318q-4 0 -8.5 3t-11.5 7l-168 126q-10 8 -12.5 13t-2.5 12q0 12 8.5 24t21 21t21.5 9q8 0 12.5 -3t9.5 -8l158 -149q7 -6 8.5 -10.5t1.5 -8.5
q0 -10 -12.5 -23t-25.5 -13z" />
    <glyph glyph-name="Iacute" unicode="&#xcd;" horiz-adv-x="451" 
d="M226 -14q-22 0 -33 7t-11 21v1231q0 14 11 20.5t33 6.5q21 0 32 -6.5t11 -20.5v-1231q0 -14 -11 -21t-32 -7zM170 1318q-13 0 -25 13t-12 23q0 4 1.5 8.5t7.5 10.5l158 149q5 5 9.5 8t12.5 3q10 0 22 -9t21 -21t9 -24q0 -7 -2.5 -12t-12.5 -13l-169 -126q-7 -4 -11.5 -7
t-8.5 -3z" />
    <glyph glyph-name="Icircumflex" unicode="&#xce;" horiz-adv-x="451" 
d="M226 -14q-22 0 -33 7t-11 21v1231q0 14 11 20.5t33 6.5q21 0 32 -6.5t11 -20.5v-1231q0 -14 -11 -21t-32 -7zM62 1318q-10 0 -22.5 12t-12.5 22v7t5 9l149 145q7 7 16 13.5t28 6.5t27.5 -6.5t15.5 -13.5l151 -145q5 -5 5.5 -9t0.5 -7q0 -10 -13 -22t-23 -12q-6 0 -11 3.5
t-13 9.5l-140 102l-138 -102q-8 -6 -13.5 -9.5t-11.5 -3.5z" />
    <glyph glyph-name="Idieresis" unicode="&#xcf;" horiz-adv-x="451" 
d="M226 -14q-22 0 -33 7t-11 21v1231q0 14 11 20.5t33 6.5q21 0 32 -6.5t11 -20.5v-1231q0 -14 -11 -21t-32 -7zM95 1357q-28 0 -42.5 16t-14.5 47q0 32 14.5 47.5t42.5 15.5q27 0 41 -15.5t14 -47.5q1 -32 -13 -47.5t-42 -15.5zM357 1357q-28 0 -42 16t-14 47q0 32 14 47.5
t42 15.5q27 0 41 -15.5t14 -47.5q1 -31 -13.5 -47t-41.5 -16z" />
    <glyph glyph-name="Eth" unicode="&#xd0;" horiz-adv-x="1161" 
d="M225 0q-44 0 -44 28v1194q0 14 11 21t33 7h243q140 0 247.5 -40.5t181 -115t111 -177t37.5 -228.5q0 -128 -27 -235.5t-80.5 -191.5t-132 -142.5t-182 -89t-230.5 -30.5h-168zM269 85h123q109 0 197 26t155 76t112.5 123t69 168t23.5 211q0 109 -32 196.5t-94 150
t-151 96t-204 33.5h-199v-1080zM45 593q-18 0 -23 11t-5 24q0 14 5 26t23 12h457q17 0 22 -12t5 -26q0 -13 -5 -24t-22 -11h-457z" />
    <glyph glyph-name="Ntilde" unicode="&#xd1;" horiz-adv-x="1186" 
d="M225 -14q-44 0 -44 28v1231q0 14 11 20.5t33 6.5q18 0 29.5 -6.5t20.5 -20.5l642 -1066v1066q0 14 11 20.5t33 6.5q44 0 44 -27v-1231q0 -14 -11 -21t-32 -7q-16 0 -25 5t-20 23l-648 1075v-1075q0 -14 -11 -21t-33 -7zM436 1350q-34 0 -34 27q1 62 26.5 94.5t75.5 32.5
q31 0 55.5 -11.5t44.5 -26t37.5 -26t34.5 -11.5q16 0 24 16t9 39q3 21 34 21q19 0 27.5 -7t8.5 -20q-1 -63 -26.5 -94.5t-76.5 -31.5q-30 0 -55 11.5t-45.5 26.5t-38 26.5t-33.5 11.5t-23 -13t-9 -39q-1 -12 -10 -19t-26 -7z" />
    <glyph glyph-name="Ograve" unicode="&#xd2;" horiz-adv-x="1236" 
d="M620 -19q-115 0 -208 46.5t-159 132t-101.5 204t-35.5 263.5q0 97 16 182t46.5 156.5t74.5 128t100 96.5t123.5 61t143.5 21q114 0 206 -46.5t158 -132t101 -203.5t35 -263q0 -96 -16 -181.5t-46 -157.5t-74 -128.5t-100 -96.5t-122 -61t-142 -21zM620 66
q61 0 114.5 17.5t99 51.5t81 82.5t61 111t38.5 137.5t13 161q0 129 -29.5 232t-83 176.5t-128.5 112.5t-166 39q-62 0 -116 -17.5t-100 -51.5t-81.5 -82.5t-61 -111t-39 -137t-13.5 -160.5q0 -129 29.5 -232.5t84 -177t130 -112.5t167.5 -39zM674 1318q-4 0 -8.5 3t-11.5 7
l-168 126q-10 8 -12.5 13t-2.5 12q0 12 8.5 24t21 21t21.5 9q8 0 12.5 -3t9.5 -8l158 -149q7 -6 8.5 -10.5t1.5 -8.5q0 -10 -12.5 -23t-25.5 -13z" />
    <glyph glyph-name="Oacute" unicode="&#xd3;" horiz-adv-x="1236" 
d="M620 -19q-115 0 -208 46.5t-159 132t-101.5 204t-35.5 263.5q0 97 16 182t46.5 156.5t74.5 128t100 96.5t123.5 61t143.5 21q114 0 206 -46.5t158 -132t101 -203.5t35 -263q0 -96 -16 -181.5t-46 -157.5t-74 -128.5t-100 -96.5t-122 -61t-142 -21zM620 66
q61 0 114.5 17.5t99 51.5t81 82.5t61 111t38.5 137.5t13 161q0 129 -29.5 232t-83 176.5t-128.5 112.5t-166 39q-62 0 -116 -17.5t-100 -51.5t-81.5 -82.5t-61 -111t-39 -137t-13.5 -160.5q0 -129 29.5 -232.5t84 -177t130 -112.5t167.5 -39zM564 1318q-13 0 -25 13t-12 23
q0 4 1.5 8.5t7.5 10.5l158 149q5 5 9.5 8t12.5 3q10 0 22 -9t21 -21t9 -24q0 -7 -2.5 -12t-12.5 -13l-169 -126q-7 -4 -11.5 -7t-8.5 -3z" />
    <glyph glyph-name="Ocircumflex" unicode="&#xd4;" horiz-adv-x="1236" 
d="M620 -19q-115 0 -208 46.5t-159 132t-101.5 204t-35.5 263.5q0 97 16 182t46.5 156.5t74.5 128t100 96.5t123.5 61t143.5 21q114 0 206 -46.5t158 -132t101 -203.5t35 -263q0 -96 -16 -181.5t-46 -157.5t-74 -128.5t-100 -96.5t-122 -61t-142 -21zM620 66
q61 0 114.5 17.5t99 51.5t81 82.5t61 111t38.5 137.5t13 161q0 129 -29.5 232t-83 176.5t-128.5 112.5t-166 39q-62 0 -116 -17.5t-100 -51.5t-81.5 -82.5t-61 -111t-39 -137t-13.5 -160.5q0 -129 29.5 -232.5t84 -177t130 -112.5t167.5 -39zM456 1318q-10 0 -22.5 12
t-12.5 22v7t5 9l149 145q7 7 16 13.5t28 6.5t27.5 -6.5t15.5 -13.5l151 -145q5 -5 5.5 -9t0.5 -7q0 -10 -13 -22t-23 -12q-6 0 -11 3.5t-13 9.5l-140 102l-138 -102q-8 -6 -13.5 -9.5t-11.5 -3.5z" />
    <glyph glyph-name="Otilde" unicode="&#xd5;" horiz-adv-x="1236" 
d="M620 -19q-115 0 -208 46.5t-159 132t-101.5 204t-35.5 263.5q0 97 16 182t46.5 156.5t74.5 128t100 96.5t123.5 61t143.5 21q114 0 206 -46.5t158 -132t101 -203.5t35 -263q0 -96 -16 -181.5t-46 -157.5t-74 -128.5t-100 -96.5t-122 -61t-142 -21zM620 66
q61 0 114.5 17.5t99 51.5t81 82.5t61 111t38.5 137.5t13 161q0 129 -29.5 232t-83 176.5t-128.5 112.5t-166 39q-62 0 -116 -17.5t-100 -51.5t-81.5 -82.5t-61 -111t-39 -137t-13.5 -160.5q0 -129 29.5 -232.5t84 -177t130 -112.5t167.5 -39zM462 1350q-34 0 -34 27
q1 62 26.5 94.5t75.5 32.5q31 0 55.5 -11.5t44.5 -26t37.5 -26t34.5 -11.5q16 0 24 16t9 39q3 21 34 21q19 0 27.5 -7t8.5 -20q-1 -63 -26.5 -94.5t-76.5 -31.5q-30 0 -55 11.5t-45.5 26.5t-38 26.5t-33.5 11.5t-23 -13t-9 -39q-1 -12 -10 -19t-26 -7z" />
    <glyph glyph-name="Odieresis" unicode="&#xd6;" horiz-adv-x="1236" 
d="M620 -19q-115 0 -208 46.5t-159 132t-101.5 204t-35.5 263.5q0 97 16 182t46.5 156.5t74.5 128t100 96.5t123.5 61t143.5 21q114 0 206 -46.5t158 -132t101 -203.5t35 -263q0 -96 -16 -181.5t-46 -157.5t-74 -128.5t-100 -96.5t-122 -61t-142 -21zM620 66
q61 0 114.5 17.5t99 51.5t81 82.5t61 111t38.5 137.5t13 161q0 129 -29.5 232t-83 176.5t-128.5 112.5t-166 39q-62 0 -116 -17.5t-100 -51.5t-81.5 -82.5t-61 -111t-39 -137t-13.5 -160.5q0 -129 29.5 -232.5t84 -177t130 -112.5t167.5 -39zM489 1357q-28 0 -42.5 16
t-14.5 47q0 32 14.5 47.5t42.5 15.5q27 0 41 -15.5t14 -47.5q1 -32 -13 -47.5t-42 -15.5zM751 1357q-28 0 -42 16t-14 47q0 32 14 47.5t42 15.5q27 0 41 -15.5t14 -47.5q1 -31 -13.5 -47t-41.5 -16z" />
    <glyph glyph-name="multiply" unicode="&#xd7;" horiz-adv-x="763" 
d="M600 219q-10 -10 -25 -14.5t-27 8.5l-166 166l-166 -166q-12 -13 -26.5 -8t-25.5 15q-10 10 -14.5 24.5t8.5 26.5l166 166l-166 166q-13 12 -8.5 26.5t14.5 24.5q11 11 26 15.5t27 -8.5l166 -165l165 165q12 13 27 8.5t25 -15.5q11 -10 15 -24.5t-9 -26.5l-165 -165
l167 -165q12 -13 7.5 -28t-15.5 -26z" />
    <glyph glyph-name="Oslash" unicode="&#xd8;" horiz-adv-x="1236" 
d="M620 -19q-115 0 -208 46.5t-159 132t-101.5 204t-35.5 263.5q0 97 16 182t46.5 156.5t74.5 128t100 96.5t123.5 61t143.5 21q114 0 206 -46.5t158 -132t101 -203.5t35 -263q0 -96 -16 -181.5t-46 -157.5t-74 -128.5t-100 -96.5t-122 -61t-142 -21zM620 66
q61 0 114.5 17.5t99 51.5t81 82.5t61 111t38.5 137.5t13 161q0 129 -29.5 232t-83 176.5t-128.5 112.5t-166 39q-62 0 -116 -17.5t-100 -51.5t-81.5 -82.5t-61 -111t-39 -137t-13.5 -160.5q0 -129 29.5 -232.5t84 -177t130 -112.5t167.5 -39zM266 -61q-7 -11 -20 -17t-35 6
q-36 19 -19 49l778 1317q8 12 22 15.5t33 -5.5q15 -7 20 -21t-3 -29z" />
    <glyph glyph-name="Ugrave" unicode="&#xd9;" horiz-adv-x="1152" 
d="M579 -19q-98 0 -173.5 26.5t-127 79t-78 128.5t-26.5 175v855q0 14 11 20.5t33 6.5t33 -6.5t11 -20.5v-855q0 -105 35.5 -177t106 -109.5t175.5 -37.5q103 0 172.5 37.5t104.5 109.5t35 177v855q0 14 11 20.5t33 6.5q43 0 43 -27v-855q0 -132 -46 -223.5t-135.5 -138.5
t-217.5 -47zM631 1318q-4 0 -8.5 3t-11.5 7l-168 126q-10 8 -12.5 13t-2.5 12q0 12 8.5 24t21 21t21.5 9q8 0 12.5 -3t9.5 -8l158 -149q7 -6 8.5 -10.5t1.5 -8.5q0 -10 -12.5 -23t-25.5 -13z" />
    <glyph glyph-name="Uacute" unicode="&#xda;" horiz-adv-x="1152" 
d="M579 -19q-98 0 -173.5 26.5t-127 79t-78 128.5t-26.5 175v855q0 14 11 20.5t33 6.5t33 -6.5t11 -20.5v-855q0 -105 35.5 -177t106 -109.5t175.5 -37.5q103 0 172.5 37.5t104.5 109.5t35 177v855q0 14 11 20.5t33 6.5q43 0 43 -27v-855q0 -132 -46 -223.5t-135.5 -138.5
t-217.5 -47zM521 1318q-13 0 -25 13t-12 23q0 4 1.5 8.5t7.5 10.5l158 149q5 5 9.5 8t12.5 3q10 0 22 -9t21 -21t9 -24q0 -7 -2.5 -12t-12.5 -13l-169 -126q-7 -4 -11.5 -7t-8.5 -3z" />
    <glyph glyph-name="Ucircumflex" unicode="&#xdb;" horiz-adv-x="1152" 
d="M579 -19q-98 0 -173.5 26.5t-127 79t-78 128.5t-26.5 175v855q0 14 11 20.5t33 6.5t33 -6.5t11 -20.5v-855q0 -105 35.5 -177t106 -109.5t175.5 -37.5q103 0 172.5 37.5t104.5 109.5t35 177v855q0 14 11 20.5t33 6.5q43 0 43 -27v-855q0 -132 -46 -223.5t-135.5 -138.5
t-217.5 -47zM413 1318q-10 0 -22.5 12t-12.5 22v7t5 9l149 145q7 7 16 13.5t28 6.5t27.5 -6.5t15.5 -13.5l151 -145q5 -5 5.5 -9t0.5 -7q0 -10 -13 -22t-23 -12q-6 0 -11 3.5t-13 9.5l-140 102l-138 -102q-8 -6 -13.5 -9.5t-11.5 -3.5z" />
    <glyph glyph-name="Udieresis" unicode="&#xdc;" horiz-adv-x="1152" 
d="M579 -19q-98 0 -173.5 26.5t-127 79t-78 128.5t-26.5 175v855q0 14 11 20.5t33 6.5t33 -6.5t11 -20.5v-855q0 -105 35.5 -177t106 -109.5t175.5 -37.5q103 0 172.5 37.5t104.5 109.5t35 177v855q0 14 11 20.5t33 6.5q43 0 43 -27v-855q0 -132 -46 -223.5t-135.5 -138.5
t-217.5 -47zM446 1357q-28 0 -42.5 16t-14.5 47q0 32 14.5 47.5t42.5 15.5q27 0 41 -15.5t14 -47.5q1 -32 -13 -47.5t-42 -15.5zM708 1357q-28 0 -42 16t-14 47q0 32 14 47.5t42 15.5q27 0 41 -15.5t14 -47.5q1 -31 -13.5 -47t-41.5 -16z" />
    <glyph glyph-name="Yacute" unicode="&#xdd;" horiz-adv-x="849" 
d="M421 -14q-44 0 -44 28v524l-368 679q-7 13 -1 24t26 21q19 11 31.5 11t22.5 -17l334 -623l341 623q10 17 21.5 17t30.5 -11q21 -10 26.5 -21t-1.5 -24l-375 -680v-523q0 -28 -44 -28zM370 1318q-13 0 -25 13t-12 23q0 4 1.5 8.5t7.5 10.5l158 149q5 5 9.5 8t12.5 3
q10 0 22 -9t21 -21t9 -24q0 -7 -2.5 -12t-12.5 -13l-169 -126q-7 -4 -11.5 -7t-8.5 -3z" />
    <glyph glyph-name="Thorn" unicode="&#xde;" horiz-adv-x="962" 
d="M225 -14q-22 0 -33 7t-11 21v1231q0 14 11 20.5t33 6.5t33 -6.5t11 -20.5v-192h212q130 0 218.5 -31t133.5 -100t45 -181q0 -99 -35 -171.5t-95 -121.5t-135.5 -77.5t-157.5 -40.5q-52 -7 -99 -10.5t-87 -4.5v-301q0 -14 -11 -21t-33 -7zM269 394q25 1 54.5 2.5t62.5 5
t67 7.5q92 14 167 52t120.5 106t45.5 172q0 85 -34.5 136t-102.5 74.5t-168 23.5h-212v-579z" />
    <glyph glyph-name="germandbls.jmc" unicode="&#xdf;" horiz-adv-x="700" 
d="M168 -772q-22 0 -32.5 6.5t-10.5 19.5v1707q0 94 30 164.5t90 109.5t146 39q67 0 116.5 -22t82 -63.5t49 -101.5t16.5 -137q0 -62 -6.5 -118t-19.5 -104t-32 -88t-43.5 -70.5t-54.5 -51t-66 -29.5q73 -12 118 -45t66 -82t21 -109q0 -63 -17 -113.5t-50 -86t-79.5 -54
t-105.5 -18.5q-42 0 -72 10.5t-49 22.5q-10 7 -12 18.5t5 26.5q8 18 18.5 22.5t23.5 -1.5q14 -5 34.5 -12t51.5 -7q38 0 68.5 13t52 38t32.5 60.5t11 80.5q0 56 -20.5 99t-66.5 67t-124 24h-10q-15 0 -21.5 9t-6.5 31q0 23 6.5 31.5t21.5 8.5h14q35 0 65 13.5t55.5 39.5
t45.5 63.5t33.5 85t21 104.5t7.5 122q0 77 -19 131t-58.5 83t-102.5 29q-60 0 -100 -29.5t-60 -82t-20 -121.5v-1707q0 -13 -11 -19.5t-32 -6.5z" />
    <glyph glyph-name="agrave" unicode="&#xe0;" horiz-adv-x="624" 
d="M258 -17q-57 0 -101 27.5t-69 83.5t-25 141q0 52 9.5 96t28.5 79t46 59t62 37t77 13q32 0 66 -10.5t64 -27.5v5q0 15 11 22t33 7t32.5 -6.5t10.5 -20.5v-392q0 -13 4 -21.5t11 -12.5t16 -4q10 0 16.5 2.5t13 7.5t15.5 12q7 6 16 3.5t18 -10.5q9 -10 10 -21t-4 -19
q-11 -16 -28 -27t-36.5 -17t-39.5 -6q-23 0 -40 5t-29 15.5t-18.5 25.5t-9.5 34q0 1 -1 4.5t-1 7.5q-23 -37 -49.5 -57t-54.5 -27.5t-54 -7.5zM151 239q0 -55 13 -94.5t39.5 -60.5t66.5 -21q29 0 55.5 10t49.5 33t41 60v242q-31 19 -60 25.5t-61 6.5q-26 0 -48 -8t-40 -24
t-30.5 -40t-19 -56t-6.5 -73zM336 610q-4 0 -8.5 3t-10.5 10l-123 147q-7 8 -9.5 12.5t-2.5 11.5q0 9 10.5 19.5t24 18t23.5 7.5q14 0 24 -15l107 -164q5 -7 5.5 -10t0.5 -6q0 -10 -15 -22t-26 -12z" />
    <glyph glyph-name="aacute" unicode="&#xe1;" horiz-adv-x="624" 
d="M258 -17q-57 0 -101 27.5t-69 83.5t-25 141q0 52 9.5 96t28.5 79t46 59t62 37t77 13q32 0 66 -10.5t64 -27.5v5q0 15 11 22t33 7t32.5 -6.5t10.5 -20.5v-392q0 -13 4 -21.5t11 -12.5t16 -4q10 0 16.5 2.5t13 7.5t15.5 12q7 6 16 3.5t18 -10.5q9 -10 10 -21t-4 -19
q-11 -16 -28 -27t-36.5 -17t-39.5 -6q-23 0 -40 5t-29 15.5t-18.5 25.5t-9.5 34q0 1 -1 4.5t-1 7.5q-23 -37 -49.5 -57t-54.5 -27.5t-54 -7.5zM151 239q0 -55 13 -94.5t39.5 -60.5t66.5 -21q29 0 55.5 10t49.5 33t41 60v242q-31 19 -60 25.5t-61 6.5q-26 0 -48 -8t-40 -24
t-30.5 -40t-19 -56t-6.5 -73zM275 610q-11 0 -26 12t-15 22q0 3 1 6t5 10l107 164q5 8 10.5 11.5t13.5 3.5q10 0 23.5 -7.5t24 -18t10.5 -19.5q0 -7 -2.5 -11.5t-9.5 -12.5l-123 -147q-12 -13 -19 -13z" />
    <glyph glyph-name="acircumflex" unicode="&#xe2;" horiz-adv-x="624" 
d="M258 -17q-57 0 -101 27.5t-69 83.5t-25 141q0 52 9.5 96t28.5 79t46 59t62 37t77 13q32 0 66 -10.5t64 -27.5v5q0 15 11 22t33 7t32.5 -6.5t10.5 -20.5v-392q0 -13 4 -21.5t11 -12.5t16 -4q10 0 16.5 2.5t13 7.5t15.5 12q7 6 16 3.5t18 -10.5q9 -10 10 -21t-4 -19
q-11 -16 -28 -27t-36.5 -17t-39.5 -6q-23 0 -40 5t-29 15.5t-18.5 25.5t-9.5 34q0 1 -1 4.5t-1 7.5q-23 -37 -49.5 -57t-54.5 -27.5t-54 -7.5zM151 239q0 -55 13 -94.5t39.5 -60.5t66.5 -21q29 0 55.5 10t49.5 33t41 60v242q-31 19 -60 25.5t-61 6.5q-26 0 -48 -8t-40 -24
t-30.5 -40t-19 -56t-6.5 -73zM164 610q-10 0 -22.5 12t-12.5 22q0 3 1 6t5 10l127 159q6 7 15.5 13.5t28.5 6.5t28 -6.5t15 -13.5l128 -159q5 -7 6 -10t1 -6q0 -10 -13 -22t-22 -12q-7 0 -13 3.5t-12 9.5l-118 116l-117 -116q-7 -6 -13 -9.5t-12 -3.5z" />
    <glyph glyph-name="atilde" unicode="&#xe3;" horiz-adv-x="624" 
d="M258 -17q-57 0 -101 27.5t-69 83.5t-25 141q0 52 9.5 96t28.5 79t46 59t62 37t77 13q32 0 66 -10.5t64 -27.5v5q0 15 11 22t33 7t32.5 -6.5t10.5 -20.5v-392q0 -13 4 -21.5t11 -12.5t16 -4q10 0 16.5 2.5t13 7.5t15.5 12q7 6 16 3.5t18 -10.5q9 -10 10 -21t-4 -19
q-11 -16 -28 -27t-36.5 -17t-39.5 -6q-23 0 -40 5t-29 15.5t-18.5 25.5t-9.5 34q0 1 -1 4.5t-1 7.5q-23 -37 -49.5 -57t-54.5 -27.5t-54 -7.5zM151 239q0 -55 13 -94.5t39.5 -60.5t66.5 -21q29 0 55.5 10t49.5 33t41 60v242q-31 19 -60 25.5t-61 6.5q-26 0 -48 -8t-40 -24
t-30.5 -40t-19 -56t-6.5 -73zM155 640q-34 0 -34 26q1 73 30 104t75 31q30 0 52.5 -11.5t40.5 -26t34 -26t32 -11.5q13 0 21.5 14.5t9.5 40.5q2 22 34 22q20 0 28 -7t8 -21q-1 -61 -25.5 -97.5t-81.5 -36.5q-29 0 -52 11.5t-41.5 27t-34 27t-30.5 11.5q-12 0 -20 -13
t-10 -39q-1 -13 -10 -19.5t-26 -6.5z" />
    <glyph glyph-name="adieresis" unicode="&#xe4;" horiz-adv-x="624" 
d="M258 -17q-57 0 -101 27.5t-69 83.5t-25 141q0 52 9.5 96t28.5 79t46 59t62 37t77 13q32 0 66 -10.5t64 -27.5v5q0 15 11 22t33 7t32.5 -6.5t10.5 -20.5v-392q0 -13 4 -21.5t11 -12.5t16 -4q10 0 16.5 2.5t13 7.5t15.5 12q7 6 16 3.5t18 -10.5q9 -10 10 -21t-4 -19
q-11 -16 -28 -27t-36.5 -17t-39.5 -6q-23 0 -40 5t-29 15.5t-18.5 25.5t-9.5 34q0 1 -1 4.5t-1 7.5q-23 -37 -49.5 -57t-54.5 -27.5t-54 -7.5zM151 239q0 -55 13 -94.5t39.5 -60.5t66.5 -21q29 0 55.5 10t49.5 33t41 60v242q-31 19 -60 25.5t-61 6.5q-26 0 -48 -8t-40 -24
t-30.5 -40t-19 -56t-6.5 -73zM189 669q-28 0 -42 15.5t-14 46.5q0 32 14 48t42 16t41.5 -16t13.5 -48q2 -31 -12.5 -46.5t-42.5 -15.5zM424 669q-28 0 -42 15.5t-14 46.5q0 32 14 48t42 16q27 0 41 -16t14 -48q1 -31 -13.5 -46.5t-41.5 -15.5z" />
    <glyph glyph-name="aring" unicode="&#xe5;" horiz-adv-x="624" 
d="M258 -17q-57 0 -101 27.5t-69 83.5t-25 141q0 52 9.5 96t28.5 79t46 59t62 37t77 13q32 0 66 -10.5t64 -27.5v5q0 15 11 22t33 7t32.5 -6.5t10.5 -20.5v-392q0 -13 4 -21.5t11 -12.5t16 -4q10 0 16.5 2.5t13 7.5t15.5 12q7 6 16 3.5t18 -10.5q9 -10 10 -21t-4 -19
q-11 -16 -28 -27t-36.5 -17t-39.5 -6q-23 0 -40 5t-29 15.5t-18.5 25.5t-9.5 34q0 1 -1 4.5t-1 7.5q-23 -37 -49.5 -57t-54.5 -27.5t-54 -7.5zM151 239q0 -55 13 -94.5t39.5 -60.5t66.5 -21q29 0 55.5 10t49.5 33t41 60v242q-31 19 -60 25.5t-61 6.5q-26 0 -48 -8t-40 -24
t-30.5 -40t-19 -56t-6.5 -73zM306 601q-61 0 -98.5 36t-37.5 94q0 39 17 68t48 45t71 16q61 0 98.5 -35t37.5 -94q0 -39 -17 -68t-47.5 -45.5t-71.5 -16.5zM306 661q21 0 35.5 9t22 24.5t7.5 36.5q0 32 -17 50.5t-48 18.5q-20 0 -35 -8.5t-22.5 -24t-7.5 -36.5
q0 -31 17 -50.5t48 -19.5z" />
    <glyph glyph-name="ae.ful" unicode="&#xe6;" horiz-adv-x="776" 
d="M239 -17q-55 0 -94.5 27t-60.5 78.5t-21 125.5q0 49 12 94t35.5 83.5t58 67t79.5 44.5t99 16q31 0 52.5 -2.5t45 -7.5t59.5 -14l-63 -71q-28 9 -51.5 12t-46.5 3q-43 0 -78 -16.5t-60.5 -46.5t-39 -70t-13.5 -88q0 -53 11 -87.5t32.5 -51t50.5 -16.5q30 0 56.5 15.5
t51 51t48.5 94.5l40 -85q-27 -55 -58 -89.5t-67 -50.5t-78 -16zM632 -17q-44 0 -82 17t-69 48t-53.5 73.5t-34.5 93t-12 106.5q0 34 8 64.5t23.5 55t38 42t50.5 27t62 9.5q46 0 79 -17t51 -48t18 -74q0 -46 -17 -83t-49 -64.5t-78 -45t-104 -23.5l-14 71q41 2 73 11.5
t54 26.5t34 41.5t12 56.5t-18 50.5t-50 18.5q-20 0 -36 -7.5t-27 -23t-17 -37.5t-6 -51q0 -57 15 -104.5t40 -81.5t56.5 -53t63.5 -19q18 0 36.5 7.5t38 22.5t39.5 37q15 16 27.5 15.5t26.5 -11.5t16.5 -23t-6.5 -26q-26 -38 -59 -60.5t-67 -32t-63 -9.5z" />
    <glyph glyph-name="ccedilla" unicode="&#xe7;" horiz-adv-x="511" 
d="M283 -19q-67 0 -119.5 30t-82.5 89t-30 145q0 60 17.5 110.5t49 87t74.5 56.5t95 20q44 0 90.5 -18.5t83.5 -62.5q11 -14 8.5 -25t-13.5 -23q-13 -13 -24.5 -16t-23.5 7q-27 23 -54 40.5t-71 17.5q-33 0 -60 -13t-45.5 -38t-28.5 -59.5t-10 -78.5q0 -58 17.5 -100.5
t49.5 -65.5t77 -23q32 0 54.5 9t41.5 25.5t40 39.5q11 11 23 10t26 -12t18 -21.5t-5 -23.5q-27 -39 -60.5 -62.5t-69 -34t-68.5 -10.5zM265 -269q-16 0 -48 5.5t-59 22.5q-11 7 -12.5 18.5t3.5 22.5q7 14 16 18t22 -2q11 -4 30 -10t41 -6q31 0 43.5 7.5t12.5 26.5
q0 15 -15.5 26t-59.5 5q-11 -1 -17 1t-12 9q-5 7 -5.5 14t2.5 14l50 110h70l-59 -118l-30 16q45 17 80 11t55 -29t20 -59q0 -32 -14.5 -55t-42.5 -35.5t-71 -12.5z" />
    <glyph glyph-name="egrave" unicode="&#xe8;" horiz-adv-x="526" 
d="M293 -19q-79 0 -130 34t-75.5 90t-24.5 123t18.5 120.5t52.5 91.5t80.5 58.5t101.5 20.5q49 0 85.5 -14.5t57 -44t20.5 -74.5q0 -38 -16.5 -69t-46.5 -54.5t-71 -39t-92 -23.5t-108 -9v70q33 0 67.5 4.5t66.5 13.5t57 23.5t39.5 33.5t14.5 43q0 32 -21.5 46t-57.5 14
q-33 0 -61.5 -13t-51 -38.5t-35 -61.5t-12.5 -82q0 -55 17.5 -96t49.5 -64t77 -23q30 0 51 7.5t39.5 23t40.5 37.5q15 15 27.5 15t26.5 -11t17 -23.5t-7 -25.5q-25 -38 -59 -60.5t-69.5 -32.5t-68.5 -10zM334 610q-4 0 -8.5 3t-10.5 10l-123 147q-7 8 -9.5 12.5t-2.5 11.5
q0 9 10.5 19.5t24 18t23.5 7.5q14 0 24 -15l107 -164q5 -7 5.5 -10t0.5 -6q0 -10 -15 -22t-26 -12z" />
    <glyph glyph-name="eacute" unicode="&#xe9;" horiz-adv-x="526" 
d="M293 -19q-79 0 -130 34t-75.5 90t-24.5 123t18.5 120.5t52.5 91.5t80.5 58.5t101.5 20.5q49 0 85.5 -14.5t57 -44t20.5 -74.5q0 -38 -16.5 -69t-46.5 -54.5t-71 -39t-92 -23.5t-108 -9v70q33 0 67.5 4.5t66.5 13.5t57 23.5t39.5 33.5t14.5 43q0 32 -21.5 46t-57.5 14
q-33 0 -61.5 -13t-51 -38.5t-35 -61.5t-12.5 -82q0 -55 17.5 -96t49.5 -64t77 -23q30 0 51 7.5t39.5 23t40.5 37.5q15 15 27.5 15t26.5 -11t17 -23.5t-7 -25.5q-25 -38 -59 -60.5t-69.5 -32.5t-68.5 -10zM273 610q-11 0 -26 12t-15 22q0 3 1 6t5 10l107 164q5 8 10.5 11.5
t13.5 3.5q10 0 23.5 -7.5t24 -18t10.5 -19.5q0 -7 -2.5 -11.5t-9.5 -12.5l-123 -147q-12 -13 -19 -13z" />
    <glyph glyph-name="ecircumflex" unicode="&#xea;" horiz-adv-x="526" 
d="M293 -19q-79 0 -130 34t-75.5 90t-24.5 123t18.5 120.5t52.5 91.5t80.5 58.5t101.5 20.5q49 0 85.5 -14.5t57 -44t20.5 -74.5q0 -38 -16.5 -69t-46.5 -54.5t-71 -39t-92 -23.5t-108 -9v70q33 0 67.5 4.5t66.5 13.5t57 23.5t39.5 33.5t14.5 43q0 32 -21.5 46t-57.5 14
q-33 0 -61.5 -13t-51 -38.5t-35 -61.5t-12.5 -82q0 -55 17.5 -96t49.5 -64t77 -23q30 0 51 7.5t39.5 23t40.5 37.5q15 15 27.5 15t26.5 -11t17 -23.5t-7 -25.5q-25 -38 -59 -60.5t-69.5 -32.5t-68.5 -10zM162 610q-10 0 -22.5 12t-12.5 22q0 3 1 6t5 10l127 159
q6 7 15.5 13.5t28.5 6.5t28 -6.5t15 -13.5l128 -159q5 -7 6 -10t1 -6q0 -10 -13 -22t-22 -12q-7 0 -13 3.5t-12 9.5l-118 116l-117 -116q-7 -6 -13 -9.5t-12 -3.5z" />
    <glyph glyph-name="edieresis" unicode="&#xeb;" horiz-adv-x="526" 
d="M293 -19q-79 0 -130 34t-75.5 90t-24.5 123t18.5 120.5t52.5 91.5t80.5 58.5t101.5 20.5q49 0 85.5 -14.5t57 -44t20.5 -74.5q0 -38 -16.5 -69t-46.5 -54.5t-71 -39t-92 -23.5t-108 -9v70q33 0 67.5 4.5t66.5 13.5t57 23.5t39.5 33.5t14.5 43q0 32 -21.5 46t-57.5 14
q-33 0 -61.5 -13t-51 -38.5t-35 -61.5t-12.5 -82q0 -55 17.5 -96t49.5 -64t77 -23q30 0 51 7.5t39.5 23t40.5 37.5q15 15 27.5 15t26.5 -11t17 -23.5t-7 -25.5q-25 -38 -59 -60.5t-69.5 -32.5t-68.5 -10zM187 669q-28 0 -42 15.5t-14 46.5q0 32 14 48t42 16t41.5 -16
t13.5 -48q2 -31 -12.5 -46.5t-42.5 -15.5zM422 669q-28 0 -42 15.5t-14 46.5q0 32 14 48t42 16q27 0 41 -16t14 -48q1 -31 -13.5 -46.5t-41.5 -15.5z" />
    <glyph glyph-name="igrave" unicode="&#xec;" horiz-adv-x="304" 
d="M193 -17q-26 0 -45 7t-31 20t-17.5 32.5t-5.5 43.5v403q0 13 10.5 19.5t31.5 6.5q22 0 33 -6.5t11 -19.5v-393q0 -13 4 -21.5t11 -12.5t16 -4q11 0 19 4t15 10t15 12q7 5 15.5 -0.5t17.5 -15.5q5 -7 7 -16t-4 -17q-11 -15 -28 -27t-36.5 -18.5t-38.5 -6.5zM160 610
q-4 0 -8.5 3t-10.5 10l-123 147q-7 8 -9.5 12.5t-2.5 11.5q0 9 10.5 19.5t24 18t23.5 7.5q14 0 24 -15l107 -164q5 -7 5.5 -10t0.5 -6q0 -10 -15 -22t-26 -12z" />
    <glyph glyph-name="iacute" unicode="&#xed;" horiz-adv-x="304" 
d="M193 -17q-26 0 -45 7t-31 20t-17.5 32.5t-5.5 43.5v403q0 13 10.5 19.5t31.5 6.5q22 0 33 -6.5t11 -19.5v-393q0 -13 4 -21.5t11 -12.5t16 -4q11 0 19 4t15 10t15 12q7 5 15.5 -0.5t17.5 -15.5q5 -7 7 -16t-4 -17q-11 -15 -28 -27t-36.5 -18.5t-38.5 -6.5zM99 610
q-11 0 -26 12t-15 22q0 3 1 6t5 10l107 164q5 8 10.5 11.5t13.5 3.5q10 0 23.5 -7.5t24 -18t10.5 -19.5q0 -7 -2.5 -11.5t-9.5 -12.5l-123 -147q-12 -13 -19 -13z" />
    <glyph glyph-name="icircumflex" unicode="&#xee;" horiz-adv-x="304" 
d="M193 -17q-26 0 -45 7t-31 20t-17.5 32.5t-5.5 43.5v403q0 13 10.5 19.5t31.5 6.5q22 0 33 -6.5t11 -19.5v-393q0 -13 4 -21.5t11 -12.5t16 -4q11 0 19 4t15 10t15 12q7 5 15.5 -0.5t17.5 -15.5q5 -7 7 -16t-4 -17q-11 -15 -28 -27t-36.5 -18.5t-38.5 -6.5zM-12 610
q-10 0 -22.5 12t-12.5 22q0 3 1 6t5 10l127 159q6 7 15.5 13.5t28.5 6.5t28 -6.5t15 -13.5l128 -159q5 -7 6 -10t1 -6q0 -10 -13 -22t-22 -12q-7 0 -13 3.5t-12 9.5l-118 116l-117 -116q-7 -6 -13 -9.5t-12 -3.5z" />
    <glyph glyph-name="idieresis" unicode="&#xef;" horiz-adv-x="304" 
d="M193 -17q-26 0 -45 7t-31 20t-17.5 32.5t-5.5 43.5v403q0 13 10.5 19.5t31.5 6.5q22 0 33 -6.5t11 -19.5v-393q0 -13 4 -21.5t11 -12.5t16 -4q11 0 19 4t15 10t15 12q7 5 15.5 -0.5t17.5 -15.5q5 -7 7 -16t-4 -17q-11 -15 -28 -27t-36.5 -18.5t-38.5 -6.5zM13 669
q-28 0 -42 15.5t-14 46.5q0 32 14 48t42 16t41.5 -16t13.5 -48q2 -31 -12.5 -46.5t-42.5 -15.5zM248 669q-28 0 -42 15.5t-14 46.5q0 32 14 48t42 16q27 0 41 -16t14 -48q1 -31 -13.5 -46.5t-41.5 -15.5z" />
    <glyph glyph-name="eth.mod" unicode="&#xf0;" horiz-adv-x="603" 
d="M294 -19q-72 0 -120.5 34t-73.5 94.5t-25 140.5q0 59 17 108.5t47.5 85.5t72.5 55.5t92 19.5q38 0 72 -13t63 -38q-8 122 -28.5 232t-52 205t-73 171.5t-91.5 131.5q-10 11 -9 25t15 27q27 24 49 1q55 -58 100 -131.5t80.5 -162t59.5 -190t37 -214.5t13 -236
q0 -89 -19.5 -154t-53.5 -108t-78 -63.5t-94 -20.5zM294 61q31 0 59 14.5t50 46.5t34.5 82.5t12.5 122.5q0 11 -0.5 23t-1.5 23q-30 32 -66 49t-78 17q-33 0 -59 -14t-44 -39.5t-27.5 -60t-9.5 -75.5q0 -55 15 -98t44 -67t71 -24zM229 921q-13 -7 -23 -2t-18 21q-7 14 -4 24
t16 16l282 145q28 14 41 -18q7 -13 4.5 -23t-13.5 -15z" />
    <glyph glyph-name="ntilde" unicode="&#xf1;" horiz-adv-x="646" 
d="M539 -17q-26 0 -45 7t-31 20t-17.5 32.5t-5.5 43.5v240q0 35 -10.5 60.5t-32.5 39t-59 13.5q-22 0 -44 -6t-43 -19t-39 -35t-32 -54v-314q0 -13 -11 -19.5t-33 -6.5q-21 0 -31.5 6.5t-10.5 19.5v478q0 13 10.5 19.5t31.5 6.5q22 0 33 -6.5t11 -19.5v-65q15 21 33 38.5
t40 30t46 19.5t51 7q52 0 91.5 -19t62 -59.5t22.5 -106.5v-238q0 -13 4 -21.5t11.5 -12.5t16.5 -4t16.5 3t14.5 8.5t14 10.5q8 6 18 2t17 -12q8 -10 8.5 -20t-5.5 -19q-11 -15 -27.5 -26t-35.5 -16.5t-39 -5.5zM162 640q-34 0 -34 26q1 73 30 104t75 31q30 0 52.5 -11.5
t40.5 -26t34 -26t32 -11.5q13 0 21.5 14.5t9.5 40.5q2 22 34 22q20 0 28 -7t8 -21q-1 -61 -25.5 -97.5t-81.5 -36.5q-29 0 -52 11.5t-41.5 27t-34 27t-30.5 11.5q-12 0 -20 -13t-10 -39q-1 -13 -10 -19.5t-26 -6.5z" />
    <glyph glyph-name="ograve" unicode="&#xf2;" horiz-adv-x="589" 
d="M295 -19q-67 0 -119.5 35t-82.5 95.5t-30 138.5q0 59 17 108t48.5 85t73.5 56t93 20q67 0 119 -34.5t82 -95.5t30 -139q0 -47 -11 -88t-31.5 -74t-49 -57t-64 -37t-75.5 -13zM295 61q33 0 59.5 13t45 38t28.5 60t10 78q0 58 -17 100.5t-49 65.5t-77 23q-33 0 -60 -13
t-45.5 -38t-28.5 -59.5t-10 -78.5q0 -58 17.5 -100.5t49.5 -65.5t77 -23zM325 610q-4 0 -8.5 3t-10.5 10l-123 147q-7 8 -9.5 12.5t-2.5 11.5q0 9 10.5 19.5t24 18t23.5 7.5q14 0 24 -15l107 -164q5 -7 5.5 -10t0.5 -6q0 -10 -15 -22t-26 -12z" />
    <glyph glyph-name="oacute" unicode="&#xf3;" horiz-adv-x="589" 
d="M295 -19q-67 0 -119.5 35t-82.5 95.5t-30 138.5q0 59 17 108t48.5 85t73.5 56t93 20q67 0 119 -34.5t82 -95.5t30 -139q0 -47 -11 -88t-31.5 -74t-49 -57t-64 -37t-75.5 -13zM295 61q33 0 59.5 13t45 38t28.5 60t10 78q0 58 -17 100.5t-49 65.5t-77 23q-33 0 -60 -13
t-45.5 -38t-28.5 -59.5t-10 -78.5q0 -58 17.5 -100.5t49.5 -65.5t77 -23zM264 610q-11 0 -26 12t-15 22q0 3 1 6t5 10l107 164q5 8 10.5 11.5t13.5 3.5q10 0 23.5 -7.5t24 -18t10.5 -19.5q0 -7 -2.5 -11.5t-9.5 -12.5l-123 -147q-12 -13 -19 -13z" />
    <glyph glyph-name="ocircumflex" unicode="&#xf4;" horiz-adv-x="589" 
d="M295 -19q-67 0 -119.5 35t-82.5 95.5t-30 138.5q0 59 17 108t48.5 85t73.5 56t93 20q67 0 119 -34.5t82 -95.5t30 -139q0 -47 -11 -88t-31.5 -74t-49 -57t-64 -37t-75.5 -13zM295 61q33 0 59.5 13t45 38t28.5 60t10 78q0 58 -17 100.5t-49 65.5t-77 23q-33 0 -60 -13
t-45.5 -38t-28.5 -59.5t-10 -78.5q0 -58 17.5 -100.5t49.5 -65.5t77 -23zM153 610q-10 0 -22.5 12t-12.5 22q0 3 1 6t5 10l127 159q6 7 15.5 13.5t28.5 6.5t28 -6.5t15 -13.5l128 -159q5 -7 6 -10t1 -6q0 -10 -13 -22t-22 -12q-7 0 -13 3.5t-12 9.5l-118 116l-117 -116
q-7 -6 -13 -9.5t-12 -3.5z" />
    <glyph glyph-name="otilde" unicode="&#xf5;" horiz-adv-x="589" 
d="M295 -19q-67 0 -119.5 35t-82.5 95.5t-30 138.5q0 59 17 108t48.5 85t73.5 56t93 20q67 0 119 -34.5t82 -95.5t30 -139q0 -47 -11 -88t-31.5 -74t-49 -57t-64 -37t-75.5 -13zM295 61q33 0 59.5 13t45 38t28.5 60t10 78q0 58 -17 100.5t-49 65.5t-77 23q-33 0 -60 -13
t-45.5 -38t-28.5 -59.5t-10 -78.5q0 -58 17.5 -100.5t49.5 -65.5t77 -23zM144 640q-34 0 -34 26q1 73 30 104t75 31q30 0 52.5 -11.5t40.5 -26t34 -26t32 -11.5q13 0 21.5 14.5t9.5 40.5q2 22 34 22q20 0 28 -7t8 -21q-1 -61 -25.5 -97.5t-81.5 -36.5q-29 0 -52 11.5
t-41.5 27t-34 27t-30.5 11.5q-12 0 -20 -13t-10 -39q-1 -13 -10 -19.5t-26 -6.5z" />
    <glyph glyph-name="odieresis" unicode="&#xf6;" horiz-adv-x="589" 
d="M295 -19q-67 0 -119.5 35t-82.5 95.5t-30 138.5q0 59 17 108t48.5 85t73.5 56t93 20q67 0 119 -34.5t82 -95.5t30 -139q0 -47 -11 -88t-31.5 -74t-49 -57t-64 -37t-75.5 -13zM295 61q33 0 59.5 13t45 38t28.5 60t10 78q0 58 -17 100.5t-49 65.5t-77 23q-33 0 -60 -13
t-45.5 -38t-28.5 -59.5t-10 -78.5q0 -58 17.5 -100.5t49.5 -65.5t77 -23zM178 669q-28 0 -42 15.5t-14 46.5q0 32 14 48t42 16t41.5 -16t13.5 -48q2 -31 -12.5 -46.5t-42.5 -15.5zM413 669q-28 0 -42 15.5t-14 46.5q0 32 14 48t42 16q27 0 41 -16t14 -48q1 -31 -13.5 -46.5
t-41.5 -15.5z" />
    <glyph glyph-name="divide" unicode="&#xf7;" horiz-adv-x="763" 
d="M113 398q-11 0 -18 10t-7 30q0 40 25 40h537q11 0 18 -10t7 -30q0 -40 -25 -40h-537zM381 172q-31 0 -46.5 16.5t-15.5 48.5q0 33 15.5 49t46.5 16q32 0 47.5 -16t15.5 -49q0 -32 -15.5 -48.5t-47.5 -16.5zM381 572q-31 0 -46.5 16.5t-15.5 48.5q0 33 15.5 49t46.5 16
q32 0 47.5 -16t15.5 -49q0 -32 -15.5 -48.5t-47.5 -16.5z" />
    <glyph glyph-name="oslash" unicode="&#xf8;" horiz-adv-x="589" 
d="M295 -19q-67 0 -119.5 35t-82.5 95.5t-30 138.5q0 59 17 108t48.5 85t73.5 56t93 20q67 0 119 -34.5t82 -95.5t30 -139q0 -47 -11 -88t-31.5 -74t-49 -57t-64 -37t-75.5 -13zM295 61q33 0 59.5 13t45 38t28.5 60t10 78q0 58 -17 100.5t-49 65.5t-77 23q-33 0 -60 -13
t-45.5 -38t-28.5 -59.5t-10 -78.5q0 -58 17.5 -100.5t49.5 -65.5t77 -23zM159 -65q-7 -11 -20.5 -12t-25.5 5q-13 7 -17 18t3 25l330 581q5 10 18 12.5t27 -6.5q12 -7 17.5 -17.5t-0.5 -20.5z" />
    <glyph glyph-name="ugrave" unicode="&#xf9;" horiz-adv-x="645" 
d="M269 -17q-58 0 -97 20.5t-58.5 61t-19.5 101.5v323q0 13 10.5 19.5t31.5 6.5q22 0 33 -6.5t11 -19.5v-323q0 -35 11 -59t33.5 -36t55.5 -12q28 0 52 9t43.5 24.5t34.5 37.5t25 47v312q0 13 10.5 19.5t32.5 6.5q21 0 32 -6.5t11 -19.5v-393q0 -14 4 -23t11.5 -13t16.5 -4
t16.5 3.5t15 9.5t14.5 11q8 6 17.5 3t17.5 -14q5 -7 7 -17t-5 -19q-10 -15 -26 -26.5t-35 -18.5t-39 -7q-24 0 -41.5 6.5t-29.5 18.5t-19 28t-9 35l-1 9q-14 -22 -31.5 -39.5t-38.5 -30t-45.5 -19t-51.5 -6.5zM333 610q-4 0 -8.5 3t-10.5 10l-123 147q-7 8 -9.5 12.5
t-2.5 11.5q0 9 10.5 19.5t24 18t23.5 7.5q14 0 24 -15l107 -164q5 -7 5.5 -10t0.5 -6q0 -10 -15 -22t-26 -12z" />
    <glyph glyph-name="uacute" unicode="&#xfa;" horiz-adv-x="645" 
d="M269 -17q-58 0 -97 20.5t-58.5 61t-19.5 101.5v323q0 13 10.5 19.5t31.5 6.5q22 0 33 -6.5t11 -19.5v-323q0 -35 11 -59t33.5 -36t55.5 -12q28 0 52 9t43.5 24.5t34.5 37.5t25 47v312q0 13 10.5 19.5t32.5 6.5q21 0 32 -6.5t11 -19.5v-393q0 -14 4 -23t11.5 -13t16.5 -4
t16.5 3.5t15 9.5t14.5 11q8 6 17.5 3t17.5 -14q5 -7 7 -17t-5 -19q-10 -15 -26 -26.5t-35 -18.5t-39 -7q-24 0 -41.5 6.5t-29.5 18.5t-19 28t-9 35l-1 9q-14 -22 -31.5 -39.5t-38.5 -30t-45.5 -19t-51.5 -6.5zM272 610q-11 0 -26 12t-15 22q0 3 1 6t5 10l107 164
q5 8 10.5 11.5t13.5 3.5q10 0 23.5 -7.5t24 -18t10.5 -19.5q0 -7 -2.5 -11.5t-9.5 -12.5l-123 -147q-12 -13 -19 -13z" />
    <glyph glyph-name="ucircumflex" unicode="&#xfb;" horiz-adv-x="645" 
d="M269 -17q-58 0 -97 20.5t-58.5 61t-19.5 101.5v323q0 13 10.5 19.5t31.5 6.5q22 0 33 -6.5t11 -19.5v-323q0 -35 11 -59t33.5 -36t55.5 -12q28 0 52 9t43.5 24.5t34.5 37.5t25 47v312q0 13 10.5 19.5t32.5 6.5q21 0 32 -6.5t11 -19.5v-393q0 -14 4 -23t11.5 -13t16.5 -4
t16.5 3.5t15 9.5t14.5 11q8 6 17.5 3t17.5 -14q5 -7 7 -17t-5 -19q-10 -15 -26 -26.5t-35 -18.5t-39 -7q-24 0 -41.5 6.5t-29.5 18.5t-19 28t-9 35l-1 9q-14 -22 -31.5 -39.5t-38.5 -30t-45.5 -19t-51.5 -6.5zM161 610q-10 0 -22.5 12t-12.5 22q0 3 1 6t5 10l127 159
q6 7 15.5 13.5t28.5 6.5t28 -6.5t15 -13.5l128 -159q5 -7 6 -10t1 -6q0 -10 -13 -22t-22 -12q-7 0 -13 3.5t-12 9.5l-118 116l-117 -116q-7 -6 -13 -9.5t-12 -3.5z" />
    <glyph glyph-name="udieresis" unicode="&#xfc;" horiz-adv-x="645" 
d="M269 -17q-58 0 -97 20.5t-58.5 61t-19.5 101.5v323q0 13 10.5 19.5t31.5 6.5q22 0 33 -6.5t11 -19.5v-323q0 -35 11 -59t33.5 -36t55.5 -12q28 0 52 9t43.5 24.5t34.5 37.5t25 47v312q0 13 10.5 19.5t32.5 6.5q21 0 32 -6.5t11 -19.5v-393q0 -14 4 -23t11.5 -13t16.5 -4
t16.5 3.5t15 9.5t14.5 11q8 6 17.5 3t17.5 -14q5 -7 7 -17t-5 -19q-10 -15 -26 -26.5t-35 -18.5t-39 -7q-24 0 -41.5 6.5t-29.5 18.5t-19 28t-9 35l-1 9q-14 -22 -31.5 -39.5t-38.5 -30t-45.5 -19t-51.5 -6.5zM186 669q-28 0 -42 15.5t-14 46.5q0 32 14 48t42 16t41.5 -16
t13.5 -48q2 -31 -12.5 -46.5t-42.5 -15.5zM421 669q-28 0 -42 15.5t-14 46.5q0 32 14 48t42 16q27 0 41 -16t14 -48q1 -31 -13.5 -46.5t-41.5 -15.5z" />
    <glyph glyph-name="yacute" unicode="&#xfd;" horiz-adv-x="615" 
d="M269 -17q-58 0 -97 20.5t-58.5 61t-19.5 101.5v323q0 13 10.5 19.5t31.5 6.5q22 0 33 -6.5t11 -19.5v-323q0 -35 11 -59t33.5 -36t55.5 -12q28 0 52 9t43.5 25t34.5 38t25 47v311q0 13 10.5 19.5t32.5 6.5q21 0 32 -6.5t11 -19.5v-1033q0 -76 -27.5 -128t-77 -78
t-116.5 -26q-45 0 -81 12.5t-62.5 33.5t-43.5 44q-10 14 -7.5 30.5t23.5 27.5q18 9 28.5 7.5t22.5 -15.5q30 -32 59.5 -47t69.5 -15q39 0 67 16t43.5 50.5t15.5 89.5v618q-13 -21 -30.5 -38.5t-39 -29.5t-45.5 -18.5t-51 -6.5zM277 610q-11 0 -26 12t-15 22q0 3 1 6t5 10
l107 164q5 8 10.5 11.5t13.5 3.5q10 0 23.5 -7.5t24 -18t10.5 -19.5q0 -7 -2.5 -11.5t-9.5 -12.5l-123 -147q-12 -13 -19 -13z" />
    <glyph glyph-name="thorn.jmc" unicode="&#xfe;" horiz-adv-x="635" 
d="M168 -772q-22 0 -32.5 6.5t-10.5 19.5v1992q0 13 10.5 19.5t32.5 6.5q21 0 32 -6.5t11 -19.5v-813q24 35 50 53.5t52.5 25.5t51.5 7q86 0 140.5 -62.5t54.5 -190.5q0 -52 -10 -96t-29 -78.5t-47.5 -58.5t-65 -37t-80.5 -13q-31 0 -61 8t-56 23v-760q0 -13 -11 -19.5
t-32 -6.5zM211 95q30 -18 59 -26t58 -8q26 0 48 8t39.5 24t30 40.5t19 57t6.5 72.5q0 55 -13 94.5t-39 60.5t-66 21q-27 0 -52.5 -10t-48 -31t-41.5 -55v-248z" />
    <glyph glyph-name="ydieresis" unicode="&#xff;" horiz-adv-x="615" 
d="M269 -17q-58 0 -97 20.5t-58.5 61t-19.5 101.5v323q0 13 10.5 19.5t31.5 6.5q22 0 33 -6.5t11 -19.5v-323q0 -35 11 -59t33.5 -36t55.5 -12q28 0 52 9t43.5 25t34.5 38t25 47v311q0 13 10.5 19.5t32.5 6.5q21 0 32 -6.5t11 -19.5v-1033q0 -76 -27.5 -128t-77 -78
t-116.5 -26q-45 0 -81 12.5t-62.5 33.5t-43.5 44q-10 14 -7.5 30.5t23.5 27.5q18 9 28.5 7.5t22.5 -15.5q30 -32 59.5 -47t69.5 -15q39 0 67 16t43.5 50.5t15.5 89.5v618q-13 -21 -30.5 -38.5t-39 -29.5t-45.5 -18.5t-51 -6.5zM191 669q-28 0 -42 15.5t-14 46.5q0 32 14 48
t42 16t41.5 -16t13.5 -48q2 -31 -12.5 -46.5t-42.5 -15.5zM426 669q-28 0 -42 15.5t-14 46.5q0 32 14 48t42 16q27 0 41 -16t14 -48q1 -31 -13.5 -46.5t-41.5 -15.5z" />
    <glyph glyph-name="Amacron" unicode="&#x100;" horiz-adv-x="1003" 
d="M76 -14q-26 0 -35.5 12.5t-3.5 32.5l408 1201q8 23 20.5 31.5t35.5 8.5q24 0 36 -8.5t19 -31.5l409 -1201q7 -20 -3.5 -32.5t-36.5 -12.5q-22 0 -32 8.5t-17 28.5l-115 346h-521l-116 -346q-7 -20 -16.5 -28.5t-31.5 -8.5zM268 449h465l-232 690zM355 1381
q-17 0 -22 11.5t-5 29.5q0 19 5 31.5t22 12.5h293q18 0 22.5 -12.5t4.5 -31.5q0 -18 -4.5 -29.5t-22.5 -11.5h-293z" />
    <glyph glyph-name="amacron" unicode="&#x101;" horiz-adv-x="624" 
d="M258 -17q-57 0 -101 27.5t-69 83.5t-25 141q0 52 9.5 96t28.5 79t46 59t62 37t77 13q32 0 66 -10.5t64 -27.5v5q0 15 11 22t33 7t32.5 -6.5t10.5 -20.5v-392q0 -13 4 -21.5t11 -12.5t16 -4q10 0 16.5 2.5t13 7.5t15.5 12q7 6 16 3.5t18 -10.5q9 -10 10 -21t-4 -19
q-11 -16 -28 -27t-36.5 -17t-39.5 -6q-23 0 -40 5t-29 15.5t-18.5 25.5t-9.5 34q0 1 -1 4.5t-1 7.5q-23 -37 -49.5 -57t-54.5 -27.5t-54 -7.5zM151 239q0 -55 13 -94.5t39.5 -60.5t66.5 -21q29 0 55.5 10t49.5 33t41 60v242q-31 19 -60 25.5t-61 6.5q-26 0 -48 -8t-40 -24
t-30.5 -40t-19 -56t-6.5 -73zM172 686q-17 0 -22 12t-5 30q0 19 5 31t22 12h268q18 0 22.5 -12t4.5 -31q0 -18 -4.5 -30t-22.5 -12h-268z" />
    <glyph glyph-name="Abreve" unicode="&#x102;" horiz-adv-x="1003" 
d="M76 -14q-26 0 -35.5 12.5t-3.5 32.5l408 1201q8 23 20.5 31.5t35.5 8.5q24 0 36 -8.5t19 -31.5l409 -1201q7 -20 -3.5 -32.5t-36.5 -12.5q-22 0 -32 8.5t-17 28.5l-115 346h-521l-116 -346q-7 -20 -16.5 -28.5t-31.5 -8.5zM268 449h465l-232 690zM501 1319
q-83 0 -132 45.5t-56 139.5q-1 12 9 20.5t29 8.5q16 0 22 -7.5t9 -21.5q14 -49 41 -72.5t78 -23.5t78.5 23.5t39.5 72.5q4 14 9.5 21.5t21.5 7.5q19 0 29.5 -8.5t9.5 -20.5q-4 -60 -29 -101t-65.5 -62.5t-93.5 -21.5z" />
    <glyph glyph-name="abreve" unicode="&#x103;" horiz-adv-x="624" 
d="M258 -17q-57 0 -101 27.5t-69 83.5t-25 141q0 52 9.5 96t28.5 79t46 59t62 37t77 13q32 0 66 -10.5t64 -27.5v5q0 15 11 22t33 7t32.5 -6.5t10.5 -20.5v-392q0 -13 4 -21.5t11 -12.5t16 -4q10 0 16.5 2.5t13 7.5t15.5 12q7 6 16 3.5t18 -10.5q9 -10 10 -21t-4 -19
q-11 -16 -28 -27t-36.5 -17t-39.5 -6q-23 0 -40 5t-29 15.5t-18.5 25.5t-9.5 34q0 1 -1 4.5t-1 7.5q-23 -37 -49.5 -57t-54.5 -27.5t-54 -7.5zM151 239q0 -55 13 -94.5t39.5 -60.5t66.5 -21q29 0 55.5 10t49.5 33t41 60v242q-31 19 -60 25.5t-61 6.5q-26 0 -48 -8t-40 -24
t-30.5 -40t-19 -56t-6.5 -73zM306 618q-79 0 -125.5 50.5t-50.5 140.5q-1 12 7 20.5t27 8.5t26 -8t10 -21q9 -45 34.5 -74t71.5 -29q47 0 72 29t34 74q3 14 9.5 21.5t25.5 7.5t28 -8.5t7 -20.5q-2 -57 -25 -100t-62 -67t-89 -24z" />
    <glyph glyph-name="Aogonek" unicode="&#x104;" horiz-adv-x="1003" 
d="M76 -14q-26 0 -35.5 12.5t-3.5 32.5l408 1201q8 23 20.5 31.5t35.5 8.5q24 0 36 -8.5t19 -31.5l409 -1201q7 -20 -3.5 -32.5t-36.5 -12.5q-22 0 -32 8.5t-17 28.5l-115 346h-521l-116 -346q-7 -20 -16.5 -28.5t-31.5 -8.5zM268 449h465l-232 690zM862 -284
q-40 0 -71 23.5t-31 71.5q0 28 10 54t28 51.5t44 50.5t60 51l62 1v-9q-23 -19 -45.5 -40.5t-40.5 -43.5t-29 -44t-11 -42q0 -26 11.5 -37t27.5 -11q15 0 28.5 6.5t32.5 21.5q7 5 17 5.5t20 -9.5q10 -9 12.5 -22t-2.5 -21q-12 -17 -34 -30.5t-45.5 -20t-43.5 -6.5z" />
    <glyph glyph-name="aogonek" unicode="&#x105;" horiz-adv-x="624" 
d="M258 -17q-57 0 -101 27.5t-69 83.5t-25 141q0 52 9.5 96t28.5 79t46 59t62 37t77 13q32 0 66 -10.5t64 -27.5v5q0 15 11 22t33 7t32.5 -6.5t10.5 -20.5v-392q0 -13 4 -21.5t11 -12.5t16 -4q10 0 16.5 2.5t13 7.5t15.5 12q7 6 16 3.5t18 -10.5q9 -10 10 -21t-4 -19
q-11 -16 -28 -27t-36.5 -17t-39.5 -6q-23 0 -40 5t-29 15.5t-18.5 25.5t-9.5 34q0 1 -1 4.5t-1 7.5q-23 -37 -49.5 -57t-54.5 -27.5t-54 -7.5zM151 239q0 -55 13 -94.5t39.5 -60.5t66.5 -21q29 0 55.5 10t49.5 33t41 60v242q-31 19 -60 25.5t-61 6.5q-26 0 -48 -8t-40 -24
t-30.5 -40t-19 -56t-6.5 -73zM491 -257q-39 0 -67.5 22t-28.5 65q0 27 9 50t26.5 45t43 45t59.5 49l62 1v-9q-23 -19 -44.5 -38t-39 -38t-28 -38t-10.5 -38q0 -21 9.5 -30.5t25.5 -9.5q15 0 27 6t31 21q7 5 17 5.5t20 -8.5q10 -10 12.5 -23t-2.5 -21q-12 -17 -33.5 -30
t-45 -19.5t-43.5 -6.5z" />
    <glyph glyph-name="Cacute" unicode="&#x106;" horiz-adv-x="1035" 
d="M611 -19q-113 0 -204.5 46.5t-156.5 132t-99.5 204t-34.5 263.5q0 97 16 182t47 156.5t75.5 128t101 96.5t123.5 61t142 21q60 0 121 -16.5t116.5 -52.5t95.5 -93q9 -12 5 -21t-16 -20q-14 -12 -24 -14t-20 8q-39 40 -83.5 67.5t-93.5 42t-101 14.5q-59 0 -112.5 -17
t-99.5 -50t-83 -81.5t-63 -111t-40 -137.5t-14 -163q0 -130 29.5 -234t82.5 -177t127 -111.5t163 -38.5q48 0 91 14t82 39.5t74 58.5t68 70q9 9 20.5 7t24.5 -13q14 -11 17 -20t-5 -20q-55 -75 -115.5 -124t-124.5 -73t-132 -24zM555 1318q-13 0 -25 13t-12 23q0 4 1.5 8.5
t7.5 10.5l158 149q5 5 9.5 8t12.5 3q10 0 22 -9t21 -21t9 -24q0 -7 -2.5 -12t-12.5 -13l-169 -126q-7 -4 -11.5 -7t-8.5 -3z" />
    <glyph glyph-name="cacute" unicode="&#x107;" horiz-adv-x="511" 
d="M283 -19q-67 0 -119.5 30t-82.5 89t-30 145q0 60 17.5 110.5t49 87t74.5 56.5t95 20q44 0 90.5 -18.5t83.5 -62.5q11 -14 8.5 -25t-13.5 -23q-13 -13 -24.5 -16t-23.5 7q-27 23 -54 40.5t-71 17.5q-33 0 -60 -13t-45.5 -38t-28.5 -59.5t-10 -78.5q0 -58 17.5 -100.5
t49.5 -65.5t77 -23q32 0 54.5 9t41.5 25.5t40 39.5q11 11 23 10t26 -12t18 -21.5t-5 -23.5q-27 -39 -60.5 -62.5t-69 -34t-68.5 -10.5zM252 610q-11 0 -26 12t-15 22q0 3 1 6t5 10l107 164q5 8 10.5 11.5t13.5 3.5q10 0 23.5 -7.5t24 -18t10.5 -19.5q0 -7 -2.5 -11.5
t-9.5 -12.5l-123 -147q-12 -13 -19 -13z" />
    <glyph glyph-name="Ccircumflex" unicode="&#x108;" horiz-adv-x="1035" 
d="M611 -19q-113 0 -204.5 46.5t-156.5 132t-99.5 204t-34.5 263.5q0 97 16 182t47 156.5t75.5 128t101 96.5t123.5 61t142 21q60 0 121 -16.5t116.5 -52.5t95.5 -93q9 -12 5 -21t-16 -20q-14 -12 -24 -14t-20 8q-39 40 -83.5 67.5t-93.5 42t-101 14.5q-59 0 -112.5 -17
t-99.5 -50t-83 -81.5t-63 -111t-40 -137.5t-14 -163q0 -130 29.5 -234t82.5 -177t127 -111.5t163 -38.5q48 0 91 14t82 39.5t74 58.5t68 70q9 9 20.5 7t24.5 -13q14 -11 17 -20t-5 -20q-55 -75 -115.5 -124t-124.5 -73t-132 -24zM447 1318q-10 0 -22.5 12t-12.5 22v7t5 9
l149 145q7 7 16 13.5t28 6.5t27.5 -6.5t15.5 -13.5l151 -145q5 -5 5.5 -9t0.5 -7q0 -10 -13 -22t-23 -12q-6 0 -11 3.5t-13 9.5l-140 102l-138 -102q-8 -6 -13.5 -9.5t-11.5 -3.5z" />
    <glyph glyph-name="ccircumflex" unicode="&#x109;" horiz-adv-x="511" 
d="M283 -19q-67 0 -119.5 30t-82.5 89t-30 145q0 60 17.5 110.5t49 87t74.5 56.5t95 20q44 0 90.5 -18.5t83.5 -62.5q11 -14 8.5 -25t-13.5 -23q-13 -13 -24.5 -16t-23.5 7q-27 23 -54 40.5t-71 17.5q-33 0 -60 -13t-45.5 -38t-28.5 -59.5t-10 -78.5q0 -58 17.5 -100.5
t49.5 -65.5t77 -23q32 0 54.5 9t41.5 25.5t40 39.5q11 11 23 10t26 -12t18 -21.5t-5 -23.5q-27 -39 -60.5 -62.5t-69 -34t-68.5 -10.5zM141 610q-10 0 -22.5 12t-12.5 22q0 3 1 6t5 10l127 159q6 7 15.5 13.5t28.5 6.5t28 -6.5t15 -13.5l128 -159q5 -7 6 -10t1 -6
q0 -10 -13 -22t-22 -12q-7 0 -13 3.5t-12 9.5l-118 116l-117 -116q-7 -6 -13 -9.5t-12 -3.5z" />
    <glyph glyph-name="Cdotaccent" unicode="&#x10a;" horiz-adv-x="1035" 
d="M611 -19q-113 0 -204.5 46.5t-156.5 132t-99.5 204t-34.5 263.5q0 97 16 182t47 156.5t75.5 128t101 96.5t123.5 61t142 21q60 0 121 -16.5t116.5 -52.5t95.5 -93q9 -12 5 -21t-16 -20q-14 -12 -24 -14t-20 8q-39 40 -83.5 67.5t-93.5 42t-101 14.5q-59 0 -112.5 -17
t-99.5 -50t-83 -81.5t-63 -111t-40 -137.5t-14 -163q0 -130 29.5 -234t82.5 -177t127 -111.5t163 -38.5q48 0 91 14t82 39.5t74 58.5t68 70q9 9 20.5 7t24.5 -13q14 -11 17 -20t-5 -20q-55 -75 -115.5 -124t-124.5 -73t-132 -24zM610 1356q-28 0 -42 15.5t-14 46.5
q0 32 14 48t42 16q27 0 41 -16t14 -48q1 -31 -13.5 -46.5t-41.5 -15.5z" />
    <glyph glyph-name="cdotaccent" unicode="&#x10b;" horiz-adv-x="511" 
d="M283 -19q-67 0 -119.5 30t-82.5 89t-30 145q0 60 17.5 110.5t49 87t74.5 56.5t95 20q44 0 90.5 -18.5t83.5 -62.5q11 -14 8.5 -25t-13.5 -23q-13 -13 -24.5 -16t-23.5 7q-27 23 -54 40.5t-71 17.5q-33 0 -60 -13t-45.5 -38t-28.5 -59.5t-10 -78.5q0 -58 17.5 -100.5
t49.5 -65.5t77 -23q32 0 54.5 9t41.5 25.5t40 39.5q11 11 23 10t26 -12t18 -21.5t-5 -23.5q-27 -39 -60.5 -62.5t-69 -34t-68.5 -10.5zM283 669q-28 0 -42 15.5t-14 46.5q0 32 14 48t42 16q27 0 41 -16t14 -48q1 -31 -13.5 -46.5t-41.5 -15.5z" />
    <glyph glyph-name="Ccaron" unicode="&#x10c;" horiz-adv-x="1035" 
d="M611 -19q-113 0 -204.5 46.5t-156.5 132t-99.5 204t-34.5 263.5q0 97 16 182t47 156.5t75.5 128t101 96.5t123.5 61t142 21q60 0 121 -16.5t116.5 -52.5t95.5 -93q9 -12 5 -21t-16 -20q-14 -12 -24 -14t-20 8q-39 40 -83.5 67.5t-93.5 42t-101 14.5q-59 0 -112.5 -17
t-99.5 -50t-83 -81.5t-63 -111t-40 -137.5t-14 -163q0 -130 29.5 -234t82.5 -177t127 -111.5t163 -38.5q48 0 91 14t82 39.5t74 58.5t68 70q9 9 20.5 7t24.5 -13q14 -11 17 -20t-5 -20q-55 -75 -115.5 -124t-124.5 -73t-132 -24zM775 1533q9 0 22 -11.5t13 -22.5
q0 -2 -0.5 -6t-5.5 -10l-149 -145q-7 -6 -15.5 -13t-28.5 -7q-19 0 -27.5 7t-14.5 13l-152 145q-5 6 -5 10v6q0 11 12.5 22.5t22.5 11.5q6 0 11.5 -3.5t13.5 -8.5l139 -103l139 103q8 5 13 8.5t12 3.5z" />
    <glyph glyph-name="ccaron" unicode="&#x10d;" horiz-adv-x="511" 
d="M283 -19q-67 0 -119.5 30t-82.5 89t-30 145q0 60 17.5 110.5t49 87t74.5 56.5t95 20q44 0 90.5 -18.5t83.5 -62.5q11 -14 8.5 -25t-13.5 -23q-13 -13 -24.5 -16t-23.5 7q-27 23 -54 40.5t-71 17.5q-33 0 -60 -13t-45.5 -38t-28.5 -59.5t-10 -78.5q0 -58 17.5 -100.5
t49.5 -65.5t77 -23q32 0 54.5 9t41.5 25.5t40 39.5q11 11 23 10t26 -12t18 -21.5t-5 -23.5q-27 -39 -60.5 -62.5t-69 -34t-68.5 -10.5zM426 845q9 0 22 -11.5t13 -22.5q0 -2 -1 -5.5t-6 -10.5l-127 -159q-6 -6 -15 -13t-29 -7q-19 0 -28 7t-14 13l-129 159q-4 7 -5 10.5
t-1 5.5q0 11 12.5 22.5t22.5 11.5q6 0 12 -3.5t13 -8.5l117 -117l118 117q6 5 12 8.5t13 3.5z" />
    <glyph glyph-name="Dcaron" unicode="&#x10e;" horiz-adv-x="1161" 
d="M225 0q-44 0 -44 28v1194q0 14 11 21t33 7h243q140 0 247.5 -40.5t181 -115t111 -177t37.5 -228.5q0 -128 -27 -235.5t-80.5 -191.5t-132 -142.5t-182 -89t-230.5 -30.5h-168zM269 85h123q109 0 197 26t155 76t112.5 123t69 168t23.5 211q0 109 -32 196.5t-94 150
t-151 96t-204 33.5h-199v-1080zM709 1533q9 0 22 -11.5t13 -22.5q0 -2 -0.5 -6t-5.5 -10l-149 -145q-7 -6 -15.5 -13t-28.5 -7q-19 0 -27.5 7t-14.5 13l-152 145q-5 6 -5 10v6q0 11 12.5 22.5t22.5 11.5q6 0 11.5 -3.5t13.5 -8.5l139 -103l139 103q8 5 13 8.5t12 3.5z" />
    <glyph glyph-name="dcaron" unicode="&#x10f;" horiz-adv-x="629" 
d="M258 -17q-57 0 -101 27.5t-69 83.5t-25 141q0 52 10 96t28.5 79t46 59t63.5 37t79 13q30 0 64 -9t64 -26v762q0 13 11 19.5t32 6.5q22 0 32.5 -6.5t10.5 -19.5v-1150q0 -20 8.5 -29t22.5 -9q9 0 16.5 3t14.5 8t15 11t17.5 2t16.5 -12q8 -9 9.5 -19t-4.5 -18
q-11 -16 -28 -27t-36.5 -17t-39.5 -6q-38 0 -59 14t-29.5 34.5t-8.5 41.5v1.5v1.5q-24 -38 -51.5 -58t-55.5 -27.5t-54 -7.5zM151 239q0 -55 13 -94.5t39.5 -60.5t66.5 -21q29 0 55.5 10t50 33t42.5 60v238q-31 20 -61 28t-62 8q-26 0 -48 -8t-40 -24t-30.5 -40t-19 -56
t-6.5 -73zM591 1077q-17 6 -23 13t-2 20q7 22 12.5 56t9.5 69.5t5 60.5q0 11 9.5 18t33.5 7q25 0 36 -7t11 -18q-1 -27 -9 -65.5t-19.5 -77t-24.5 -66.5q-4 -7 -10.5 -12t-28.5 2z" />
    <glyph glyph-name="Dcroat" unicode="&#x110;" horiz-adv-x="1161" 
d="M225 0q-44 0 -44 28v1194q0 14 11 21t33 7h243q140 0 247.5 -40.5t181 -115t111 -177t37.5 -228.5q0 -128 -27 -235.5t-80.5 -191.5t-132 -142.5t-182 -89t-230.5 -30.5h-168zM269 85h123q109 0 197 26t155 76t112.5 123t69 168t23.5 211q0 109 -32 196.5t-94 150
t-151 96t-204 33.5h-199v-1080zM45 593q-18 0 -23 11t-5 24q0 14 5 26t23 12h457q17 0 22 -12t5 -26q0 -13 -5 -24t-22 -11h-457z" />
    <glyph glyph-name="dcroat" unicode="&#x111;" horiz-adv-x="629" 
d="M258 -17q-57 0 -101 27.5t-69 83.5t-25 141q0 52 10 96t28.5 79t46 59t63.5 37t79 13q30 0 64 -9t64 -26v762q0 13 11 19.5t32 6.5q22 0 32.5 -6.5t10.5 -19.5v-1150q0 -20 8.5 -29t22.5 -9q9 0 16.5 3t14.5 8t15 11t17.5 2t16.5 -12q8 -9 9.5 -19t-4.5 -18
q-11 -16 -28 -27t-36.5 -17t-39.5 -6q-38 0 -59 14t-29.5 34.5t-8.5 41.5v1.5v1.5q-24 -38 -51.5 -58t-55.5 -27.5t-54 -7.5zM151 239q0 -55 13 -94.5t39.5 -60.5t66.5 -21q29 0 55.5 10t50 33t42.5 60v238q-31 20 -61 28t-62 8q-26 0 -48 -8t-40 -24t-30.5 -40t-19 -56
t-6.5 -73zM292 814q-18 0 -23 11t-5 24q0 14 5 26t23 12h283q18 0 22.5 -12t4.5 -26q0 -13 -4.5 -24t-22.5 -11h-283z" />
    <glyph glyph-name="Emacron" unicode="&#x112;" horiz-adv-x="885" 
d="M225 0q-22 0 -33 10t-11 30v1182q0 14 11 21t33 7h576q15 0 21.5 -8.5t6.5 -31.5q0 -22 -6.5 -31t-21.5 -9h-532v-470h448q15 0 21.5 -8.5t6.5 -31.5q0 -22 -6.5 -31t-21.5 -9h-448v-540h532q15 0 21.5 -8.5t6.5 -31.5q0 -22 -6.5 -31t-21.5 -9h-576zM370 1381
q-17 0 -22 11.5t-5 29.5q0 19 5 31.5t22 12.5h293q18 0 22.5 -12.5t4.5 -31.5q0 -18 -4.5 -29.5t-22.5 -11.5h-293z" />
    <glyph glyph-name="emacron" unicode="&#x113;" horiz-adv-x="526" 
d="M293 -19q-79 0 -130 34t-75.5 90t-24.5 123t18.5 120.5t52.5 91.5t80.5 58.5t101.5 20.5q49 0 85.5 -14.5t57 -44t20.5 -74.5q0 -38 -16.5 -69t-46.5 -54.5t-71 -39t-92 -23.5t-108 -9v70q33 0 67.5 4.5t66.5 13.5t57 23.5t39.5 33.5t14.5 43q0 32 -21.5 46t-57.5 14
q-33 0 -61.5 -13t-51 -38.5t-35 -61.5t-12.5 -82q0 -55 17.5 -96t49.5 -64t77 -23q30 0 51 7.5t39.5 23t40.5 37.5q15 15 27.5 15t26.5 -11t17 -23.5t-7 -25.5q-25 -38 -59 -60.5t-69.5 -32.5t-68.5 -10zM170 686q-17 0 -22 12t-5 30q0 19 5 31t22 12h268q18 0 22.5 -12
t4.5 -31q0 -18 -4.5 -30t-22.5 -12h-268z" />
    <glyph glyph-name="Ebreve" unicode="&#x114;" horiz-adv-x="885" 
d="M225 0q-22 0 -33 10t-11 30v1182q0 14 11 21t33 7h576q15 0 21.5 -8.5t6.5 -31.5q0 -22 -6.5 -31t-21.5 -9h-532v-470h448q15 0 21.5 -8.5t6.5 -31.5q0 -22 -6.5 -31t-21.5 -9h-448v-540h532q15 0 21.5 -8.5t6.5 -31.5q0 -22 -6.5 -31t-21.5 -9h-576zM516 1319
q-83 0 -132 45.5t-56 139.5q-1 12 9 20.5t29 8.5q16 0 22 -7.5t9 -21.5q14 -49 41 -72.5t78 -23.5t78.5 23.5t39.5 72.5q4 14 9.5 21.5t21.5 7.5q19 0 29.5 -8.5t9.5 -20.5q-4 -60 -29 -101t-65.5 -62.5t-93.5 -21.5z" />
    <glyph glyph-name="ebreve" unicode="&#x115;" horiz-adv-x="526" 
d="M293 -19q-79 0 -130 34t-75.5 90t-24.5 123t18.5 120.5t52.5 91.5t80.5 58.5t101.5 20.5q49 0 85.5 -14.5t57 -44t20.5 -74.5q0 -38 -16.5 -69t-46.5 -54.5t-71 -39t-92 -23.5t-108 -9v70q33 0 67.5 4.5t66.5 13.5t57 23.5t39.5 33.5t14.5 43q0 32 -21.5 46t-57.5 14
q-33 0 -61.5 -13t-51 -38.5t-35 -61.5t-12.5 -82q0 -55 17.5 -96t49.5 -64t77 -23q30 0 51 7.5t39.5 23t40.5 37.5q15 15 27.5 15t26.5 -11t17 -23.5t-7 -25.5q-25 -38 -59 -60.5t-69.5 -32.5t-68.5 -10zM304 618q-79 0 -125.5 50.5t-50.5 140.5q-1 12 7 20.5t27 8.5t26 -8
t10 -21q9 -45 34.5 -74t71.5 -29q47 0 72 29t34 74q3 14 9.5 21.5t25.5 7.5t28 -8.5t7 -20.5q-2 -57 -25 -100t-62 -67t-89 -24z" />
    <glyph glyph-name="Edotaccent" unicode="&#x116;" horiz-adv-x="885" 
d="M225 0q-22 0 -33 10t-11 30v1182q0 14 11 21t33 7h576q15 0 21.5 -8.5t6.5 -31.5q0 -22 -6.5 -31t-21.5 -9h-532v-470h448q15 0 21.5 -8.5t6.5 -31.5q0 -22 -6.5 -31t-21.5 -9h-448v-540h532q15 0 21.5 -8.5t6.5 -31.5q0 -22 -6.5 -31t-21.5 -9h-576zM516 1356
q-28 0 -42 15.5t-14 46.5q0 32 14 48t42 16q27 0 41 -16t14 -48q1 -31 -13.5 -46.5t-41.5 -15.5z" />
    <glyph glyph-name="edotaccent" unicode="&#x117;" horiz-adv-x="526" 
d="M293 -19q-79 0 -130 34t-75.5 90t-24.5 123t18.5 120.5t52.5 91.5t80.5 58.5t101.5 20.5q49 0 85.5 -14.5t57 -44t20.5 -74.5q0 -38 -16.5 -69t-46.5 -54.5t-71 -39t-92 -23.5t-108 -9v70q33 0 67.5 4.5t66.5 13.5t57 23.5t39.5 33.5t14.5 43q0 32 -21.5 46t-57.5 14
q-33 0 -61.5 -13t-51 -38.5t-35 -61.5t-12.5 -82q0 -55 17.5 -96t49.5 -64t77 -23q30 0 51 7.5t39.5 23t40.5 37.5q15 15 27.5 15t26.5 -11t17 -23.5t-7 -25.5q-25 -38 -59 -60.5t-69.5 -32.5t-68.5 -10zM304 669q-28 0 -42 15.5t-14 46.5q0 32 14 48t42 16q27 0 41 -16
t14 -48q1 -31 -13.5 -46.5t-41.5 -15.5z" />
    <glyph glyph-name="Eogonek" unicode="&#x118;" horiz-adv-x="885" 
d="M225 0q-22 0 -33 10t-11 30v1182q0 14 11 21t33 7h576q15 0 21.5 -8.5t6.5 -31.5q0 -22 -6.5 -31t-21.5 -9h-532v-470h448q15 0 21.5 -8.5t6.5 -31.5q0 -22 -6.5 -31t-21.5 -9h-448v-540h532q15 0 21.5 -8.5t6.5 -31.5q0 -22 -6.5 -31t-21.5 -9h-576zM717 -281
q-40 0 -71 23.5t-31 71.5q0 28 10 54t28 51.5t44 50.5t60 51l62 1v-9q-23 -19 -45.5 -40.5t-40.5 -43.5t-29 -44t-11 -42q0 -26 11.5 -37t27.5 -11q15 0 28.5 6.5t32.5 21.5q7 5 17 5.5t20 -9.5q10 -9 12.5 -22t-2.5 -21q-12 -17 -34 -30.5t-45.5 -20t-43.5 -6.5z" />
    <glyph glyph-name="eogonek" unicode="&#x119;" horiz-adv-x="526" 
d="M293 -19q-79 0 -130 34t-75.5 90t-24.5 123t18.5 120.5t52.5 91.5t80.5 58.5t101.5 20.5q49 0 85.5 -14.5t57 -44t20.5 -74.5q0 -38 -16.5 -69t-46.5 -54.5t-71 -39t-92 -23.5t-108 -9v70q33 0 67.5 4.5t66.5 13.5t57 23.5t39.5 33.5t14.5 43q0 32 -21.5 46t-57.5 14
q-33 0 -61.5 -13t-51 -38.5t-35 -61.5t-12.5 -82q0 -55 17.5 -96t49.5 -64t77 -23q30 0 51 7.5t39.5 23t40.5 37.5q15 15 27.5 15t26.5 -11t17 -23.5t-7 -25.5q-25 -38 -59 -60.5t-69.5 -32.5t-68.5 -10zM324 -244q-39 0 -67.5 22t-28.5 65q0 27 9 50t26.5 45t43 45t59.5 49
l62 1v-9q-23 -19 -44.5 -38t-39 -38t-28 -38t-10.5 -38q0 -21 9.5 -30.5t25.5 -9.5q15 0 27 6t31 21q7 5 17 5.5t20 -8.5q10 -10 12.5 -23t-2.5 -21q-12 -17 -33.5 -30t-45 -19.5t-43.5 -6.5z" />
    <glyph glyph-name="Ecaron" unicode="&#x11a;" horiz-adv-x="885" 
d="M225 0q-22 0 -33 10t-11 30v1182q0 14 11 21t33 7h576q15 0 21.5 -8.5t6.5 -31.5q0 -22 -6.5 -31t-21.5 -9h-532v-470h448q15 0 21.5 -8.5t6.5 -31.5q0 -22 -6.5 -31t-21.5 -9h-448v-540h532q15 0 21.5 -8.5t6.5 -31.5q0 -22 -6.5 -31t-21.5 -9h-576zM681 1533
q9 0 22 -11.5t13 -22.5q0 -2 -0.5 -6t-5.5 -10l-149 -145q-7 -6 -15.5 -13t-28.5 -7q-19 0 -27.5 7t-14.5 13l-152 145q-5 6 -5 10v6q0 11 12.5 22.5t22.5 11.5q6 0 11.5 -3.5t13.5 -8.5l139 -103l139 103q8 5 13 8.5t12 3.5z" />
    <glyph glyph-name="ecaron" unicode="&#x11b;" horiz-adv-x="526" 
d="M293 -19q-79 0 -130 34t-75.5 90t-24.5 123t18.5 120.5t52.5 91.5t80.5 58.5t101.5 20.5q49 0 85.5 -14.5t57 -44t20.5 -74.5q0 -38 -16.5 -69t-46.5 -54.5t-71 -39t-92 -23.5t-108 -9v70q33 0 67.5 4.5t66.5 13.5t57 23.5t39.5 33.5t14.5 43q0 32 -21.5 46t-57.5 14
q-33 0 -61.5 -13t-51 -38.5t-35 -61.5t-12.5 -82q0 -55 17.5 -96t49.5 -64t77 -23q30 0 51 7.5t39.5 23t40.5 37.5q15 15 27.5 15t26.5 -11t17 -23.5t-7 -25.5q-25 -38 -59 -60.5t-69.5 -32.5t-68.5 -10zM447 845q9 0 22 -11.5t13 -22.5q0 -2 -1 -5.5t-6 -10.5l-127 -159
q-6 -6 -15 -13t-29 -7q-19 0 -28 7t-14 13l-129 159q-4 7 -5 10.5t-1 5.5q0 11 12.5 22.5t22.5 11.5q6 0 12 -3.5t13 -8.5l117 -117l118 117q6 5 12 8.5t13 3.5z" />
    <glyph glyph-name="Gcircumflex" unicode="&#x11c;" horiz-adv-x="1169" 
d="M596 -19q-108 0 -196.5 46.5t-151.5 132t-97.5 204t-34.5 263.5q0 97 16 182t47 156.5t75.5 128t101 96.5t123.5 61t142 21q62 0 120.5 -15t110.5 -50.5t95 -96.5q9 -12 5 -21t-16 -20q-14 -12 -24 -14t-20 8q-38 41 -79 68.5t-87.5 41.5t-104.5 14q-59 0 -112.5 -17
t-99.5 -50t-83 -81.5t-63 -111t-40 -137.5t-14 -163q0 -130 29 -234t81.5 -177t123 -111.5t153.5 -38.5q61 0 114.5 18.5t97 57.5t75 100t48 145.5t17.5 194.5h-319q-15 0 -21.5 9t-6.5 31q0 23 6.5 31.5t21.5 8.5h383q15 0 21.5 -8.5t6.5 -31.5q0 -171 -33.5 -293
t-93.5 -199t-141 -113t-176 -36zM439 1318q-10 0 -22.5 12t-12.5 22v7t5 9l149 145q7 7 16 13.5t28 6.5t27.5 -6.5t15.5 -13.5l151 -145q5 -5 5.5 -9t0.5 -7q0 -10 -13 -22t-23 -12q-6 0 -11 3.5t-13 9.5l-140 102l-138 -102q-8 -6 -13.5 -9.5t-11.5 -3.5z" />
    <glyph glyph-name="gcircumflex" unicode="&#x11d;" horiz-adv-x="598" 
d="M285 -776q-67 0 -115 26t-74 62q-9 14 -7.5 28t21.5 29q19 14 29.5 12t23.5 -15q31 -33 60 -48.5t66 -15.5q40 0 69 16.5t44.5 53.5t15.5 99v604q-23 -37 -50.5 -57t-55 -27.5t-54.5 -7.5q-57 0 -101 27.5t-69 83.5t-25 141q0 52 9.5 96t28.5 79t46 59t62 37t77 13
q32 0 66.5 -9t65.5 -26v5q0 13 10 19.5t32 6.5t33 -6.5t11 -19.5v-1021q0 -82 -27 -136.5t-76 -81t-116 -26.5zM270 63q29 0 55.5 10.5t50 33.5t42.5 60v236q-31 20 -61 28.5t-62 8.5q-26 0 -48 -8t-40 -24t-30.5 -40t-19 -56t-6.5 -73q0 -55 13 -94.5t39.5 -60.5t66.5 -21z
M153 610q-10 0 -22.5 12t-12.5 22q0 3 1 6t5 10l127 159q6 7 15.5 13.5t28.5 6.5t28 -6.5t15 -13.5l128 -159q5 -7 6 -10t1 -6q0 -10 -13 -22t-22 -12q-7 0 -13 3.5t-12 9.5l-118 116l-117 -116q-7 -6 -13 -9.5t-12 -3.5z" />
    <glyph glyph-name="Gbreve" unicode="&#x11e;" horiz-adv-x="1169" 
d="M596 -19q-108 0 -196.5 46.5t-151.5 132t-97.5 204t-34.5 263.5q0 97 16 182t47 156.5t75.5 128t101 96.5t123.5 61t142 21q62 0 120.5 -15t110.5 -50.5t95 -96.5q9 -12 5 -21t-16 -20q-14 -12 -24 -14t-20 8q-38 41 -79 68.5t-87.5 41.5t-104.5 14q-59 0 -112.5 -17
t-99.5 -50t-83 -81.5t-63 -111t-40 -137.5t-14 -163q0 -130 29 -234t81.5 -177t123 -111.5t153.5 -38.5q61 0 114.5 18.5t97 57.5t75 100t48 145.5t17.5 194.5h-319q-15 0 -21.5 9t-6.5 31q0 23 6.5 31.5t21.5 8.5h383q15 0 21.5 -8.5t6.5 -31.5q0 -171 -33.5 -293
t-93.5 -199t-141 -113t-176 -36zM602 1319q-83 0 -132 45.5t-56 139.5q-1 12 9 20.5t29 8.5q16 0 22 -7.5t9 -21.5q14 -49 41 -72.5t78 -23.5t78.5 23.5t39.5 72.5q4 14 9.5 21.5t21.5 7.5q19 0 29.5 -8.5t9.5 -20.5q-4 -60 -29 -101t-65.5 -62.5t-93.5 -21.5z" />
    <glyph glyph-name="gbreve" unicode="&#x11f;" horiz-adv-x="598" 
d="M285 -776q-67 0 -115 26t-74 62q-9 14 -7.5 28t21.5 29q19 14 29.5 12t23.5 -15q31 -33 60 -48.5t66 -15.5q40 0 69 16.5t44.5 53.5t15.5 99v604q-23 -37 -50.5 -57t-55 -27.5t-54.5 -7.5q-57 0 -101 27.5t-69 83.5t-25 141q0 52 9.5 96t28.5 79t46 59t62 37t77 13
q32 0 66.5 -9t65.5 -26v5q0 13 10 19.5t32 6.5t33 -6.5t11 -19.5v-1021q0 -82 -27 -136.5t-76 -81t-116 -26.5zM270 63q29 0 55.5 10.5t50 33.5t42.5 60v236q-31 20 -61 28.5t-62 8.5q-26 0 -48 -8t-40 -24t-30.5 -40t-19 -56t-6.5 -73q0 -55 13 -94.5t39.5 -60.5t66.5 -21z
M295 618q-79 0 -125.5 50.5t-50.5 140.5q-1 12 7 20.5t27 8.5t26 -8t10 -21q9 -45 34.5 -74t71.5 -29q47 0 72 29t34 74q3 14 9.5 21.5t25.5 7.5t28 -8.5t7 -20.5q-2 -57 -25 -100t-62 -67t-89 -24z" />
    <glyph glyph-name="Gdotaccent" unicode="&#x120;" horiz-adv-x="1169" 
d="M596 -19q-108 0 -196.5 46.5t-151.5 132t-97.5 204t-34.5 263.5q0 97 16 182t47 156.5t75.5 128t101 96.5t123.5 61t142 21q62 0 120.5 -15t110.5 -50.5t95 -96.5q9 -12 5 -21t-16 -20q-14 -12 -24 -14t-20 8q-38 41 -79 68.5t-87.5 41.5t-104.5 14q-59 0 -112.5 -17
t-99.5 -50t-83 -81.5t-63 -111t-40 -137.5t-14 -163q0 -130 29 -234t81.5 -177t123 -111.5t153.5 -38.5q61 0 114.5 18.5t97 57.5t75 100t48 145.5t17.5 194.5h-319q-15 0 -21.5 9t-6.5 31q0 23 6.5 31.5t21.5 8.5h383q15 0 21.5 -8.5t6.5 -31.5q0 -171 -33.5 -293
t-93.5 -199t-141 -113t-176 -36zM602 1356q-28 0 -42 15.5t-14 46.5q0 32 14 48t42 16q27 0 41 -16t14 -48q1 -31 -13.5 -46.5t-41.5 -15.5z" />
    <glyph glyph-name="gdotaccent" unicode="&#x121;" horiz-adv-x="598" 
d="M285 -776q-67 0 -115 26t-74 62q-9 14 -7.5 28t21.5 29q19 14 29.5 12t23.5 -15q31 -33 60 -48.5t66 -15.5q40 0 69 16.5t44.5 53.5t15.5 99v604q-23 -37 -50.5 -57t-55 -27.5t-54.5 -7.5q-57 0 -101 27.5t-69 83.5t-25 141q0 52 9.5 96t28.5 79t46 59t62 37t77 13
q32 0 66.5 -9t65.5 -26v5q0 13 10 19.5t32 6.5t33 -6.5t11 -19.5v-1021q0 -82 -27 -136.5t-76 -81t-116 -26.5zM270 63q29 0 55.5 10.5t50 33.5t42.5 60v236q-31 20 -61 28.5t-62 8.5q-26 0 -48 -8t-40 -24t-30.5 -40t-19 -56t-6.5 -73q0 -55 13 -94.5t39.5 -60.5t66.5 -21z
M295 669q-28 0 -42 15.5t-14 46.5q0 32 14 48t42 16q27 0 41 -16t14 -48q1 -31 -13.5 -46.5t-41.5 -15.5z" />
    <glyph glyph-name="Gcommaaccent" unicode="&#x122;" horiz-adv-x="1169" 
d="M596 -19q-108 0 -196.5 46.5t-151.5 132t-97.5 204t-34.5 263.5q0 97 16 182t47 156.5t75.5 128t101 96.5t123.5 61t142 21q62 0 120.5 -15t110.5 -50.5t95 -96.5q9 -12 5 -21t-16 -20q-14 -12 -24 -14t-20 8q-38 41 -79 68.5t-87.5 41.5t-104.5 14q-59 0 -112.5 -17
t-99.5 -50t-83 -81.5t-63 -111t-40 -137.5t-14 -163q0 -130 29 -234t81.5 -177t123 -111.5t153.5 -38.5q61 0 114.5 18.5t97 57.5t75 100t48 145.5t17.5 194.5h-319q-15 0 -21.5 9t-6.5 31q0 23 6.5 31.5t21.5 8.5h383q15 0 21.5 -8.5t6.5 -31.5q0 -171 -33.5 -293
t-93.5 -199t-141 -113t-176 -36zM527 -306q-12 5 -15 13.5t2 23.5q12 30 18.5 56t8.5 52t2 56q0 17 9.5 24t28.5 7q23 0 35.5 -11t12.5 -30q0 -25 -7.5 -56.5t-20 -62.5t-28.5 -55q-10 -16 -20 -19t-26 2z" />
    <glyph glyph-name="gcommaaccent" unicode="&#x123;" horiz-adv-x="598" 
d="M285 -776q-67 0 -115 26t-74 62q-9 14 -7.5 28t21.5 29q19 14 29.5 12t23.5 -15q31 -33 60 -48.5t66 -15.5q40 0 69 16.5t44.5 53.5t15.5 99v604q-23 -37 -50.5 -57t-55 -27.5t-54.5 -7.5q-57 0 -101 27.5t-69 83.5t-25 141q0 52 9.5 96t28.5 79t46 59t62 37t77 13
q32 0 66.5 -9t65.5 -26v5q0 13 10 19.5t32 6.5t33 -6.5t11 -19.5v-1021q0 -82 -27 -136.5t-76 -81t-116 -26.5zM270 63q29 0 55.5 10.5t50 33.5t42.5 60v236q-31 20 -61 28.5t-62 8.5q-26 0 -48 -8t-40 -24t-30.5 -40t-19 -56t-6.5 -73q0 -55 13 -94.5t39.5 -60.5t66.5 -21z
M346 845q13 -4 15.5 -12.5t-2.5 -23.5q-12 -30 -17.5 -54t-7 -48t-1.5 -54q0 -17 -10 -24.5t-29 -7.5q-22 0 -35 11.5t-13 30.5q0 38 15.5 83.5t38.5 82.5q11 16 20.5 19t25.5 -3z" />
    <glyph glyph-name="Hcircumflex" unicode="&#x124;" horiz-adv-x="1186" 
d="M225 -14q-44 0 -44 28v1231q0 14 11 20.5t33 6.5q44 0 44 -27v-550h648v550q0 14 11 20.5t33 6.5q44 0 44 -27v-1231q0 -14 -11 -21t-33 -7q-44 0 -44 28v601h-648v-601q0 -14 -11 -21t-33 -7zM430 1318q-10 0 -22.5 12t-12.5 22v7t5 9l149 145q7 7 16 13.5t28 6.5
t27.5 -6.5t15.5 -13.5l151 -145q5 -5 5.5 -9t0.5 -7q0 -10 -13 -22t-23 -12q-6 0 -11 3.5t-13 9.5l-140 102l-138 -102q-8 -6 -13.5 -9.5t-11.5 -3.5z" />
    <glyph glyph-name="hcircumflex" unicode="&#x125;" horiz-adv-x="651" 
d="M544 -17q-26 0 -45 7t-31 20t-17.5 32.5t-5.5 43.5v240q0 53 -23.5 83t-78.5 30q-21 0 -43 -6t-43 -19t-39 -34t-32 -52v-317q0 -13 -11 -19.5t-32 -6.5q-22 0 -32.5 6.5t-10.5 19.5v1235q0 13 10.5 19.5t32.5 6.5q21 0 32 -6.5t11 -19.5v-821q15 22 33 39t39.5 29.5
t46 19t50.5 6.5q52 0 91.5 -19t62 -59.5t22.5 -106.5v-238q0 -13 4 -21.5t11.5 -12.5t16.5 -4q11 0 18 3t13.5 8.5t12.5 10.5q9 6 18.5 3t16.5 -13q9 -10 10 -19.5t-6 -19.5q-11 -15 -27.5 -26t-35.5 -16.5t-39 -5.5zM-19 1318q-10 0 -22.5 12t-12.5 22v7t5 9l149 145
q7 7 16 13.5t28 6.5t27.5 -6.5t15.5 -13.5l151 -145q5 -5 5.5 -9t0.5 -7q0 -10 -13 -22t-23 -12q-6 0 -11 3.5t-13 9.5l-140 102l-138 -102q-8 -6 -13.5 -9.5t-11.5 -3.5z" />
    <glyph glyph-name="Hbar" unicode="&#x126;" horiz-adv-x="1186" 
d="M225 -14q-44 0 -44 28v1231q0 14 11 20.5t33 6.5q44 0 44 -27v-550h648v550q0 14 11 20.5t33 6.5q44 0 44 -27v-1231q0 -14 -11 -21t-33 -7q-44 0 -44 28v601h-648v-601q0 -14 -11 -21t-33 -7zM86 927q-18 0 -22.5 10t-4.5 27q0 19 4.5 29.5t22.5 10.5h1014
q18 0 23 -10.5t5 -29.5q0 -17 -5 -27t-23 -10h-1014z" />
    <glyph glyph-name="hbar" unicode="&#x127;" horiz-adv-x="651" 
d="M544 -17q-26 0 -45 7t-31 20t-17.5 32.5t-5.5 43.5v240q0 53 -23.5 83t-78.5 30q-21 0 -43 -6t-43 -19t-39 -34t-32 -52v-317q0 -13 -11 -19.5t-32 -6.5q-22 0 -32.5 6.5t-10.5 19.5v1235q0 13 10.5 19.5t32.5 6.5q21 0 32 -6.5t11 -19.5v-821q15 22 33 39t39.5 29.5
t46 19t50.5 6.5q52 0 91.5 -19t62 -59.5t22.5 -106.5v-238q0 -13 4 -21.5t11.5 -12.5t16.5 -4q11 0 18 3t13.5 8.5t12.5 10.5q9 6 18.5 3t16.5 -13q9 -10 10 -19.5t-6 -19.5q-11 -15 -27.5 -26t-35.5 -16.5t-39 -5.5zM32 814q-18 0 -23 11t-5 24q0 14 5 26t23 12h283
q18 0 22.5 -12t4.5 -26q0 -13 -4.5 -24t-22.5 -11h-283z" />
    <glyph glyph-name="Itilde" unicode="&#x128;" horiz-adv-x="451" 
d="M226 -14q-22 0 -33 7t-11 21v1231q0 14 11 20.5t33 6.5q21 0 32 -6.5t11 -20.5v-1231q0 -14 -11 -21t-32 -7zM68 1350q-34 0 -34 27q1 62 26.5 94.5t75.5 32.5q31 0 55.5 -11.5t44.5 -26t37.5 -26t34.5 -11.5q16 0 24 16t9 39q3 21 34 21q19 0 27.5 -7t8.5 -20
q-1 -63 -26.5 -94.5t-76.5 -31.5q-30 0 -55 11.5t-45.5 26.5t-38 26.5t-33.5 11.5t-23 -13t-9 -39q-1 -12 -10 -19t-26 -7z" />
    <glyph glyph-name="itilde" unicode="&#x129;" horiz-adv-x="304" 
d="M193 -17q-26 0 -45 7t-31 20t-17.5 32.5t-5.5 43.5v403q0 13 10.5 19.5t31.5 6.5q22 0 33 -6.5t11 -19.5v-393q0 -13 4 -21.5t11 -12.5t16 -4q11 0 19 4t15 10t15 12q7 5 15.5 -0.5t17.5 -15.5q5 -7 7 -16t-4 -17q-11 -15 -28 -27t-36.5 -18.5t-38.5 -6.5zM188 648
q-28 0 -46.5 10.5t-31.5 24.5t-24 24.5t-23 10.5q-7 0 -14.5 -13t-9.5 -39q-1 -13 -10 -19.5t-26 -6.5q-34 0 -34 26q1 73 29.5 101t69.5 28q28 0 46 -10.5t30 -24t23.5 -24t26.5 -10.5q8 0 15.5 14.5t9.5 40.5q2 22 34 22q20 0 28 -7t8 -21q-1 -61 -24.5 -94t-76.5 -33z
" />
    <glyph glyph-name="Imacron" unicode="&#x12a;" horiz-adv-x="451" 
d="M226 -14q-22 0 -33 7t-11 21v1231q0 14 11 20.5t33 6.5q21 0 32 -6.5t11 -20.5v-1231q0 -14 -11 -21t-32 -7zM79 1381q-17 0 -22 11.5t-5 29.5q0 19 5 31.5t22 12.5h293q18 0 22.5 -12.5t4.5 -31.5q0 -18 -4.5 -29.5t-22.5 -11.5h-293z" />
    <glyph glyph-name="imacron" unicode="&#x12b;" horiz-adv-x="304" 
d="M193 -17q-26 0 -45 7t-31 20t-17.5 32.5t-5.5 43.5v403q0 13 10.5 19.5t31.5 6.5q22 0 33 -6.5t11 -19.5v-393q0 -13 4 -21.5t11 -12.5t16 -4q11 0 19 4t15 10t15 12q7 5 15.5 -0.5t17.5 -15.5q5 -7 7 -16t-4 -17q-11 -15 -28 -27t-36.5 -18.5t-38.5 -6.5zM-4 686
q-17 0 -22 12t-5 30q0 19 5 31t22 12h268q18 0 22.5 -12t4.5 -31q0 -18 -4.5 -30t-22.5 -12h-268z" />
    <glyph glyph-name="Ibreve" unicode="&#x12c;" horiz-adv-x="451" 
d="M226 -14q-22 0 -33 7t-11 21v1231q0 14 11 20.5t33 6.5q21 0 32 -6.5t11 -20.5v-1231q0 -14 -11 -21t-32 -7zM225 1319q-83 0 -132 45.5t-56 139.5q-1 12 9 20.5t29 8.5q16 0 22 -7.5t9 -21.5q14 -49 41 -72.5t78 -23.5t78.5 23.5t39.5 72.5q4 14 9.5 21.5t21.5 7.5
q19 0 29.5 -8.5t9.5 -20.5q-4 -60 -29 -101t-65.5 -62.5t-93.5 -21.5z" />
    <glyph glyph-name="ibreve" unicode="&#x12d;" horiz-adv-x="304" 
d="M193 -17q-26 0 -45 7t-31 20t-17.5 32.5t-5.5 43.5v403q0 13 10.5 19.5t31.5 6.5q22 0 33 -6.5t11 -19.5v-393q0 -13 4 -21.5t11 -12.5t16 -4q11 0 19 4t15 10t15 12q7 5 15.5 -0.5t17.5 -15.5q5 -7 7 -16t-4 -17q-11 -15 -28 -27t-36.5 -18.5t-38.5 -6.5zM130 618
q-79 0 -125.5 50.5t-50.5 140.5q-1 12 7 20.5t27 8.5t26 -8t10 -21q9 -45 34.5 -74t71.5 -29q47 0 72 29t34 74q3 14 9.5 21.5t25.5 7.5t28 -8.5t7 -20.5q-2 -57 -25 -100t-62 -67t-89 -24z" />
    <glyph glyph-name="Iogonek" unicode="&#x12e;" horiz-adv-x="451" 
d="M226 -14q-22 0 -33 7t-11 21v1231q0 14 11 20.5t33 6.5q21 0 32 -6.5t11 -20.5v-1231q0 -14 -11 -21t-32 -7zM163 -285q-40 0 -71 23.5t-31 71.5q0 28 10 54t28 51.5t44 50.5t60 51l62 1v-9q-23 -19 -45.5 -40.5t-40.5 -43.5t-29 -44t-11 -42q0 -26 11.5 -37t27.5 -11
q15 0 28.5 6.5t32.5 21.5q7 5 17 5.5t20 -9.5q10 -9 12.5 -22t-2.5 -21q-12 -17 -34 -30.5t-45.5 -20t-43.5 -6.5z" />
    <glyph glyph-name="iogonek" unicode="&#x12f;" horiz-adv-x="304" 
d="M193 -17q-26 0 -45 7t-31 20t-17.5 32.5t-5.5 43.5v403q0 13 10.5 19.5t31.5 6.5q22 0 33 -6.5t11 -19.5v-393q0 -13 4 -21.5t11 -12.5t16 -4q11 0 19 4t15 10t15 12q7 5 15.5 -0.5t17.5 -15.5q5 -7 7 -16t-4 -17q-11 -15 -28 -27t-36.5 -18.5t-38.5 -6.5zM130 669
q-28 0 -42 15.5t-14 46.5q0 32 14 48t42 16q27 0 41 -16t14 -48q1 -31 -13.5 -46.5t-41.5 -15.5zM158 -257q-39 0 -67.5 22t-28.5 65q0 27 9 50t26.5 45t43 45t59.5 49l62 1v-9q-23 -19 -44.5 -38t-39 -38t-28 -38t-10.5 -38q0 -21 9.5 -30.5t25.5 -9.5q15 0 27 6t31 21
q7 5 17 5.5t20 -8.5q10 -10 12.5 -23t-2.5 -21q-12 -17 -33.5 -30t-45 -19.5t-43.5 -6.5z" />
    <glyph glyph-name="Idotaccent" unicode="&#x130;" horiz-adv-x="451" 
d="M226 -14q-22 0 -33 7t-11 21v1231q0 14 11 20.5t33 6.5q21 0 32 -6.5t11 -20.5v-1231q0 -14 -11 -21t-32 -7zM225 1356q-28 0 -42 15.5t-14 46.5q0 32 14 48t42 16q27 0 41 -16t14 -48q1 -31 -13.5 -46.5t-41.5 -15.5z" />
    <glyph glyph-name="idotless.mod" unicode="&#x131;" horiz-adv-x="300" 
d="M193 -17q-52 0 -75.5 27t-23.5 76v403q0 13 10.5 19.5t31.5 6.5q22 0 33 -6.5t11 -19.5v-393q0 -20 9 -29t22 -9q11 0 18.5 3.5t14 8.5t14.5 11q6 5 16.5 1t16.5 -12q8 -9 9 -19t-5 -18q-11 -16 -27.5 -27t-36 -17t-38.5 -6z" />
    <glyph glyph-name="IJ.cur" unicode="&#x132;" horiz-adv-x="1040" 
d="M627 -777q-56 0 -96.5 23.5t-62 66.5t-21.5 101q0 74 27.5 145t75 138.5t108 131.5t127.5 122q43 37 89.5 73.5t92 70t86.5 62.5q19 13 30 9.5t22 -20.5q10 -16 8 -28.5t-15 -22.5q-45 -32 -93 -67t-95 -72.5t-89 -75.5q-57 -51 -107.5 -106t-90 -113.5t-62 -119
t-22.5 -123.5q0 -53 25 -82.5t70 -29.5q44 0 74.5 28.5t46.5 82t16 128.5v703q-22 -43 -52.5 -75.5t-67.5 -54.5t-81 -33t-92 -11q-72 0 -128 22t-95.5 66t-60 110.5t-20.5 154.5v817q0 14 11 20.5t33 6.5t33 -6.5t11 -20.5v-807q0 -94 25.5 -156t75.5 -92t122 -30
q51 0 95.5 14.5t81 43t64.5 69t45 92.5v866q0 14 11 20.5t33 6.5t33 -6.5t11 -20.5v-1695q0 -77 -16 -137t-46 -102.5t-73 -64.5t-97 -22z" />
    <glyph glyph-name="ij.jmc" unicode="&#x133;" horiz-adv-x="616" 
d="M225 -17q-34 0 -59 9.5t-41 29t-23.5 49t-7.5 69.5v349q0 13 10.5 19.5t31.5 6.5q22 0 33 -6.5t11 -19.5v-349q0 -45 13.5 -63.5t50.5 -18.5q14 0 21 -11.5t5.5 -26t-12.5 -26t-33 -11.5zM138 669q-28 0 -42.5 15.5t-14.5 46.5q0 32 14.5 48t42.5 16q27 0 41 -16t14 -48
q1 -31 -13.5 -46.5t-41.5 -15.5zM225 -17q-14 0 -20.5 11.5t-5 26t12.5 26t32 11.5q33 0 61 11t51 31t40.5 47t29.5 58q6 15 17.5 13.5t20 -11.5t5.5 -21q-15 -48 -38.5 -85.5t-54 -64t-68.5 -40t-83 -13.5zM459 -55q16 15 32 28.5t31.5 25.5t29.5 22t25 17q14 9 26 4
t18.5 -18t4.5 -26.5t-16 -22.5q-13 -8 -29 -20.5t-34 -27.5t-36.5 -31t-35.5 -30zM324 -776q-46 0 -79.5 21t-52 61t-18.5 97q0 53 12.5 112t37.5 120.5t63 121.5t89 114q9 11 18.5 21t19.5 19v578q0 13 10.5 19.5t31.5 6.5q22 0 33 -6.5t11 -19.5v-1033q0 -55 -11.5 -98
t-34 -73t-55.5 -45.5t-75 -15.5zM330 -700q21 0 36.5 10.5t26 30t16 47.5t5.5 64v355q-6 -7 -11.5 -14t-11.5 -14q-31 -39 -55.5 -85t-40.5 -95t-24.5 -98.5t-8.5 -95.5q0 -32 8 -55.5t23.5 -36.5t36.5 -13zM456 669q-28 0 -42 15.5t-14 46.5q0 32 14 48t42 16t41.5 -16
t13.5 -48q0 -31 -13.5 -46.5t-41.5 -15.5z" />
    <glyph glyph-name="Jcircumflex" unicode="&#x134;" horiz-adv-x="868" 
d="M386 -19q-81 0 -144.5 28t-107.5 84.5t-69 139.5q-5 17 2.5 27t24.5 14q17 7 28 2.5t17 -21.5q27 -67 60 -108.5t78.5 -61t110.5 -19.5q45 0 82 12.5t66 37.5t49 62.5t30.5 88t10.5 114.5v864q0 14 11 20.5t33 6.5t33 -6.5t11 -20.5v-863q0 -79 -15 -142.5t-43.5 -112
t-68.5 -81t-90 -49t-109 -16.5zM505 1318q-10 0 -22.5 12t-12.5 22v7t5 9l149 145q7 7 16 13.5t28 6.5t27.5 -6.5t15.5 -13.5l151 -145q5 -5 5.5 -9t0.5 -7q0 -10 -13 -22t-23 -12q-6 0 -11 3.5t-13 9.5l-140 102l-138 -102q-8 -6 -13.5 -9.5t-11.5 -3.5z" />
    <glyph glyph-name="jcircumflex" unicode="&#x135;" horiz-adv-x="268" 
d="M49 -776q-46 0 -75.5 21.5t-44.5 52.5q-7 15 0.5 26t20.5 18q19 9 31 6.5t20 -16.5q11 -19 20.5 -26t27.5 -7q24 0 32 19.5t8 48.5v1122q0 13 10.5 19.5t31.5 6.5q22 0 33 -6.5t11 -19.5v-1118q0 -56 -17.5 -88t-46 -45.5t-62.5 -13.5zM-12 610q-10 0 -22.5 12t-12.5 22
q0 3 1 6t5 10l127 159q6 7 15.5 13.5t28.5 6.5t28 -6.5t15 -13.5l128 -159q5 -7 6 -10t1 -6q0 -10 -13 -22t-22 -12q-7 0 -13 3.5t-12 9.5l-118 116l-117 -116q-7 -6 -13 -9.5t-12 -3.5z" />
    <glyph glyph-name="Kcommaaccent" unicode="&#x136;" horiz-adv-x="918" 
d="M225 -14q-22 0 -33 7.5t-11 23.5v1228q0 27 44 27t44 -27v-540l549 558q12 13 23.5 9.5t24.5 -17.5q14 -16 14.5 -26.5t-8.5 -20.5l-538 -549q98 -130 188 -240t177.5 -200.5t177.5 -164.5q11 -9 13.5 -24t-16.5 -34q-13 -13 -27 -13t-29 12q-73 59 -146.5 133.5
t-144.5 157t-136 167t-122 164.5v-600q0 -16 -10.5 -23.5t-33.5 -7.5zM451 -306q-12 5 -15 13.5t2 23.5q12 30 18.5 56t8.5 52t2 56q0 17 9.5 24t28.5 7q23 0 35.5 -11t12.5 -30q0 -25 -7.5 -56.5t-20 -62.5t-28.5 -55q-10 -16 -20 -19t-26 2z" />
    <glyph glyph-name="kcommaaccent" unicode="&#x137;" horiz-adv-x="564" 
d="M143 -15q-22 0 -32.5 6.5t-10.5 19.5v1235q0 13 10.5 19.5t32.5 6.5q21 0 32 -6.5t11 -19.5v-918l235 175q15 11 28.5 12.5t28.5 -16.5q10 -11 12 -24.5t-16 -26.5l-220 -167q58 -78 92.5 -122.5t53.5 -66t31.5 -27.5t26.5 -6q11 0 19.5 3.5t17.5 10.5t19 18q11 11 20 12
t22 -7q17 -9 17.5 -22t-7.5 -24q-20 -28 -42 -42.5t-42.5 -19.5t-36.5 -5q-28 0 -52 10.5t-51 37.5t-64.5 75t-91.5 123v-218q0 -13 -11 -19.5t-32 -6.5zM245 -291q-12 5 -15 13t2 23q12 31 18 53t7.5 44.5t1.5 52.5q0 17 9.5 24t28.5 7q23 0 35.5 -11t12.5 -30
q0 -25 -7 -53t-19 -55.5t-28 -51.5q-10 -16 -20 -19t-26 3z" />
    <glyph glyph-name="Lacute" unicode="&#x139;" horiz-adv-x="835" 
d="M225 0q-44 0 -44 40v1205q0 14 11 20.5t33 6.5t33 -6.5t11 -20.5v-1165h506q15 0 21 -8.5t6 -31.5q0 -22 -6 -31t-21 -9h-550zM170 1318q-13 0 -25 13t-12 23q0 4 1.5 8.5t7.5 10.5l158 149q5 5 9.5 8t12.5 3q10 0 22 -9t21 -21t9 -24q0 -7 -2.5 -12t-12.5 -13l-169 -126
q-7 -4 -11.5 -7t-8.5 -3z" />
    <glyph glyph-name="lacute" unicode="&#x13a;" horiz-adv-x="306" 
d="M194 -17q-52 0 -75.5 27t-23.5 76v1160q0 13 10.5 19.5t31.5 6.5q22 0 33 -6.5t11 -19.5v-1150q0 -20 9 -29t22 -9q11 0 18.5 3t14.5 8.5t14 10.5q8 6 17 3.5t18 -13.5q5 -7 7.5 -17t-2.5 -18q-11 -17 -28.5 -28.5t-37.5 -17.5t-39 -6zM87 1318q-13 0 -25 13t-12 23
q0 4 1.5 8.5t7.5 10.5l158 149q5 5 9.5 8t12.5 3q10 0 22 -9t21 -21t9 -24q0 -7 -2.5 -12t-12.5 -13l-169 -126q-7 -4 -11.5 -7t-8.5 -3z" />
    <glyph glyph-name="Lcommaaccent" unicode="&#x13b;" horiz-adv-x="835" 
d="M225 0q-44 0 -44 40v1205q0 14 11 20.5t33 6.5t33 -6.5t11 -20.5v-1165h506q15 0 21 -8.5t6 -31.5q0 -22 -6 -31t-21 -9h-550zM443 -306q-12 5 -15 13.5t2 23.5q12 30 18.5 56t8.5 52t2 56q0 17 9.5 24t28.5 7q23 0 35.5 -11t12.5 -30q0 -25 -7.5 -56.5t-20 -62.5
t-28.5 -55q-10 -16 -20 -19t-26 2z" />
    <glyph glyph-name="lcommaaccent" unicode="&#x13c;" horiz-adv-x="306" 
d="M194 -17q-52 0 -75.5 27t-23.5 76v1160q0 13 10.5 19.5t31.5 6.5q22 0 33 -6.5t11 -19.5v-1150q0 -20 9 -29t22 -9q11 0 18.5 3t14.5 8.5t14 10.5q8 6 17 3.5t18 -13.5q5 -7 7.5 -17t-2.5 -18q-11 -17 -28.5 -28.5t-37.5 -17.5t-39 -6zM145 -291q-12 5 -15 13t2 23
q12 31 18 53t7.5 44.5t1.5 52.5q0 17 9.5 24t28.5 7q23 0 35.5 -11t12.5 -30q0 -25 -7 -53t-19 -55.5t-28 -51.5q-10 -16 -20 -19t-26 3z" />
    <glyph glyph-name="Lcaron" unicode="&#x13d;" horiz-adv-x="835" 
d="M225 0q-44 0 -44 40v1205q0 14 11 20.5t33 6.5t33 -6.5t11 -20.5v-1165h506q15 0 21 -8.5t6 -31.5q0 -22 -6 -31t-21 -9h-550zM418 1025q-17 6 -23 13t-2 20q7 22 12.5 56t9.5 69.5t5 60.5q0 11 9.5 18t33.5 7q25 0 36 -7t11 -18q-1 -27 -9 -65.5t-19.5 -77t-24.5 -66.5
q-4 -7 -10.5 -12t-28.5 2z" />
    <glyph glyph-name="lcaron" unicode="&#x13e;" horiz-adv-x="306" 
d="M194 -17q-52 0 -75.5 27t-23.5 76v1160q0 13 10.5 19.5t31.5 6.5q22 0 33 -6.5t11 -19.5v-1150q0 -20 9 -29t22 -9q11 0 18.5 3t14.5 8.5t14 10.5q8 6 17 3.5t18 -13.5q5 -7 7.5 -17t-2.5 -18q-11 -17 -28.5 -28.5t-37.5 -17.5t-39 -6zM267 1032q-17 6 -23 13t-2 20
q7 22 12.5 56t9.5 69.5t5 60.5q0 11 9.5 18t33.5 7q25 0 36 -7t11 -18q-1 -27 -9 -65.5t-19.5 -77t-24.5 -66.5q-4 -7 -10.5 -12t-28.5 2z" />
    <glyph glyph-name="Ldot" unicode="&#x13f;" horiz-adv-x="835" 
d="M225 0q-44 0 -44 40v1205q0 14 11 20.5t33 6.5t33 -6.5t11 -20.5v-1165h506q15 0 21 -8.5t6 -31.5q0 -22 -6 -31t-21 -9h-550zM620 580q-28 0 -42 15.5t-14 47.5q0 31 14 47t42 16q27 0 41 -16t14 -47q1 -32 -13.5 -47.5t-41.5 -15.5z" />
    <glyph glyph-name="ldot" unicode="&#x140;" horiz-adv-x="306" 
d="M194 -17q-52 0 -75.5 27t-23.5 76v1160q0 13 10.5 19.5t31.5 6.5q22 0 33 -6.5t11 -19.5v-1150q0 -20 9 -29t22 -9q11 0 18.5 3t14.5 8.5t14 10.5q8 6 17 3.5t18 -13.5q5 -7 7.5 -17t-2.5 -18q-11 -17 -28.5 -28.5t-37.5 -17.5t-39 -6zM301 564q-28 0 -42 15.5t-14 47.5
q0 31 14 47t42 16q27 0 41 -16t14 -47q1 -32 -13.5 -47.5t-41.5 -15.5z" />
    <glyph glyph-name="Lslash" unicode="&#x141;" horiz-adv-x="835" 
d="M225 0q-44 0 -44 40v1205q0 14 11 20.5t33 6.5t33 -6.5t11 -20.5v-1165h506q15 0 21 -8.5t6 -31.5q0 -22 -6 -31t-21 -9h-550zM93 523q-13 -7 -24.5 -3t-22.5 19q-6 13 -6.5 27t13.5 21l395 221q14 8 23.5 5t19.5 -17q23 -33 -1 -47z" />
    <glyph glyph-name="lslash" unicode="&#x142;" horiz-adv-x="306" 
d="M194 -17q-52 0 -75.5 27t-23.5 76v1160q0 13 10.5 19.5t31.5 6.5q22 0 33 -6.5t11 -19.5v-1150q0 -20 9 -29t22 -9q11 0 18.5 3t14.5 8.5t14 10.5q8 6 17 3.5t18 -13.5q5 -7 7.5 -17t-2.5 -18q-11 -17 -28.5 -28.5t-37.5 -17.5t-39 -6zM31 577q-14 -7 -25.5 -3t-19.5 20
q-7 12 -6 25.5t15 20.5l272 134q14 6 23 3.5t17 -15.5q11 -17 10 -29.5t-14 -18.5z" />
    <glyph glyph-name="Nacute" unicode="&#x143;" horiz-adv-x="1186" 
d="M225 -14q-44 0 -44 28v1231q0 14 11 20.5t33 6.5q18 0 29.5 -6.5t20.5 -20.5l642 -1066v1066q0 14 11 20.5t33 6.5q44 0 44 -27v-1231q0 -14 -11 -21t-32 -7q-16 0 -25 5t-20 23l-648 1075v-1075q0 -14 -11 -21t-33 -7zM538 1318q-13 0 -25 13t-12 23q0 4 1.5 8.5
t7.5 10.5l158 149q5 5 9.5 8t12.5 3q10 0 22 -9t21 -21t9 -24q0 -7 -2.5 -12t-12.5 -13l-169 -126q-7 -4 -11.5 -7t-8.5 -3z" />
    <glyph glyph-name="nacute" unicode="&#x144;" horiz-adv-x="646" 
d="M539 -17q-26 0 -45 7t-31 20t-17.5 32.5t-5.5 43.5v240q0 35 -10.5 60.5t-32.5 39t-59 13.5q-22 0 -44 -6t-43 -19t-39 -35t-32 -54v-314q0 -13 -11 -19.5t-33 -6.5q-21 0 -31.5 6.5t-10.5 19.5v478q0 13 10.5 19.5t31.5 6.5q22 0 33 -6.5t11 -19.5v-65q15 21 33 38.5
t40 30t46 19.5t51 7q52 0 91.5 -19t62 -59.5t22.5 -106.5v-238q0 -13 4 -21.5t11.5 -12.5t16.5 -4t16.5 3t14.5 8.5t14 10.5q8 6 18 2t17 -12q8 -10 8.5 -20t-5.5 -19q-11 -15 -27.5 -26t-35.5 -16.5t-39 -5.5zM282 610q-11 0 -26 12t-15 22q0 3 1 6t5 10l107 164
q5 8 10.5 11.5t13.5 3.5q10 0 23.5 -7.5t24 -18t10.5 -19.5q0 -7 -2.5 -11.5t-9.5 -12.5l-123 -147q-12 -13 -19 -13z" />
    <glyph glyph-name="Ncommaaccent" unicode="&#x145;" horiz-adv-x="1186" 
d="M225 -14q-44 0 -44 28v1231q0 14 11 20.5t33 6.5q18 0 29.5 -6.5t20.5 -20.5l642 -1066v1066q0 14 11 20.5t33 6.5q44 0 44 -27v-1231q0 -14 -11 -21t-32 -7q-16 0 -25 5t-20 23l-648 1075v-1075q0 -14 -11 -21t-33 -7zM535 -306q-12 5 -15 13.5t2 23.5q12 30 18.5 56
t8.5 52t2 56q0 17 9.5 24t28.5 7q23 0 35.5 -11t12.5 -30q0 -25 -7.5 -56.5t-20 -62.5t-28.5 -55q-10 -16 -20 -19t-26 2z" />
    <glyph glyph-name="ncommaaccent" unicode="&#x146;" horiz-adv-x="646" 
d="M539 -17q-26 0 -45 7t-31 20t-17.5 32.5t-5.5 43.5v240q0 35 -10.5 60.5t-32.5 39t-59 13.5q-22 0 -44 -6t-43 -19t-39 -35t-32 -54v-314q0 -13 -11 -19.5t-33 -6.5q-21 0 -31.5 6.5t-10.5 19.5v478q0 13 10.5 19.5t31.5 6.5q22 0 33 -6.5t11 -19.5v-65q15 21 33 38.5
t40 30t46 19.5t51 7q52 0 91.5 -19t62 -59.5t22.5 -106.5v-238q0 -13 4 -21.5t11.5 -12.5t16.5 -4t16.5 3t14.5 8.5t14 10.5q8 6 18 2t17 -12q8 -10 8.5 -20t-5.5 -19q-11 -15 -27.5 -26t-35.5 -16.5t-39 -5.5zM268 -291q-12 5 -15 13t2 23q12 31 18 53t7.5 44.5t1.5 52.5
q0 17 9.5 24t28.5 7q23 0 35.5 -11t12.5 -30q0 -25 -7 -53t-19 -55.5t-28 -51.5q-10 -16 -20 -19t-26 3z" />
    <glyph glyph-name="Ncaron" unicode="&#x147;" horiz-adv-x="1186" 
d="M225 -14q-44 0 -44 28v1231q0 14 11 20.5t33 6.5q18 0 29.5 -6.5t20.5 -20.5l642 -1066v1066q0 14 11 20.5t33 6.5q44 0 44 -27v-1231q0 -14 -11 -21t-32 -7q-16 0 -25 5t-20 23l-648 1075v-1075q0 -14 -11 -21t-33 -7zM758 1533q9 0 22 -11.5t13 -22.5q0 -2 -0.5 -6
t-5.5 -10l-149 -145q-7 -6 -15.5 -13t-28.5 -7q-19 0 -27.5 7t-14.5 13l-152 145q-5 6 -5 10v6q0 11 12.5 22.5t22.5 11.5q6 0 11.5 -3.5t13.5 -8.5l139 -103l139 103q8 5 13 8.5t12 3.5z" />
    <glyph glyph-name="ncaron" unicode="&#x148;" horiz-adv-x="646" 
d="M539 -17q-26 0 -45 7t-31 20t-17.5 32.5t-5.5 43.5v240q0 35 -10.5 60.5t-32.5 39t-59 13.5q-22 0 -44 -6t-43 -19t-39 -35t-32 -54v-314q0 -13 -11 -19.5t-33 -6.5q-21 0 -31.5 6.5t-10.5 19.5v478q0 13 10.5 19.5t31.5 6.5q22 0 33 -6.5t11 -19.5v-65q15 21 33 38.5
t40 30t46 19.5t51 7q52 0 91.5 -19t62 -59.5t22.5 -106.5v-238q0 -13 4 -21.5t11.5 -12.5t16.5 -4t16.5 3t14.5 8.5t14 10.5q8 6 18 2t17 -12q8 -10 8.5 -20t-5.5 -19q-11 -15 -27.5 -26t-35.5 -16.5t-39 -5.5zM456 845q9 0 22 -11.5t13 -22.5q0 -2 -1 -5.5t-6 -10.5
l-127 -159q-6 -6 -15 -13t-29 -7q-19 0 -28 7t-14 13l-129 159q-4 7 -5 10.5t-1 5.5q0 11 12.5 22.5t22.5 11.5q6 0 12 -3.5t13 -8.5l117 -117l118 117q6 5 12 8.5t13 3.5z" />
    <glyph glyph-name="Eng" unicode="&#x14a;" horiz-adv-x="1186" 
d="M1005 -170q0 -67 -20 -111.5t-56 -66t-86 -21.5q-53 0 -92.5 28t-57.5 71q-7 15 -2 27t22 22t29 6.5t22 -18.5q11 -17 22.5 -30t26 -20.5t32.5 -7.5q30 0 46 15t22 41.5t6 61.5v184l-650 1078v-1075q0 -14 -11 -21t-33 -7q-44 0 -44 28v1231q0 14 11 20.5t33 6.5
q18 0 29.5 -6.5t20.5 -20.5l642 -1066v1066q0 14 11 20.5t33 6.5q44 0 44 -27v-1415z" />
    <glyph glyph-name="eng" unicode="&#x14b;" horiz-adv-x="613" 
d="M526 -109q0 -55 -18 -87t-46.5 -45.5t-62.5 -13.5q-46 0 -77.5 21.5t-46.5 49.5q-7 15 -1 26.5t21 20.5q18 10 29.5 6.5t21.5 -16.5q14 -16 25 -24.5t28 -8.5q24 0 32.5 17.5t8.5 47.5v441q0 35 -10.5 60.5t-32.5 39t-59 13.5q-22 0 -44 -6t-43 -19t-39 -35t-32 -54v-314
q0 -13 -11 -19.5t-33 -6.5q-21 0 -31.5 6.5t-10.5 19.5v478q0 13 10.5 19.5t31.5 6.5q22 0 33 -6.5t11 -19.5v-65q15 21 33 38.5t40 30t46 19.5t51 7q52 0 91.5 -19t62 -59.5t22.5 -106.5v-443z" />
    <glyph glyph-name="Omacron" unicode="&#x14c;" horiz-adv-x="1236" 
d="M620 -19q-115 0 -208 46.5t-159 132t-101.5 204t-35.5 263.5q0 97 16 182t46.5 156.5t74.5 128t100 96.5t123.5 61t143.5 21q114 0 206 -46.5t158 -132t101 -203.5t35 -263q0 -96 -16 -181.5t-46 -157.5t-74 -128.5t-100 -96.5t-122 -61t-142 -21zM620 66
q61 0 114.5 17.5t99 51.5t81 82.5t61 111t38.5 137.5t13 161q0 129 -29.5 232t-83 176.5t-128.5 112.5t-166 39q-62 0 -116 -17.5t-100 -51.5t-81.5 -82.5t-61 -111t-39 -137t-13.5 -160.5q0 -129 29.5 -232.5t84 -177t130 -112.5t167.5 -39zM473 1381q-17 0 -22 11.5
t-5 29.5q0 19 5 31.5t22 12.5h293q18 0 22.5 -12.5t4.5 -31.5q0 -18 -4.5 -29.5t-22.5 -11.5h-293z" />
    <glyph glyph-name="omacron" unicode="&#x14d;" horiz-adv-x="589" 
d="M295 -19q-67 0 -119.5 35t-82.5 95.5t-30 138.5q0 59 17 108t48.5 85t73.5 56t93 20q67 0 119 -34.5t82 -95.5t30 -139q0 -47 -11 -88t-31.5 -74t-49 -57t-64 -37t-75.5 -13zM295 61q33 0 59.5 13t45 38t28.5 60t10 78q0 58 -17 100.5t-49 65.5t-77 23q-33 0 -60 -13
t-45.5 -38t-28.5 -59.5t-10 -78.5q0 -58 17.5 -100.5t49.5 -65.5t77 -23zM161 686q-17 0 -22 12t-5 30q0 19 5 31t22 12h268q18 0 22.5 -12t4.5 -31q0 -18 -4.5 -30t-22.5 -12h-268z" />
    <glyph glyph-name="Obreve" unicode="&#x14e;" horiz-adv-x="1236" 
d="M620 -19q-115 0 -208 46.5t-159 132t-101.5 204t-35.5 263.5q0 97 16 182t46.5 156.5t74.5 128t100 96.5t123.5 61t143.5 21q114 0 206 -46.5t158 -132t101 -203.5t35 -263q0 -96 -16 -181.5t-46 -157.5t-74 -128.5t-100 -96.5t-122 -61t-142 -21zM620 66
q61 0 114.5 17.5t99 51.5t81 82.5t61 111t38.5 137.5t13 161q0 129 -29.5 232t-83 176.5t-128.5 112.5t-166 39q-62 0 -116 -17.5t-100 -51.5t-81.5 -82.5t-61 -111t-39 -137t-13.5 -160.5q0 -129 29.5 -232.5t84 -177t130 -112.5t167.5 -39zM619 1319q-83 0 -132 45.5
t-56 139.5q-1 12 9 20.5t29 8.5q16 0 22 -7.5t9 -21.5q14 -49 41 -72.5t78 -23.5t78.5 23.5t39.5 72.5q4 14 9.5 21.5t21.5 7.5q19 0 29.5 -8.5t9.5 -20.5q-4 -60 -29 -101t-65.5 -62.5t-93.5 -21.5z" />
    <glyph glyph-name="obreve" unicode="&#x14f;" horiz-adv-x="589" 
d="M295 -19q-67 0 -119.5 35t-82.5 95.5t-30 138.5q0 59 17 108t48.5 85t73.5 56t93 20q67 0 119 -34.5t82 -95.5t30 -139q0 -47 -11 -88t-31.5 -74t-49 -57t-64 -37t-75.5 -13zM295 61q33 0 59.5 13t45 38t28.5 60t10 78q0 58 -17 100.5t-49 65.5t-77 23q-33 0 -60 -13
t-45.5 -38t-28.5 -59.5t-10 -78.5q0 -58 17.5 -100.5t49.5 -65.5t77 -23zM295 618q-79 0 -125.5 50.5t-50.5 140.5q-1 12 7 20.5t27 8.5t26 -8t10 -21q9 -45 34.5 -74t71.5 -29q47 0 72 29t34 74q3 14 9.5 21.5t25.5 7.5t28 -8.5t7 -20.5q-2 -57 -25 -100t-62 -67t-89 -24z
" />
    <glyph glyph-name="Ohungarumlaut" unicode="&#x150;" horiz-adv-x="1236" 
d="M620 -19q-115 0 -208 46.5t-159 132t-101.5 204t-35.5 263.5q0 97 16 182t46.5 156.5t74.5 128t100 96.5t123.5 61t143.5 21q114 0 206 -46.5t158 -132t101 -203.5t35 -263q0 -96 -16 -181.5t-46 -157.5t-74 -128.5t-100 -96.5t-122 -61t-142 -21zM620 66
q61 0 114.5 17.5t99 51.5t81 82.5t61 111t38.5 137.5t13 161q0 129 -29.5 232t-83 176.5t-128.5 112.5t-166 39q-62 0 -116 -17.5t-100 -51.5t-81.5 -82.5t-61 -111t-39 -137t-13.5 -160.5q0 -129 29.5 -232.5t84 -177t130 -112.5t167.5 -39zM520 1318q-13 0 -25 13t-12 23
q0 4 1 8.5t8 10.5l137 149q5 5 10.5 8t13.5 3q10 0 21.5 -8.5t20 -21t8.5 -23.5q0 -7 -2.5 -12t-12.5 -13l-149 -127l-10.5 -7t-8.5 -3zM725 1318q-13 0 -25.5 13t-12.5 23q0 4 1.5 8.5t8.5 10.5l140 149q5 5 10 8t12 3q11 0 22.5 -8.5t19.5 -21t8 -23.5q0 -7 -2 -12
t-13 -13l-150 -127l-10.5 -7t-8.5 -3z" />
    <glyph glyph-name="ohungarumlaut" unicode="&#x151;" horiz-adv-x="589" 
d="M295 -19q-67 0 -119.5 35t-82.5 95.5t-30 138.5q0 59 17 108t48.5 85t73.5 56t93 20q67 0 119 -34.5t82 -95.5t30 -139q0 -47 -11 -88t-31.5 -74t-49 -57t-64 -37t-75.5 -13zM295 61q33 0 59.5 13t45 38t28.5 60t10 78q0 58 -17 100.5t-49 65.5t-77 23q-33 0 -60 -13
t-45.5 -38t-28.5 -59.5t-10 -78.5q0 -58 17.5 -100.5t49.5 -65.5t77 -23zM205 610q-12 0 -28 8.5t-16 21.5q0 3 0.5 6.5t3.5 8.5l79 165q4 8 9 13.5t16 5.5t25 -5.5t24.5 -14.5t10.5 -20q0 -4 -1.5 -8.5t-6.5 -12.5l-96 -153q-5 -8 -9.5 -11.5t-10.5 -3.5zM373 610
q-13 0 -28.5 8.5t-15.5 21.5q0 3 0.5 6.5t3.5 8.5l86 165q5 8 9.5 13.5t15.5 5.5t25 -5.5t24.5 -14.5t10.5 -20q0 -4 -1.5 -8.5t-6.5 -12.5l-103 -153q-6 -8 -10.5 -11.5t-9.5 -3.5z" />
    <glyph glyph-name="OE.cur" unicode="&#x152;" horiz-adv-x="1773" 
d="M582 -19q-109 0 -196.5 46t-150 131.5t-96 205.5t-33.5 266q0 66 9 130.5t27 126.5t44.5 117t61.5 101t78 80q19 14 33.5 15.5t30.5 -18.5q14 -16 11.5 -29.5t-17.5 -26.5q-35 -32 -64 -71t-51.5 -85.5t-38 -100t-23 -114.5t-7.5 -130q0 -126 26 -229.5t76.5 -177
t121 -113t159.5 -39.5q50 0 95.5 13.5t84 39t71.5 62.5t58 85t43 105t27 122.5t9 138.5q0 131 -19 233.5t-54.5 174t-86.5 109t-115 37.5q-39 0 -71.5 -13t-60 -40t-52 -67t-46.5 -94q-8 -19 -21 -22.5t-32 4.5q-16 8 -20.5 20t3.5 34q20 61 50 109t68.5 82.5t85.5 53
t101 18.5q84 0 151 -43.5t114.5 -126.5t72.5 -201t25 -268q0 -83 -11.5 -159t-33.5 -141.5t-54 -120t-72.5 -97.5t-89 -72.5t-104 -45t-117.5 -15.5zM1328 -19q-114 0 -198.5 43t-130.5 122t-46 185q0 63 21.5 118.5t61 99t91.5 73.5t113 43q-55 20 -95 60.5t-61 98.5
t-21 126q0 57 15.5 105.5t44 88.5t67.5 68.5t86.5 44t100.5 15.5q55 0 105 -14.5t95 -42.5t84 -69q16 -15 18 -31t-15 -32q-16 -13 -29 -10t-30 17q-33 29 -70 50.5t-76.5 33.5t-82.5 12q-48 0 -88 -17t-70 -48t-46 -74.5t-16 -94.5q0 -77 27 -134t79 -88t124 -31h133
q15 0 21 -8.5t6 -31.5q0 -22 -6 -31t-21 -9h-147q-68 0 -127.5 -20t-104.5 -57.5t-69.5 -89.5t-24.5 -116q0 -83 35 -143t98.5 -93t149.5 -33q58 0 113.5 17.5t105.5 52t92 86.5q15 17 27.5 20.5t27.5 -9.5q17 -14 19.5 -27.5t-13.5 -34.5q-48 -62 -108 -104.5t-127.5 -64.5
t-137.5 -22z" />
    <glyph glyph-name="oe.ful" unicode="&#x153;" horiz-adv-x="841" 
d="M294 -19q-66 0 -118.5 35t-82.5 95.5t-30 138.5q0 47 11 88t32 74t49.5 57t63.5 37t75 13q67 0 118.5 -34.5t81.5 -95.5t30 -139q0 -47 -11 -88t-31.5 -74t-49 -57t-63.5 -37t-75 -13zM297 61q34 0 60.5 13t45 38t28.5 60t10 78q0 58 -17.5 100.5t-49.5 65.5t-77 23
q-34 0 -60.5 -13t-45.5 -38t-29 -59.5t-10 -78.5q0 -58 17.5 -100.5t50 -65.5t77.5 -23zM691 -17q-44 0 -82.5 17t-69.5 47.5t-53.5 71.5t-34.5 89.5t-12 100.5q0 38 8.5 70.5t24.5 58.5t38.5 44t50.5 27.5t61 9.5q46 0 78.5 -17t50.5 -48t18 -74q0 -36 -10.5 -68t-31.5 -60
t-51 -51.5t-68.5 -42t-85.5 -32.5l-14 65q32 10 59 23t48.5 30t36 37t22 42.5t7.5 47.5q0 32 -18 50.5t-50 18.5q-19 0 -34.5 -8t-27 -24t-18 -41t-6.5 -58q0 -52 15 -97t40 -78.5t56.5 -52t63.5 -18.5q18 0 36 7.5t37 22.5t39 37q15 16 27.5 15.5t26.5 -11.5t17 -23t-7 -26
q-25 -38 -58 -60.5t-66.5 -32t-62.5 -9.5z" />
    <glyph glyph-name="Racute" unicode="&#x154;" horiz-adv-x="927" 
d="M225 -14q-22 0 -33 7t-11 21v1208q0 14 11.5 21t33.5 7h220q135 0 222 -29.5t130 -94t43 -168.5q0 -61 -16 -112t-46 -91.5t-72 -72t-95 -53.5t-114 -35.5t-128 -18.5q74 -94 153 -185.5t164.5 -176.5t178.5 -158q11 -8 14 -24t-16 -34q-13 -12 -27 -12.5t-29 11.5
q-99 81 -192 174t-179.5 193t-167.5 199v-548q0 -14 -11 -21t-33 -7zM269 644q56 1 109 6.5t101 17t89.5 29t75.5 42t57.5 57t36.5 72.5t13 90q0 75 -32 121.5t-98 68.5t-165 22h-187v-526zM410 1318q-13 0 -25 13t-12 23q0 4 1.5 8.5t7.5 10.5l158 149q5 5 9.5 8t12.5 3
q10 0 22 -9t21 -21t9 -24q0 -7 -2.5 -12t-12.5 -13l-169 -126q-7 -4 -11.5 -7t-8.5 -3z" />
    <glyph glyph-name="racute" unicode="&#x155;" horiz-adv-x="445" 
d="M136 -15q-21 0 -31.5 6.5t-10.5 19.5v478q0 13 10.5 19.5t31.5 6.5q22 0 33 -6.5t11 -19.5v-64q15 22 33 39.5t38 29.5t41.5 18.5t43.5 6.5q23 0 44.5 -6t32.5 -14t14 -18t-8 -30q-7 -15 -18 -20t-27 -1q-11 3 -23.5 6t-29.5 3q-20 0 -39.5 -6.5t-38 -20t-34.5 -34.5
t-29 -49v-318q0 -13 -11 -19.5t-33 -6.5zM230 610q-11 0 -26 12t-15 22q0 3 1 6t5 10l107 164q5 8 10.5 11.5t13.5 3.5q10 0 23.5 -7.5t24 -18t10.5 -19.5q0 -7 -2.5 -11.5t-9.5 -12.5l-123 -147q-12 -13 -19 -13z" />
    <glyph glyph-name="Rcommaaccent" unicode="&#x156;" horiz-adv-x="927" 
d="M225 -14q-22 0 -33 7t-11 21v1208q0 14 11.5 21t33.5 7h220q135 0 222 -29.5t130 -94t43 -168.5q0 -61 -16 -112t-46 -91.5t-72 -72t-95 -53.5t-114 -35.5t-128 -18.5q74 -94 153 -185.5t164.5 -176.5t178.5 -158q11 -8 14 -24t-16 -34q-13 -12 -27 -12.5t-29 11.5
q-99 81 -192 174t-179.5 193t-167.5 199v-548q0 -14 -11 -21t-33 -7zM269 644q56 1 109 6.5t101 17t89.5 29t75.5 42t57.5 57t36.5 72.5t13 90q0 75 -32 121.5t-98 68.5t-165 22h-187v-526zM456 -306q-12 5 -15 13.5t2 23.5q12 30 18.5 56t8.5 52t2 56q0 17 9.5 24t28.5 7
q23 0 35.5 -11t12.5 -30q0 -25 -7.5 -56.5t-20 -62.5t-28.5 -55q-10 -16 -20 -19t-26 2z" />
    <glyph glyph-name="rcommaaccent" unicode="&#x157;" horiz-adv-x="445" 
d="M136 -15q-21 0 -31.5 6.5t-10.5 19.5v478q0 13 10.5 19.5t31.5 6.5q22 0 33 -6.5t11 -19.5v-64q15 22 33 39.5t38 29.5t41.5 18.5t43.5 6.5q23 0 44.5 -6t32.5 -14t14 -18t-8 -30q-7 -15 -18 -20t-27 -1q-11 3 -23.5 6t-29.5 3q-20 0 -39.5 -6.5t-38 -20t-34.5 -34.5
t-29 -49v-318q0 -13 -11 -19.5t-33 -6.5zM74 -291q-12 5 -15 13t2 23q12 31 18 53t7.5 44.5t1.5 52.5q0 17 9.5 24t28.5 7q23 0 35.5 -11t12.5 -30q0 -25 -7 -53t-19 -55.5t-28 -51.5q-10 -16 -20 -19t-26 3z" />
    <glyph glyph-name="Rcaron" unicode="&#x158;" horiz-adv-x="927" 
d="M225 -14q-22 0 -33 7t-11 21v1208q0 14 11.5 21t33.5 7h220q135 0 222 -29.5t130 -94t43 -168.5q0 -61 -16 -112t-46 -91.5t-72 -72t-95 -53.5t-114 -35.5t-128 -18.5q74 -94 153 -185.5t164.5 -176.5t178.5 -158q11 -8 14 -24t-16 -34q-13 -12 -27 -12.5t-29 11.5
q-99 81 -192 174t-179.5 193t-167.5 199v-548q0 -14 -11 -21t-33 -7zM269 644q56 1 109 6.5t101 17t89.5 29t75.5 42t57.5 57t36.5 72.5t13 90q0 75 -32 121.5t-98 68.5t-165 22h-187v-526zM630 1533q9 0 22 -11.5t13 -22.5q0 -2 -0.5 -6t-5.5 -10l-149 -145
q-7 -6 -15.5 -13t-28.5 -7q-19 0 -27.5 7t-14.5 13l-152 145q-5 6 -5 10v6q0 11 12.5 22.5t22.5 11.5q6 0 11.5 -3.5t13.5 -8.5l139 -103l139 103q8 5 13 8.5t12 3.5z" />
    <glyph glyph-name="rcaron" unicode="&#x159;" horiz-adv-x="445" 
d="M136 -15q-21 0 -31.5 6.5t-10.5 19.5v478q0 13 10.5 19.5t31.5 6.5q22 0 33 -6.5t11 -19.5v-64q15 22 33 39.5t38 29.5t41.5 18.5t43.5 6.5q23 0 44.5 -6t32.5 -14t14 -18t-8 -30q-7 -15 -18 -20t-27 -1q-11 3 -23.5 6t-29.5 3q-20 0 -39.5 -6.5t-38 -20t-34.5 -34.5
t-29 -49v-318q0 -13 -11 -19.5t-33 -6.5zM404 845q9 0 22 -11.5t13 -22.5q0 -2 -1 -5.5t-6 -10.5l-127 -159q-6 -6 -15 -13t-29 -7q-19 0 -28 7t-14 13l-129 159q-4 7 -5 10.5t-1 5.5q0 11 12.5 22.5t22.5 11.5q6 0 12 -3.5t13 -8.5l117 -117l118 117q6 5 12 8.5t13 3.5z
" />
    <glyph glyph-name="Sacute" unicode="&#x15a;" horiz-adv-x="919" 
d="M441 -19q-43 0 -88.5 8.5t-90.5 26.5t-85 47.5t-71 71.5q-7 11 -6.5 20t14.5 23q14 15 23.5 16.5t28.5 -15.5q34 -35 74.5 -60t90 -39t110.5 -14q68 0 121.5 18t90.5 52t56 83t19 113q0 57 -19 97.5t-54 70t-81.5 52.5t-102.5 43q-47 17 -94 38t-89.5 49t-75 67t-51.5 91
t-19 122q0 74 25.5 131.5t70.5 97t106 60.5t131 21t126 -20t103 -52.5t90 -72.5q11 -10 9 -20.5t-12 -21.5q-13 -13 -24.5 -18t-22.5 3q-41 36 -83.5 62t-87.5 40.5t-98 14.5q-56 0 -100.5 -15t-75.5 -44t-47.5 -70.5t-16.5 -95.5q0 -66 21 -110.5t58 -75.5t85 -53t100 -41
q56 -21 113 -47.5t104.5 -65.5t76 -96.5t28.5 -140.5q0 -81 -26.5 -146t-76.5 -110.5t-120 -70t-157 -24.5zM423 1318q-13 0 -25 13t-12 23q0 4 1.5 8.5t7.5 10.5l158 149q5 5 9.5 8t12.5 3q10 0 22 -9t21 -21t9 -24q0 -7 -2.5 -12t-12.5 -13l-169 -126q-7 -4 -11.5 -7
t-8.5 -3z" />
    <glyph glyph-name="sacute" unicode="&#x15b;" horiz-adv-x="486" 
d="M244 -19q-40 0 -75 11t-62 27.5t-43 33.5q-7 8 -6.5 19.5t13.5 25.5q11 11 20 13t20 -6q37 -28 70.5 -41.5t64.5 -13.5q30 0 53 9.5t36.5 28.5t13.5 45q0 32 -19 49.5t-48.5 27t-62.5 19t-62.5 25t-48.5 43.5t-19 76q0 42 21.5 75t60 52t88.5 19q40 0 71.5 -8.5t55 -22
t38.5 -29.5q11 -11 9.5 -21.5t-12.5 -22.5q-11 -13 -21.5 -14.5t-23.5 7.5q-28 20 -56 31t-62 11q-36 0 -59.5 -17.5t-23.5 -49.5q0 -30 18.5 -46.5t48 -27t63 -20.5t63 -26t48 -43.5t18.5 -73.5q0 -43 -20.5 -81t-62.5 -61t-107 -23zM229 610q-11 0 -26 12t-15 22q0 3 1 6
t5 10l107 164q5 8 10.5 11.5t13.5 3.5q10 0 23.5 -7.5t24 -18t10.5 -19.5q0 -7 -2.5 -11.5t-9.5 -12.5l-123 -147q-12 -13 -19 -13z" />
    <glyph glyph-name="Scircumflex" unicode="&#x15c;" horiz-adv-x="919" 
d="M441 -19q-43 0 -88.5 8.5t-90.5 26.5t-85 47.5t-71 71.5q-7 11 -6.5 20t14.5 23q14 15 23.5 16.5t28.5 -15.5q34 -35 74.5 -60t90 -39t110.5 -14q68 0 121.5 18t90.5 52t56 83t19 113q0 57 -19 97.5t-54 70t-81.5 52.5t-102.5 43q-47 17 -94 38t-89.5 49t-75 67t-51.5 91
t-19 122q0 74 25.5 131.5t70.5 97t106 60.5t131 21t126 -20t103 -52.5t90 -72.5q11 -10 9 -20.5t-12 -21.5q-13 -13 -24.5 -18t-22.5 3q-41 36 -83.5 62t-87.5 40.5t-98 14.5q-56 0 -100.5 -15t-75.5 -44t-47.5 -70.5t-16.5 -95.5q0 -66 21 -110.5t58 -75.5t85 -53t100 -41
q56 -21 113 -47.5t104.5 -65.5t76 -96.5t28.5 -140.5q0 -81 -26.5 -146t-76.5 -110.5t-120 -70t-157 -24.5zM315 1318q-10 0 -22.5 12t-12.5 22v7t5 9l149 145q7 7 16 13.5t28 6.5t27.5 -6.5t15.5 -13.5l151 -145q5 -5 5.5 -9t0.5 -7q0 -10 -13 -22t-23 -12q-6 0 -11 3.5
t-13 9.5l-140 102l-138 -102q-8 -6 -13.5 -9.5t-11.5 -3.5z" />
    <glyph glyph-name="scircumflex" unicode="&#x15d;" horiz-adv-x="486" 
d="M244 -19q-40 0 -75 11t-62 27.5t-43 33.5q-7 8 -6.5 19.5t13.5 25.5q11 11 20 13t20 -6q37 -28 70.5 -41.5t64.5 -13.5q30 0 53 9.5t36.5 28.5t13.5 45q0 32 -19 49.5t-48.5 27t-62.5 19t-62.5 25t-48.5 43.5t-19 76q0 42 21.5 75t60 52t88.5 19q40 0 71.5 -8.5t55 -22
t38.5 -29.5q11 -11 9.5 -21.5t-12.5 -22.5q-11 -13 -21.5 -14.5t-23.5 7.5q-28 20 -56 31t-62 11q-36 0 -59.5 -17.5t-23.5 -49.5q0 -30 18.5 -46.5t48 -27t63 -20.5t63 -26t48 -43.5t18.5 -73.5q0 -43 -20.5 -81t-62.5 -61t-107 -23zM118 610q-10 0 -22.5 12t-12.5 22
q0 3 1 6t5 10l127 159q6 7 15.5 13.5t28.5 6.5t28 -6.5t15 -13.5l128 -159q5 -7 6 -10t1 -6q0 -10 -13 -22t-22 -12q-7 0 -13 3.5t-12 9.5l-118 116l-117 -116q-7 -6 -13 -9.5t-12 -3.5z" />
    <glyph glyph-name="Scedilla" unicode="&#x15e;" horiz-adv-x="919" 
d="M441 -19q-43 0 -88.5 8.5t-90.5 26.5t-85 47.5t-71 71.5q-7 11 -6.5 20t14.5 23q14 15 23.5 16.5t28.5 -15.5q34 -35 74.5 -60t90 -39t110.5 -14q68 0 121.5 18t90.5 52t56 83t19 113q0 57 -19 97.5t-54 70t-81.5 52.5t-102.5 43q-47 17 -94 38t-89.5 49t-75 67t-51.5 91
t-19 122q0 74 25.5 131.5t70.5 97t106 60.5t131 21t126 -20t103 -52.5t90 -72.5q11 -10 9 -20.5t-12 -21.5q-13 -13 -24.5 -18t-22.5 3q-41 36 -83.5 62t-87.5 40.5t-98 14.5q-56 0 -100.5 -15t-75.5 -44t-47.5 -70.5t-16.5 -95.5q0 -66 21 -110.5t58 -75.5t85 -53t100 -41
q56 -21 113 -47.5t104.5 -65.5t76 -96.5t28.5 -140.5q0 -81 -26.5 -146t-76.5 -110.5t-120 -70t-157 -24.5zM446 -278q-20 0 -52.5 6t-59.5 22q-11 7 -12.5 18.5t3.5 22.5q7 14 16 18t22 -1q11 -5 30.5 -11t45.5 -6q31 0 45.5 8t14.5 30q0 19 -17.5 30.5t-61.5 5.5
q-11 -1 -17 1t-12 9q-5 7 -5.5 14t2.5 14l46 110h66l-51 -118l-30 16q45 17 80.5 11t57 -30t21.5 -63q0 -34 -15.5 -58t-44.5 -36.5t-72 -12.5z" />
    <glyph glyph-name="scedilla" unicode="&#x15f;" horiz-adv-x="486" 
d="M244 -19q-40 0 -75 11t-62 27.5t-43 33.5q-7 8 -6.5 19.5t13.5 25.5q11 11 20 13t20 -6q37 -28 70.5 -41.5t64.5 -13.5q30 0 53 9.5t36.5 28.5t13.5 45q0 32 -19 49.5t-48.5 27t-62.5 19t-62.5 25t-48.5 43.5t-19 76q0 42 21.5 75t60 52t88.5 19q40 0 71.5 -8.5t55 -22
t38.5 -29.5q11 -11 9.5 -21.5t-12.5 -22.5q-11 -13 -21.5 -14.5t-23.5 7.5q-28 20 -56 31t-62 11q-36 0 -59.5 -17.5t-23.5 -49.5q0 -30 18.5 -46.5t48 -27t63 -20.5t63 -26t48 -43.5t18.5 -73.5q0 -43 -20.5 -81t-62.5 -61t-107 -23zM236 -269q-16 0 -48 5.5t-59 22.5
q-11 7 -12.5 18.5t3.5 22.5q7 14 16 18t22 -2q11 -4 30 -10t41 -6q31 0 43.5 7.5t12.5 26.5q0 15 -15.5 26t-59.5 5q-11 -1 -17 1t-12 9q-5 7 -5.5 14t2.5 14l50 110h70l-59 -118l-30 16q45 17 80 11t55 -29t20 -59q0 -32 -14.5 -55t-42.5 -35.5t-71 -12.5z" />
    <glyph glyph-name="Scaron" unicode="&#x160;" horiz-adv-x="919" 
d="M441 -19q-43 0 -88.5 8.5t-90.5 26.5t-85 47.5t-71 71.5q-7 11 -6.5 20t14.5 23q14 15 23.5 16.5t28.5 -15.5q34 -35 74.5 -60t90 -39t110.5 -14q68 0 121.5 18t90.5 52t56 83t19 113q0 57 -19 97.5t-54 70t-81.5 52.5t-102.5 43q-47 17 -94 38t-89.5 49t-75 67t-51.5 91
t-19 122q0 74 25.5 131.5t70.5 97t106 60.5t131 21t126 -20t103 -52.5t90 -72.5q11 -10 9 -20.5t-12 -21.5q-13 -13 -24.5 -18t-22.5 3q-41 36 -83.5 62t-87.5 40.5t-98 14.5q-56 0 -100.5 -15t-75.5 -44t-47.5 -70.5t-16.5 -95.5q0 -66 21 -110.5t58 -75.5t85 -53t100 -41
q56 -21 113 -47.5t104.5 -65.5t76 -96.5t28.5 -140.5q0 -81 -26.5 -146t-76.5 -110.5t-120 -70t-157 -24.5zM643 1533q9 0 22 -11.5t13 -22.5q0 -2 -0.5 -6t-5.5 -10l-149 -145q-7 -6 -15.5 -13t-28.5 -7q-19 0 -27.5 7t-14.5 13l-152 145q-5 6 -5 10v6q0 11 12.5 22.5
t22.5 11.5q6 0 11.5 -3.5t13.5 -8.5l139 -103l139 103q8 5 13 8.5t12 3.5z" />
    <glyph glyph-name="scaron" unicode="&#x161;" horiz-adv-x="486" 
d="M244 -19q-40 0 -75 11t-62 27.5t-43 33.5q-7 8 -6.5 19.5t13.5 25.5q11 11 20 13t20 -6q37 -28 70.5 -41.5t64.5 -13.5q30 0 53 9.5t36.5 28.5t13.5 45q0 32 -19 49.5t-48.5 27t-62.5 19t-62.5 25t-48.5 43.5t-19 76q0 42 21.5 75t60 52t88.5 19q40 0 71.5 -8.5t55 -22
t38.5 -29.5q11 -11 9.5 -21.5t-12.5 -22.5q-11 -13 -21.5 -14.5t-23.5 7.5q-28 20 -56 31t-62 11q-36 0 -59.5 -17.5t-23.5 -49.5q0 -30 18.5 -46.5t48 -27t63 -20.5t63 -26t48 -43.5t18.5 -73.5q0 -43 -20.5 -81t-62.5 -61t-107 -23zM403 845q9 0 22 -11.5t13 -22.5
q0 -2 -1 -5.5t-6 -10.5l-127 -159q-6 -6 -15 -13t-29 -7q-19 0 -28 7t-14 13l-129 159q-4 7 -5 10.5t-1 5.5q0 11 12.5 22.5t22.5 11.5q6 0 12 -3.5t13 -8.5l117 -117l118 117q6 5 12 8.5t13 3.5z" />
    <glyph glyph-name="Tcedilla" unicode="&#x162;" horiz-adv-x="922" 
d="M461 -15q-44 0 -44 28v1157h-362q-15 0 -21.5 9t-6.5 31q0 23 6.5 31.5t21.5 8.5h813q15 0 21 -8.5t6 -31.5q0 -22 -6 -31t-21 -9h-363v-1157q0 -14 -11 -21t-33 -7zM446 -278q-20 0 -52.5 6t-59.5 22q-11 7 -12.5 18.5t3.5 22.5q7 14 16 18t22 -1q11 -5 30.5 -11
t45.5 -6q31 0 45.5 8t14.5 30q0 19 -17.5 30.5t-61.5 5.5q-11 -1 -17 1t-12 9q-5 7 -5.5 14t2.5 14l46 110h66l-51 -118l-30 16q45 17 80.5 11t57 -30t21.5 -63q0 -34 -15.5 -58t-44.5 -36.5t-72 -12.5z" />
    <glyph glyph-name="tcedilla" unicode="&#x163;" horiz-adv-x="388" 
d="M243 -17q-42 0 -69.5 15.5t-41 44t-13.5 68.5v309h-78q-15 0 -21 9t-6 31q0 23 6 31.5t21 8.5h78v204q0 13 10.5 19.5t31.5 6.5q22 0 33 -6.5t11 -19.5v-204h126q15 0 21.5 -8.5t6.5 -31.5q0 -22 -6.5 -31t-21.5 -9h-126v-299q0 -34 9.5 -48.5t34.5 -14.5q23 0 39.5 11
t34.5 27q12 11 22.5 7.5t19.5 -12.5q11 -10 11.5 -20.5t-5.5 -19.5q-17 -25 -38 -40t-44 -21.5t-46 -6.5zM236 -269q-16 0 -48 5.5t-59 22.5q-11 7 -12.5 18.5t3.5 22.5q7 14 16 18t22 -2q11 -4 30 -10t41 -6q31 0 43.5 7.5t12.5 26.5q0 15 -15.5 26t-59.5 5q-11 -1 -17 1
t-12 9q-5 7 -5.5 14t2.5 14l50 110h70l-59 -118l-30 16q45 17 80 11t55 -29t20 -59q0 -32 -14.5 -55t-42.5 -35.5t-71 -12.5z" />
    <glyph glyph-name="Tcaron" unicode="&#x164;" horiz-adv-x="922" 
d="M461 -15q-44 0 -44 28v1157h-362q-15 0 -21.5 9t-6.5 31q0 23 6.5 31.5t21.5 8.5h813q15 0 21 -8.5t6 -31.5q0 -22 -6 -31t-21 -9h-363v-1157q0 -14 -11 -21t-33 -7zM626 1533q9 0 22 -11.5t13 -22.5q0 -2 -0.5 -6t-5.5 -10l-149 -145q-7 -6 -15.5 -13t-28.5 -7
q-19 0 -27.5 7t-14.5 13l-152 145q-5 6 -5 10v6q0 11 12.5 22.5t22.5 11.5q6 0 11.5 -3.5t13.5 -8.5l139 -103l139 103q8 5 13 8.5t12 3.5z" />
    <glyph glyph-name="tcaron" unicode="&#x165;" horiz-adv-x="388" 
d="M243 -17q-42 0 -69.5 15.5t-41 44t-13.5 68.5v309h-78q-15 0 -21 9t-6 31q0 23 6 31.5t21 8.5h78v204q0 13 10.5 19.5t31.5 6.5q22 0 33 -6.5t11 -19.5v-204h126q15 0 21.5 -8.5t6.5 -31.5q0 -22 -6.5 -31t-21.5 -9h-126v-299q0 -34 9.5 -48.5t34.5 -14.5q23 0 39.5 11
t34.5 27q12 11 22.5 7.5t19.5 -12.5q11 -10 11.5 -20.5t-5.5 -19.5q-17 -25 -38 -40t-44 -21.5t-46 -6.5zM403 796q17 0 25 -10t3 -24l-62 -172q-4 -10 -11 -15t-18 -5q-10 0 -18.5 6t-11.5 14l-62 170q-6 17 2.5 26.5t25.5 9.5q12 0 18 -4.5t9 -12.5l37 -114l34 110
q4 11 11 16t18 5z" />
    <glyph glyph-name="Tbar" unicode="&#x166;" horiz-adv-x="922" 
d="M461 -15q-44 0 -44 28v1157h-362q-15 0 -21.5 9t-6.5 31q0 23 6.5 31.5t21.5 8.5h813q15 0 21 -8.5t6 -31.5q0 -22 -6 -31t-21 -9h-363v-1157q0 -14 -11 -21t-33 -7zM233 588q-18 0 -23 11t-5 24q0 14 5 26t23 12h457q17 0 22 -12t5 -26q0 -13 -5 -24t-22 -11h-457z" />
    <glyph glyph-name="tbar" unicode="&#x167;" horiz-adv-x="388" 
d="M243 -17q-42 0 -69.5 15.5t-41 44t-13.5 68.5v309h-78q-15 0 -21 9t-6 31q0 23 6 31.5t21 8.5h78v204q0 13 10.5 19.5t31.5 6.5q22 0 33 -6.5t11 -19.5v-204h126q15 0 21.5 -8.5t6.5 -31.5q0 -22 -6.5 -31t-21.5 -9h-126v-299q0 -34 9.5 -48.5t34.5 -14.5q23 0 39.5 11
t34.5 27q12 11 22.5 7.5t19.5 -12.5q11 -10 11.5 -20.5t-5.5 -19.5q-17 -25 -38 -40t-44 -21.5t-46 -6.5zM43 257q-18 0 -23 11t-5 24q0 14 5 26t23 12h286q18 0 22.5 -12t4.5 -26q0 -13 -4.5 -24t-22.5 -11h-286z" />
    <glyph glyph-name="Utilde" unicode="&#x168;" horiz-adv-x="1152" 
d="M579 -19q-98 0 -173.5 26.5t-127 79t-78 128.5t-26.5 175v855q0 14 11 20.5t33 6.5t33 -6.5t11 -20.5v-855q0 -105 35.5 -177t106 -109.5t175.5 -37.5q103 0 172.5 37.5t104.5 109.5t35 177v855q0 14 11 20.5t33 6.5q43 0 43 -27v-855q0 -132 -46 -223.5t-135.5 -138.5
t-217.5 -47zM419 1350q-34 0 -34 27q1 62 26.5 94.5t75.5 32.5q31 0 55.5 -11.5t44.5 -26t37.5 -26t34.5 -11.5q16 0 24 16t9 39q3 21 34 21q19 0 27.5 -7t8.5 -20q-1 -63 -26.5 -94.5t-76.5 -31.5q-30 0 -55 11.5t-45.5 26.5t-38 26.5t-33.5 11.5t-23 -13t-9 -39
q-1 -12 -10 -19t-26 -7z" />
    <glyph glyph-name="utilde" unicode="&#x169;" horiz-adv-x="645" 
d="M269 -17q-58 0 -97 20.5t-58.5 61t-19.5 101.5v323q0 13 10.5 19.5t31.5 6.5q22 0 33 -6.5t11 -19.5v-323q0 -35 11 -59t33.5 -36t55.5 -12q28 0 52 9t43.5 24.5t34.5 37.5t25 47v312q0 13 10.5 19.5t32.5 6.5q21 0 32 -6.5t11 -19.5v-393q0 -14 4 -23t11.5 -13t16.5 -4
t16.5 3.5t15 9.5t14.5 11q8 6 17.5 3t17.5 -14q5 -7 7 -17t-5 -19q-10 -15 -26 -26.5t-35 -18.5t-39 -7q-24 0 -41.5 6.5t-29.5 18.5t-19 28t-9 35l-1 9q-14 -22 -31.5 -39.5t-38.5 -30t-45.5 -19t-51.5 -6.5zM152 640q-34 0 -34 26q1 73 30 104t75 31q30 0 52.5 -11.5
t40.5 -26t34 -26t32 -11.5q13 0 21.5 14.5t9.5 40.5q2 22 34 22q20 0 28 -7t8 -21q-1 -61 -25.5 -97.5t-81.5 -36.5q-29 0 -52 11.5t-41.5 27t-34 27t-30.5 11.5q-12 0 -20 -13t-10 -39q-1 -13 -10 -19.5t-26 -6.5z" />
    <glyph glyph-name="Umacron" unicode="&#x16a;" horiz-adv-x="1152" 
d="M579 -19q-98 0 -173.5 26.5t-127 79t-78 128.5t-26.5 175v855q0 14 11 20.5t33 6.5t33 -6.5t11 -20.5v-855q0 -105 35.5 -177t106 -109.5t175.5 -37.5q103 0 172.5 37.5t104.5 109.5t35 177v855q0 14 11 20.5t33 6.5q43 0 43 -27v-855q0 -132 -46 -223.5t-135.5 -138.5
t-217.5 -47zM430 1381q-17 0 -22 11.5t-5 29.5q0 19 5 31.5t22 12.5h293q18 0 22.5 -12.5t4.5 -31.5q0 -18 -4.5 -29.5t-22.5 -11.5h-293z" />
    <glyph glyph-name="umacron" unicode="&#x16b;" horiz-adv-x="645" 
d="M269 -17q-58 0 -97 20.5t-58.5 61t-19.5 101.5v323q0 13 10.5 19.5t31.5 6.5q22 0 33 -6.5t11 -19.5v-323q0 -35 11 -59t33.5 -36t55.5 -12q28 0 52 9t43.5 24.5t34.5 37.5t25 47v312q0 13 10.5 19.5t32.5 6.5q21 0 32 -6.5t11 -19.5v-393q0 -14 4 -23t11.5 -13t16.5 -4
t16.5 3.5t15 9.5t14.5 11q8 6 17.5 3t17.5 -14q5 -7 7 -17t-5 -19q-10 -15 -26 -26.5t-35 -18.5t-39 -7q-24 0 -41.5 6.5t-29.5 18.5t-19 28t-9 35l-1 9q-14 -22 -31.5 -39.5t-38.5 -30t-45.5 -19t-51.5 -6.5zM169 686q-17 0 -22 12t-5 30q0 19 5 31t22 12h268
q18 0 22.5 -12t4.5 -31q0 -18 -4.5 -30t-22.5 -12h-268z" />
    <glyph glyph-name="Ubreve" unicode="&#x16c;" horiz-adv-x="1152" 
d="M579 -19q-98 0 -173.5 26.5t-127 79t-78 128.5t-26.5 175v855q0 14 11 20.5t33 6.5t33 -6.5t11 -20.5v-855q0 -105 35.5 -177t106 -109.5t175.5 -37.5q103 0 172.5 37.5t104.5 109.5t35 177v855q0 14 11 20.5t33 6.5q43 0 43 -27v-855q0 -132 -46 -223.5t-135.5 -138.5
t-217.5 -47zM576 1319q-83 0 -132 45.5t-56 139.5q-1 12 9 20.5t29 8.5q16 0 22 -7.5t9 -21.5q14 -49 41 -72.5t78 -23.5t78.5 23.5t39.5 72.5q4 14 9.5 21.5t21.5 7.5q19 0 29.5 -8.5t9.5 -20.5q-4 -60 -29 -101t-65.5 -62.5t-93.5 -21.5z" />
    <glyph glyph-name="ubreve" unicode="&#x16d;" horiz-adv-x="645" 
d="M269 -17q-58 0 -97 20.5t-58.5 61t-19.5 101.5v323q0 13 10.5 19.5t31.5 6.5q22 0 33 -6.5t11 -19.5v-323q0 -35 11 -59t33.5 -36t55.5 -12q28 0 52 9t43.5 24.5t34.5 37.5t25 47v312q0 13 10.5 19.5t32.5 6.5q21 0 32 -6.5t11 -19.5v-393q0 -14 4 -23t11.5 -13t16.5 -4
t16.5 3.5t15 9.5t14.5 11q8 6 17.5 3t17.5 -14q5 -7 7 -17t-5 -19q-10 -15 -26 -26.5t-35 -18.5t-39 -7q-24 0 -41.5 6.5t-29.5 18.5t-19 28t-9 35l-1 9q-14 -22 -31.5 -39.5t-38.5 -30t-45.5 -19t-51.5 -6.5zM303 618q-79 0 -125.5 50.5t-50.5 140.5q-1 12 7 20.5t27 8.5
t26 -8t10 -21q9 -45 34.5 -74t71.5 -29q47 0 72 29t34 74q3 14 9.5 21.5t25.5 7.5t28 -8.5t7 -20.5q-2 -57 -25 -100t-62 -67t-89 -24z" />
    <glyph glyph-name="Uring" unicode="&#x16e;" horiz-adv-x="1152" 
d="M579 -19q-98 0 -173.5 26.5t-127 79t-78 128.5t-26.5 175v855q0 14 11 20.5t33 6.5t33 -6.5t11 -20.5v-855q0 -105 35.5 -177t106 -109.5t175.5 -37.5q103 0 172.5 37.5t104.5 109.5t35 177v855q0 14 11 20.5t33 6.5q43 0 43 -27v-855q0 -132 -46 -223.5t-135.5 -138.5
t-217.5 -47zM576 1311q-41 0 -73 16t-49.5 43.5t-17.5 63.5q0 35 17.5 62.5t49.5 43t73 15.5q43 0 75 -15.5t50 -43t18 -62.5q0 -36 -18 -63.5t-50 -43.5t-75 -16zM576 1372q33 0 51.5 18t18.5 44t-18.5 43t-51.5 17q-32 0 -50 -17t-18 -43t18 -44t50 -18z" />
    <glyph glyph-name="uring" unicode="&#x16f;" horiz-adv-x="645" 
d="M269 -17q-58 0 -97 20.5t-58.5 61t-19.5 101.5v323q0 13 10.5 19.5t31.5 6.5q22 0 33 -6.5t11 -19.5v-323q0 -35 11 -59t33.5 -36t55.5 -12q28 0 52 9t43.5 24.5t34.5 37.5t25 47v312q0 13 10.5 19.5t32.5 6.5q21 0 32 -6.5t11 -19.5v-393q0 -14 4 -23t11.5 -13t16.5 -4
t16.5 3.5t15 9.5t14.5 11q8 6 17.5 3t17.5 -14q5 -7 7 -17t-5 -19q-10 -15 -26 -26.5t-35 -18.5t-39 -7q-24 0 -41.5 6.5t-29.5 18.5t-19 28t-9 35l-1 9q-14 -22 -31.5 -39.5t-38.5 -30t-45.5 -19t-51.5 -6.5zM303 601q-61 0 -98.5 36t-37.5 94q0 39 17 68t48 45t71 16
q61 0 98.5 -35t37.5 -94q0 -39 -17 -68t-47.5 -45.5t-71.5 -16.5zM303 661q21 0 35.5 9t22 24.5t7.5 36.5q0 32 -17 50.5t-48 18.5q-20 0 -35 -8.5t-22.5 -24t-7.5 -36.5q0 -31 17 -50.5t48 -19.5z" />
    <glyph glyph-name="Uhungarumlaut" unicode="&#x170;" horiz-adv-x="1152" 
d="M579 -19q-98 0 -173.5 26.5t-127 79t-78 128.5t-26.5 175v855q0 14 11 20.5t33 6.5t33 -6.5t11 -20.5v-855q0 -105 35.5 -177t106 -109.5t175.5 -37.5q103 0 172.5 37.5t104.5 109.5t35 177v855q0 14 11 20.5t33 6.5q43 0 43 -27v-855q0 -132 -46 -223.5t-135.5 -138.5
t-217.5 -47zM477 1318q-13 0 -25 13t-12 23q0 4 1 8.5t8 10.5l137 149q5 5 10.5 8t13.5 3q10 0 21.5 -8.5t20 -21t8.5 -23.5q0 -7 -2.5 -12t-12.5 -13l-149 -127l-10.5 -7t-8.5 -3zM682 1318q-13 0 -25.5 13t-12.5 23q0 4 1.5 8.5t8.5 10.5l140 149q5 5 10 8t12 3
q11 0 22.5 -8.5t19.5 -21t8 -23.5q0 -7 -2 -12t-13 -13l-150 -127l-10.5 -7t-8.5 -3z" />
    <glyph glyph-name="uhungarumlaut" unicode="&#x171;" horiz-adv-x="645" 
d="M269 -17q-58 0 -97 20.5t-58.5 61t-19.5 101.5v323q0 13 10.5 19.5t31.5 6.5q22 0 33 -6.5t11 -19.5v-323q0 -35 11 -59t33.5 -36t55.5 -12q28 0 52 9t43.5 24.5t34.5 37.5t25 47v312q0 13 10.5 19.5t32.5 6.5q21 0 32 -6.5t11 -19.5v-393q0 -14 4 -23t11.5 -13t16.5 -4
t16.5 3.5t15 9.5t14.5 11q8 6 17.5 3t17.5 -14q5 -7 7 -17t-5 -19q-10 -15 -26 -26.5t-35 -18.5t-39 -7q-24 0 -41.5 6.5t-29.5 18.5t-19 28t-9 35l-1 9q-14 -22 -31.5 -39.5t-38.5 -30t-45.5 -19t-51.5 -6.5zM213 610q-12 0 -28 8.5t-16 21.5q0 3 0.5 6.5t3.5 8.5l79 165
q4 8 9 13.5t16 5.5t25 -5.5t24.5 -14.5t10.5 -20q0 -4 -1.5 -8.5t-6.5 -12.5l-96 -153q-5 -8 -9.5 -11.5t-10.5 -3.5zM381 610q-13 0 -28.5 8.5t-15.5 21.5q0 3 0.5 6.5t3.5 8.5l86 165q5 8 9.5 13.5t15.5 5.5t25 -5.5t24.5 -14.5t10.5 -20q0 -4 -1.5 -8.5t-6.5 -12.5
l-103 -153q-6 -8 -10.5 -11.5t-9.5 -3.5z" />
    <glyph glyph-name="Uogonek" unicode="&#x172;" horiz-adv-x="1152" 
d="M579 -19q-98 0 -173.5 26.5t-127 79t-78 128.5t-26.5 175v855q0 14 11 20.5t33 6.5t33 -6.5t11 -20.5v-855q0 -105 35.5 -177t106 -109.5t175.5 -37.5q103 0 172.5 37.5t104.5 109.5t35 177v855q0 14 11 20.5t33 6.5q43 0 43 -27v-855q0 -132 -46 -223.5t-135.5 -138.5
t-217.5 -47zM691 -265q-40 0 -71 23.5t-31 71.5q0 28 10 54t28 51.5t44 50.5t60 51l62 1v-9q-23 -19 -45.5 -40.5t-40.5 -43.5t-29 -44t-11 -42q0 -26 11.5 -37t27.5 -11q15 0 28.5 6.5t32.5 21.5q7 5 17 5.5t20 -9.5q10 -9 12.5 -22t-2.5 -21q-12 -17 -34 -30.5t-45.5 -20
t-43.5 -6.5z" />
    <glyph glyph-name="uogonek" unicode="&#x173;" horiz-adv-x="645" 
d="M269 -17q-58 0 -97 20.5t-58.5 61t-19.5 101.5v323q0 13 10.5 19.5t31.5 6.5q22 0 33 -6.5t11 -19.5v-323q0 -35 11 -59t33.5 -36t55.5 -12q28 0 52 9t43.5 24.5t34.5 37.5t25 47v312q0 13 10.5 19.5t32.5 6.5q21 0 32 -6.5t11 -19.5v-393q0 -14 4 -23t11.5 -13t16.5 -4
t16.5 3.5t15 9.5t14.5 11q8 6 17.5 3t17.5 -14q5 -7 7 -17t-5 -19q-10 -15 -26 -26.5t-35 -18.5t-39 -7q-24 0 -41.5 6.5t-29.5 18.5t-19 28t-9 35l-1 9q-14 -22 -31.5 -39.5t-38.5 -30t-45.5 -19t-51.5 -6.5zM496 -244q-39 0 -67.5 22t-28.5 65q0 27 9 50t26.5 45t43 45
t59.5 49l62 1v-9q-23 -19 -44.5 -38t-39 -38t-28 -38t-10.5 -38q0 -21 9.5 -30.5t25.5 -9.5q15 0 27 6t31 21q7 5 17 5.5t20 -8.5q10 -10 12.5 -23t-2.5 -21q-12 -17 -33.5 -30t-45 -19.5t-43.5 -6.5z" />
    <glyph glyph-name="Wcircumflex" unicode="&#x174;" horiz-adv-x="1575" 
d="M398 -14q-23 0 -35.5 9t-19.5 31l-314 1201q-4 14 2.5 24t28.5 17q20 7 33.5 4.5t17.5 -19.5l290 -1128l335 1111q6 20 17.5 28t33.5 8q23 0 34.5 -8t17.5 -28l333 -1110l292 1127q4 17 18 19.5t33 -4.5q22 -7 28.5 -17t2.5 -24l-318 -1201q-6 -22 -18.5 -31t-37.5 -9
q-24 0 -36 9t-19 31l-330 1106l-333 -1106q-6 -22 -18.5 -31t-37.5 -9zM624 1318q-10 0 -22.5 12t-12.5 22v7t5 9l149 145q7 7 16 13.5t28 6.5t27.5 -6.5t15.5 -13.5l151 -145q5 -5 5.5 -9t0.5 -7q0 -10 -13 -22t-23 -12q-6 0 -11 3.5t-13 9.5l-140 102l-138 -102
q-8 -6 -13.5 -9.5t-11.5 -3.5z" />
    <glyph glyph-name="wcircumflex" unicode="&#x175;" horiz-adv-x="806" 
d="M229 -15q-22 0 -32 7t-15 19l-157 454q-7 20 4.5 35t39.5 15q15 0 24 -6t13 -20l124 -380l132 380q5 14 14.5 20t25.5 6q15 0 25 -6t14 -20l135 -380l123 380q5 14 14 20t24 6q29 0 40 -14t3 -36l-159 -454q-4 -12 -14 -19t-32 -7t-30.5 7.5t-12.5 18.5l-130 367
l-127 -367q-4 -11 -14.5 -18.5t-31.5 -7.5zM262 610q-10 0 -22.5 12t-12.5 22q0 3 1 6t5 10l127 159q6 7 15.5 13.5t28.5 6.5t28 -6.5t15 -13.5l128 -159q5 -7 6 -10t1 -6q0 -10 -13 -22t-22 -12q-7 0 -13 3.5t-12 9.5l-118 116l-117 -116q-7 -6 -13 -9.5t-12 -3.5z" />
    <glyph glyph-name="Ycircumflex" unicode="&#x176;" horiz-adv-x="849" 
d="M421 -14q-44 0 -44 28v524l-368 679q-7 13 -1 24t26 21q19 11 31.5 11t22.5 -17l334 -623l341 623q10 17 21.5 17t30.5 -11q21 -10 26.5 -21t-1.5 -24l-375 -680v-523q0 -28 -44 -28zM262 1318q-10 0 -22.5 12t-12.5 22v7t5 9l149 145q7 7 16 13.5t28 6.5t27.5 -6.5
t15.5 -13.5l151 -145q5 -5 5.5 -9t0.5 -7q0 -10 -13 -22t-23 -12q-6 0 -11 3.5t-13 9.5l-140 102l-138 -102q-8 -6 -13.5 -9.5t-11.5 -3.5z" />
    <glyph glyph-name="ycircumflex" unicode="&#x177;" horiz-adv-x="615" 
d="M269 -17q-58 0 -97 20.5t-58.5 61t-19.5 101.5v323q0 13 10.5 19.5t31.5 6.5q22 0 33 -6.5t11 -19.5v-323q0 -35 11 -59t33.5 -36t55.5 -12q28 0 52 9t43.5 25t34.5 38t25 47v311q0 13 10.5 19.5t32.5 6.5q21 0 32 -6.5t11 -19.5v-1033q0 -76 -27.5 -128t-77 -78
t-116.5 -26q-45 0 -81 12.5t-62.5 33.5t-43.5 44q-10 14 -7.5 30.5t23.5 27.5q18 9 28.5 7.5t22.5 -15.5q30 -32 59.5 -47t69.5 -15q39 0 67 16t43.5 50.5t15.5 89.5v618q-13 -21 -30.5 -38.5t-39 -29.5t-45.5 -18.5t-51 -6.5zM166 610q-10 0 -22.5 12t-12.5 22q0 3 1 6
t5 10l127 159q6 7 15.5 13.5t28.5 6.5t28 -6.5t15 -13.5l128 -159q5 -7 6 -10t1 -6q0 -10 -13 -22t-22 -12q-7 0 -13 3.5t-12 9.5l-118 116l-117 -116q-7 -6 -13 -9.5t-12 -3.5z" />
    <glyph glyph-name="Ydieresis" unicode="&#x178;" horiz-adv-x="849" 
d="M421 -14q-44 0 -44 28v524l-368 679q-7 13 -1 24t26 21q19 11 31.5 11t22.5 -17l334 -623l341 623q10 17 21.5 17t30.5 -11q21 -10 26.5 -21t-1.5 -24l-375 -680v-523q0 -28 -44 -28zM295 1357q-28 0 -42.5 16t-14.5 47q0 32 14.5 47.5t42.5 15.5q27 0 41 -15.5t14 -47.5
q1 -32 -13 -47.5t-42 -15.5zM557 1357q-28 0 -42 16t-14 47q0 32 14 47.5t42 15.5q27 0 41 -15.5t14 -47.5q1 -31 -13.5 -47t-41.5 -16z" />
    <glyph glyph-name="Zacute" unicode="&#x179;" horiz-adv-x="818" 
d="M57 0q-12 0 -21 9.5t-12 23t3 25.5l634 1112h-568q-15 0 -21 9t-6 31q0 23 6 31.5t21 8.5h653q19 0 29.5 -20t0.5 -38l-633 -1112h626q15 0 21.5 -8.5t6.5 -31.5q0 -22 -6.5 -31t-21.5 -9h-712zM354 1318q-13 0 -25 13t-12 23q0 4 1.5 8.5t7.5 10.5l158 149q5 5 9.5 8
t12.5 3q10 0 22 -9t21 -21t9 -24q0 -7 -2.5 -12t-12.5 -13l-169 -126q-7 -4 -11.5 -7t-8.5 -3z" />
    <glyph glyph-name="zacute" unicode="&#x17a;" horiz-adv-x="495" 
d="M83 0q-22 0 -29 18t2 31l263 371h-225q-15 0 -22.5 9t-7.5 31q0 23 7.5 31.5t22.5 8.5h329q13 0 20 -8t8 -19.5t-6 -21.5l-262 -371h248q15 0 22 -9.5t7 -32.5q0 -21 -7 -29.5t-22 -8.5h-348zM219 610q-11 0 -26 12t-15 22q0 3 1 6t5 10l107 164q5 8 10.5 11.5t13.5 3.5
q10 0 23.5 -7.5t24 -18t10.5 -19.5q0 -7 -2.5 -11.5t-9.5 -12.5l-123 -147q-12 -13 -19 -13z" />
    <glyph glyph-name="Zdotaccent" unicode="&#x17b;" horiz-adv-x="818" 
d="M57 0q-12 0 -21 9.5t-12 23t3 25.5l634 1112h-568q-15 0 -21 9t-6 31q0 23 6 31.5t21 8.5h653q19 0 29.5 -20t0.5 -38l-633 -1112h626q15 0 21.5 -8.5t6.5 -31.5q0 -22 -6.5 -31t-21.5 -9h-712zM409 1356q-28 0 -42 15.5t-14 46.5q0 32 14 48t42 16q27 0 41 -16t14 -48
q1 -31 -13.5 -46.5t-41.5 -15.5z" />
    <glyph glyph-name="zdotaccent" unicode="&#x17c;" horiz-adv-x="495" 
d="M83 0q-22 0 -29 18t2 31l263 371h-225q-15 0 -22.5 9t-7.5 31q0 23 7.5 31.5t22.5 8.5h329q13 0 20 -8t8 -19.5t-6 -21.5l-262 -371h248q15 0 22 -9.5t7 -32.5q0 -21 -7 -29.5t-22 -8.5h-348zM250 669q-28 0 -42 15.5t-14 46.5q0 32 14 48t42 16q27 0 41 -16t14 -48
q1 -31 -13.5 -46.5t-41.5 -15.5z" />
    <glyph glyph-name="Zcaron" unicode="&#x17d;" horiz-adv-x="818" 
d="M57 0q-12 0 -21 9.5t-12 23t3 25.5l634 1112h-568q-15 0 -21 9t-6 31q0 23 6 31.5t21 8.5h653q19 0 29.5 -20t0.5 -38l-633 -1112h626q15 0 21.5 -8.5t6.5 -31.5q0 -22 -6.5 -31t-21.5 -9h-712zM574 1533q9 0 22 -11.5t13 -22.5q0 -2 -0.5 -6t-5.5 -10l-149 -145
q-7 -6 -15.5 -13t-28.5 -7q-19 0 -27.5 7t-14.5 13l-152 145q-5 6 -5 10v6q0 11 12.5 22.5t22.5 11.5q6 0 11.5 -3.5t13.5 -8.5l139 -103l139 103q8 5 13 8.5t12 3.5z" />
    <glyph glyph-name="zcaron" unicode="&#x17e;" horiz-adv-x="495" 
d="M83 0q-22 0 -29 18t2 31l263 371h-225q-15 0 -22.5 9t-7.5 31q0 23 7.5 31.5t22.5 8.5h329q13 0 20 -8t8 -19.5t-6 -21.5l-262 -371h248q15 0 22 -9.5t7 -32.5q0 -21 -7 -29.5t-22 -8.5h-348zM393 845q9 0 22 -11.5t13 -22.5q0 -2 -1 -5.5t-6 -10.5l-127 -159
q-6 -6 -15 -13t-29 -7q-19 0 -28 7t-14 13l-129 159q-4 7 -5 10.5t-1 5.5q0 11 12.5 22.5t22.5 11.5q6 0 12 -3.5t13 -8.5l117 -117l118 117q6 5 12 8.5t13 3.5z" />
    <glyph glyph-name="Ohorn" unicode="&#x1a0;" horiz-adv-x="1236" 
d="M620 -19q-115 0 -208 46.5t-159 132t-101.5 204t-35.5 263.5q0 97 16 182t46.5 156.5t74.5 128t100 96.5t123.5 61t143.5 21q64 0 120 -15.5t104 -46.5q63 3 100.5 19.5t51.5 43t8 60.5t-29 72q-10 17 -3.5 32t21.5 23.5t31.5 6.5t26.5 -19q28 -45 36.5 -91t-5 -86.5
t-52.5 -70.5t-107 -42q94 -83 145.5 -219.5t51.5 -311.5q0 -96 -16 -181.5t-46 -157.5t-74 -128.5t-100 -96.5t-122 -61t-142 -21zM620 66q61 0 114.5 17.5t99 51.5t81 82.5t61 111t38.5 137.5t13 161q0 129 -29.5 232t-83 176.5t-128.5 112.5t-166 39q-62 0 -116 -17.5
t-100 -51.5t-81.5 -82.5t-61 -111t-39 -137t-13.5 -160.5q0 -129 29.5 -232.5t84 -177t130 -112.5t167.5 -39z" />
    <glyph glyph-name="ohorn" unicode="&#x1a1;" horiz-adv-x="589" 
d="M295 -19q-67 0 -119.5 35t-82.5 95.5t-30 138.5q0 59 17 108t48.5 85t73.5 56t93 20q20 0 39 -3t36 -10q69 3 99.5 23.5t29 52.5t-28.5 69q-11 16 -5.5 31t20 23.5t31.5 7.5t29 -18q35 -49 39 -97.5t-28 -87t-105 -56.5q35 -36 55 -88.5t20 -115.5q0 -47 -11 -88
t-31.5 -74t-49 -57t-64 -37t-75.5 -13zM295 61q33 0 59.5 13t45 38t28.5 60t10 78q0 58 -17 100.5t-49 65.5t-77 23q-33 0 -60 -13t-45.5 -38t-28.5 -59.5t-10 -78.5q0 -58 17.5 -100.5t49.5 -65.5t77 -23z" />
    <glyph glyph-name="Uhorn" unicode="&#x1af;" horiz-adv-x="1152" 
d="M1132 1446q27 -42 31.5 -83.5t-16 -76.5t-70 -57t-132.5 -23v62q70 1 101.5 19.5t32 48.5t-22.5 67q-10 17 -4 32t21 23.5t32 6.5t27 -19zM579 -19q-98 0 -173.5 26.5t-127 79t-78 128.5t-26.5 175v855q0 14 11 20.5t33 6.5t33 -6.5t11 -20.5v-855q0 -105 35.5 -177
t106 -109.5t175.5 -37.5q103 0 172.5 37.5t104.5 109.5t35 177v855q0 14 11 20.5t33 6.5q43 0 43 -27v-855q0 -132 -46 -223.5t-135.5 -138.5t-217.5 -47z" />
    <glyph glyph-name="uhorn" unicode="&#x1b0;" horiz-adv-x="645" 
d="M269 -17q-58 0 -97 20.5t-58.5 61t-19.5 101.5v323q0 13 10.5 19.5t31.5 6.5q22 0 33 -6.5t11 -19.5v-323q0 -35 11 -59t33.5 -36t55.5 -12q28 0 52 9t43.5 24.5t34.5 37.5t25 47v312q0 13 10.5 19.5t32.5 6.5q68 4 97.5 22.5t28.5 48t-28 66.5q-12 16 -6.5 31t20.5 24.5
t32 8t29 -18.5q37 -52 38.5 -102.5t-39 -88t-129.5 -50.5v-360q0 -14 4 -23t11.5 -13t16.5 -4t16.5 3.5t15 9.5t14.5 11q8 6 17.5 3t17.5 -14q5 -7 7 -17t-5 -19q-10 -15 -26 -26.5t-35 -18.5t-39 -7q-24 0 -41.5 6.5t-29.5 18.5t-19 28t-9 35l-1 9q-14 -22 -31.5 -39.5
t-38.5 -30t-45.5 -19t-51.5 -6.5z" />
    <glyph glyph-name="Acaron" unicode="&#x1cd;" horiz-adv-x="1003" 
d="M76 -14q-26 0 -35.5 12.5t-3.5 32.5l408 1201q8 23 20.5 31.5t35.5 8.5q24 0 36 -8.5t19 -31.5l409 -1201q7 -20 -3.5 -32.5t-36.5 -12.5q-22 0 -32 8.5t-17 28.5l-115 346h-521l-116 -346q-7 -20 -16.5 -28.5t-31.5 -8.5zM268 449h465l-232 690zM666 1533q9 0 22 -11.5
t13 -22.5q0 -2 -0.5 -6t-5.5 -10l-149 -145q-7 -6 -15.5 -13t-28.5 -7q-19 0 -27.5 7t-14.5 13l-152 145q-5 6 -5 10v6q0 11 12.5 22.5t22.5 11.5q6 0 11.5 -3.5t13.5 -8.5l139 -103l139 103q8 5 13 8.5t12 3.5z" />
    <glyph glyph-name="acaron" unicode="&#x1ce;" horiz-adv-x="624" 
d="M258 -17q-57 0 -101 27.5t-69 83.5t-25 141q0 52 9.5 96t28.5 79t46 59t62 37t77 13q32 0 66 -10.5t64 -27.5v5q0 15 11 22t33 7t32.5 -6.5t10.5 -20.5v-392q0 -13 4 -21.5t11 -12.5t16 -4q10 0 16.5 2.5t13 7.5t15.5 12q7 6 16 3.5t18 -10.5q9 -10 10 -21t-4 -19
q-11 -16 -28 -27t-36.5 -17t-39.5 -6q-23 0 -40 5t-29 15.5t-18.5 25.5t-9.5 34q0 1 -1 4.5t-1 7.5q-23 -37 -49.5 -57t-54.5 -27.5t-54 -7.5zM151 239q0 -55 13 -94.5t39.5 -60.5t66.5 -21q29 0 55.5 10t49.5 33t41 60v242q-31 19 -60 25.5t-61 6.5q-26 0 -48 -8t-40 -24
t-30.5 -40t-19 -56t-6.5 -73zM449 845q9 0 22 -11.5t13 -22.5q0 -2 -1 -5.5t-6 -10.5l-127 -159q-6 -6 -15 -13t-29 -7q-19 0 -28 7t-14 13l-129 159q-4 7 -5 10.5t-1 5.5q0 11 12.5 22.5t22.5 11.5q6 0 12 -3.5t13 -8.5l117 -117l118 117q6 5 12 8.5t13 3.5z" />
    <glyph glyph-name="Icaron" unicode="&#x1cf;" horiz-adv-x="451" 
d="M226 -14q-22 0 -33 7t-11 21v1231q0 14 11 20.5t33 6.5q21 0 32 -6.5t11 -20.5v-1231q0 -14 -11 -21t-32 -7zM390 1533q9 0 22 -11.5t13 -22.5q0 -2 -0.5 -6t-5.5 -10l-149 -145q-7 -6 -15.5 -13t-28.5 -7q-19 0 -27.5 7t-14.5 13l-152 145q-5 6 -5 10v6q0 11 12.5 22.5
t22.5 11.5q6 0 11.5 -3.5t13.5 -8.5l139 -103l139 103q8 5 13 8.5t12 3.5z" />
    <glyph glyph-name="icaron" unicode="&#x1d0;" horiz-adv-x="304" 
d="M193 -17q-26 0 -45 7t-31 20t-17.5 32.5t-5.5 43.5v403q0 13 10.5 19.5t31.5 6.5q22 0 33 -6.5t11 -19.5v-393q0 -13 4 -21.5t11 -12.5t16 -4q11 0 19 4t15 10t15 12q7 5 15.5 -0.5t17.5 -15.5q5 -7 7 -16t-4 -17q-11 -15 -28 -27t-36.5 -18.5t-38.5 -6.5zM273 845
q9 0 22 -11.5t13 -22.5q0 -2 -1 -5.5t-6 -10.5l-127 -159q-6 -6 -15 -13t-29 -7q-19 0 -28 7t-14 13l-129 159q-4 7 -5 10.5t-1 5.5q0 11 12.5 22.5t22.5 11.5q6 0 12 -3.5t13 -8.5l117 -117l118 117q6 5 12 8.5t13 3.5z" />
    <glyph glyph-name="Ocaron" unicode="&#x1d1;" horiz-adv-x="1236" 
d="M620 -19q-115 0 -208 46.5t-159 132t-101.5 204t-35.5 263.5q0 97 16 182t46.5 156.5t74.5 128t100 96.5t123.5 61t143.5 21q114 0 206 -46.5t158 -132t101 -203.5t35 -263q0 -96 -16 -181.5t-46 -157.5t-74 -128.5t-100 -96.5t-122 -61t-142 -21zM620 66
q61 0 114.5 17.5t99 51.5t81 82.5t61 111t38.5 137.5t13 161q0 129 -29.5 232t-83 176.5t-128.5 112.5t-166 39q-62 0 -116 -17.5t-100 -51.5t-81.5 -82.5t-61 -111t-39 -137t-13.5 -160.5q0 -129 29.5 -232.5t84 -177t130 -112.5t167.5 -39zM784 1533q9 0 22 -11.5
t13 -22.5q0 -2 -0.5 -6t-5.5 -10l-149 -145q-7 -6 -15.5 -13t-28.5 -7q-19 0 -27.5 7t-14.5 13l-152 145q-5 6 -5 10v6q0 11 12.5 22.5t22.5 11.5q6 0 11.5 -3.5t13.5 -8.5l139 -103l139 103q8 5 13 8.5t12 3.5z" />
    <glyph glyph-name="ocaron" unicode="&#x1d2;" horiz-adv-x="589" 
d="M295 -19q-67 0 -119.5 35t-82.5 95.5t-30 138.5q0 59 17 108t48.5 85t73.5 56t93 20q67 0 119 -34.5t82 -95.5t30 -139q0 -47 -11 -88t-31.5 -74t-49 -57t-64 -37t-75.5 -13zM295 61q33 0 59.5 13t45 38t28.5 60t10 78q0 58 -17 100.5t-49 65.5t-77 23q-33 0 -60 -13
t-45.5 -38t-28.5 -59.5t-10 -78.5q0 -58 17.5 -100.5t49.5 -65.5t77 -23zM438 845q9 0 22 -11.5t13 -22.5q0 -2 -1 -5.5t-6 -10.5l-127 -159q-6 -6 -15 -13t-29 -7q-19 0 -28 7t-14 13l-129 159q-4 7 -5 10.5t-1 5.5q0 11 12.5 22.5t22.5 11.5q6 0 12 -3.5t13 -8.5l117 -117
l118 117q6 5 12 8.5t13 3.5z" />
    <glyph glyph-name="Ucaron" unicode="&#x1d3;" horiz-adv-x="1152" 
d="M579 -19q-98 0 -173.5 26.5t-127 79t-78 128.5t-26.5 175v855q0 14 11 20.5t33 6.5t33 -6.5t11 -20.5v-855q0 -105 35.5 -177t106 -109.5t175.5 -37.5q103 0 172.5 37.5t104.5 109.5t35 177v855q0 14 11 20.5t33 6.5q43 0 43 -27v-855q0 -132 -46 -223.5t-135.5 -138.5
t-217.5 -47zM741 1533q9 0 22 -11.5t13 -22.5q0 -2 -0.5 -6t-5.5 -10l-149 -145q-7 -6 -15.5 -13t-28.5 -7q-19 0 -27.5 7t-14.5 13l-152 145q-5 6 -5 10v6q0 11 12.5 22.5t22.5 11.5q6 0 11.5 -3.5t13.5 -8.5l139 -103l139 103q8 5 13 8.5t12 3.5z" />
    <glyph glyph-name="ucaron" unicode="&#x1d4;" horiz-adv-x="645" 
d="M269 -17q-58 0 -97 20.5t-58.5 61t-19.5 101.5v323q0 13 10.5 19.5t31.5 6.5q22 0 33 -6.5t11 -19.5v-323q0 -35 11 -59t33.5 -36t55.5 -12q28 0 52 9t43.5 24.5t34.5 37.5t25 47v312q0 13 10.5 19.5t32.5 6.5q21 0 32 -6.5t11 -19.5v-393q0 -14 4 -23t11.5 -13t16.5 -4
t16.5 3.5t15 9.5t14.5 11q8 6 17.5 3t17.5 -14q5 -7 7 -17t-5 -19q-10 -15 -26 -26.5t-35 -18.5t-39 -7q-24 0 -41.5 6.5t-29.5 18.5t-19 28t-9 35l-1 9q-14 -22 -31.5 -39.5t-38.5 -30t-45.5 -19t-51.5 -6.5zM446 845q9 0 22 -11.5t13 -22.5q0 -2 -1 -5.5t-6 -10.5
l-127 -159q-6 -6 -15 -13t-29 -7q-19 0 -28 7t-14 13l-129 159q-4 7 -5 10.5t-1 5.5q0 11 12.5 22.5t22.5 11.5q6 0 12 -3.5t13 -8.5l117 -117l118 117q6 5 12 8.5t13 3.5z" />
    <glyph glyph-name="Udieresismacron" unicode="&#x1d5;" horiz-adv-x="1152" 
d="M579 -19q-98 0 -173.5 26.5t-127 79t-78 128.5t-26.5 175v855q0 14 11 20.5t33 6.5t33 -6.5t11 -20.5v-855q0 -105 35.5 -177t106 -109.5t175.5 -37.5q103 0 172.5 37.5t104.5 109.5t35 177v855q0 14 11 20.5t33 6.5q43 0 43 -27v-855q0 -132 -46 -223.5t-135.5 -138.5
t-217.5 -47zM446 1357q-28 0 -42.5 16t-14.5 47q0 32 14.5 47.5t42.5 15.5q27 0 41 -15.5t14 -47.5q1 -32 -13 -47.5t-42 -15.5zM708 1357q-28 0 -42 16t-14 47q0 32 14 47.5t42 15.5q27 0 41 -15.5t14 -47.5q1 -31 -13.5 -47t-41.5 -16zM430 1576q-17 0 -22 11.5t-5 29.5
q0 19 5 31.5t22 12.5h293q18 0 22.5 -12.5t4.5 -31.5q0 -18 -4.5 -29.5t-22.5 -11.5h-293z" />
    <glyph glyph-name="udieresismacron" unicode="&#x1d6;" horiz-adv-x="645" 
d="M269 -17q-58 0 -97 20.5t-58.5 61t-19.5 101.5v323q0 13 10.5 19.5t31.5 6.5q22 0 33 -6.5t11 -19.5v-323q0 -35 11 -59t33.5 -36t55.5 -12q28 0 52 9t43.5 24.5t34.5 37.5t25 47v312q0 13 10.5 19.5t32.5 6.5q21 0 32 -6.5t11 -19.5v-393q0 -14 4 -23t11.5 -13t16.5 -4
t16.5 3.5t15 9.5t14.5 11q8 6 17.5 3t17.5 -14q5 -7 7 -17t-5 -19q-10 -15 -26 -26.5t-35 -18.5t-39 -7q-24 0 -41.5 6.5t-29.5 18.5t-19 28t-9 35l-1 9q-14 -22 -31.5 -39.5t-38.5 -30t-45.5 -19t-51.5 -6.5zM186 669q-28 0 -42 15.5t-14 46.5q0 32 14 48t42 16t41.5 -16
t13.5 -48q2 -31 -12.5 -46.5t-42.5 -15.5zM421 669q-28 0 -42 15.5t-14 46.5q0 32 14 48t42 16q27 0 41 -16t14 -48q1 -31 -13.5 -46.5t-41.5 -15.5zM169 917q-17 0 -22 12t-5 30q0 19 5 31t22 12h268q18 0 22.5 -12t4.5 -31q0 -18 -4.5 -30t-22.5 -12h-268z" />
    <glyph glyph-name="Udieresisacute" unicode="&#x1d7;" horiz-adv-x="1152" 
d="M579 -19q-98 0 -173.5 26.5t-127 79t-78 128.5t-26.5 175v855q0 14 11 20.5t33 6.5t33 -6.5t11 -20.5v-855q0 -105 35.5 -177t106 -109.5t175.5 -37.5q103 0 172.5 37.5t104.5 109.5t35 177v855q0 14 11 20.5t33 6.5q43 0 43 -27v-855q0 -132 -46 -223.5t-135.5 -138.5
t-217.5 -47zM446 1357q-28 0 -42.5 16t-14.5 47q0 32 14.5 47.5t42.5 15.5q27 0 41 -15.5t14 -47.5q1 -32 -13 -47.5t-42 -15.5zM708 1357q-28 0 -42 16t-14 47q0 32 14 47.5t42 15.5q27 0 41 -15.5t14 -47.5q1 -31 -13.5 -47t-41.5 -16zM521 1513q-13 0 -25 13t-12 23
q0 4 1.5 8.5t7.5 10.5l158 149q5 5 9.5 8t12.5 3q10 0 22 -9t21 -21t9 -24q0 -7 -2.5 -12t-12.5 -13l-169 -126q-7 -4 -11.5 -7t-8.5 -3z" />
    <glyph glyph-name="udieresisacute" unicode="&#x1d8;" horiz-adv-x="645" 
d="M269 -17q-58 0 -97 20.5t-58.5 61t-19.5 101.5v323q0 13 10.5 19.5t31.5 6.5q22 0 33 -6.5t11 -19.5v-323q0 -35 11 -59t33.5 -36t55.5 -12q28 0 52 9t43.5 24.5t34.5 37.5t25 47v312q0 13 10.5 19.5t32.5 6.5q21 0 32 -6.5t11 -19.5v-393q0 -14 4 -23t11.5 -13t16.5 -4
t16.5 3.5t15 9.5t14.5 11q8 6 17.5 3t17.5 -14q5 -7 7 -17t-5 -19q-10 -15 -26 -26.5t-35 -18.5t-39 -7q-24 0 -41.5 6.5t-29.5 18.5t-19 28t-9 35l-1 9q-14 -22 -31.5 -39.5t-38.5 -30t-45.5 -19t-51.5 -6.5zM186 669q-28 0 -42 15.5t-14 46.5q0 32 14 48t42 16t41.5 -16
t13.5 -48q2 -31 -12.5 -46.5t-42.5 -15.5zM421 669q-28 0 -42 15.5t-14 46.5q0 32 14 48t42 16q27 0 41 -16t14 -48q1 -31 -13.5 -46.5t-41.5 -15.5zM272 841q-11 0 -26 12t-15 22q0 3 1 6t5 10l107 164q5 8 10.5 11.5t13.5 3.5q10 0 23.5 -7.5t24 -18t10.5 -19.5
q0 -7 -2.5 -11.5t-9.5 -12.5l-123 -147q-12 -13 -19 -13z" />
    <glyph glyph-name="Udieresiscaron" unicode="&#x1d9;" horiz-adv-x="1152" 
d="M579 -19q-98 0 -173.5 26.5t-127 79t-78 128.5t-26.5 175v855q0 14 11 20.5t33 6.5t33 -6.5t11 -20.5v-855q0 -105 35.5 -177t106 -109.5t175.5 -37.5q103 0 172.5 37.5t104.5 109.5t35 177v855q0 14 11 20.5t33 6.5q43 0 43 -27v-855q0 -132 -46 -223.5t-135.5 -138.5
t-217.5 -47zM446 1357q-28 0 -42.5 16t-14.5 47q0 32 14.5 47.5t42.5 15.5q27 0 41 -15.5t14 -47.5q1 -32 -13 -47.5t-42 -15.5zM708 1357q-28 0 -42 16t-14 47q0 32 14 47.5t42 15.5q27 0 41 -15.5t14 -47.5q1 -31 -13.5 -47t-41.5 -16zM741 1728q9 0 22 -11.5t13 -22.5
q0 -2 -0.5 -6t-5.5 -10l-149 -145q-7 -6 -15.5 -13t-28.5 -7q-19 0 -27.5 7t-14.5 13l-152 145q-5 6 -5 10v6q0 11 12.5 22.5t22.5 11.5q6 0 11.5 -3.5t13.5 -8.5l139 -103l139 103q8 5 13 8.5t12 3.5z" />
    <glyph glyph-name="udieresiscaron" unicode="&#x1da;" horiz-adv-x="645" 
d="M269 -17q-58 0 -97 20.5t-58.5 61t-19.5 101.5v323q0 13 10.5 19.5t31.5 6.5q22 0 33 -6.5t11 -19.5v-323q0 -35 11 -59t33.5 -36t55.5 -12q28 0 52 9t43.5 24.5t34.5 37.5t25 47v312q0 13 10.5 19.5t32.5 6.5q21 0 32 -6.5t11 -19.5v-393q0 -14 4 -23t11.5 -13t16.5 -4
t16.5 3.5t15 9.5t14.5 11q8 6 17.5 3t17.5 -14q5 -7 7 -17t-5 -19q-10 -15 -26 -26.5t-35 -18.5t-39 -7q-24 0 -41.5 6.5t-29.5 18.5t-19 28t-9 35l-1 9q-14 -22 -31.5 -39.5t-38.5 -30t-45.5 -19t-51.5 -6.5zM186 669q-28 0 -42 15.5t-14 46.5q0 32 14 48t42 16t41.5 -16
t13.5 -48q2 -31 -12.5 -46.5t-42.5 -15.5zM421 669q-28 0 -42 15.5t-14 46.5q0 32 14 48t42 16q27 0 41 -16t14 -48q1 -31 -13.5 -46.5t-41.5 -15.5zM446 1076q9 0 22 -11.5t13 -22.5q0 -2 -1 -5.5t-6 -10.5l-127 -159q-6 -6 -15 -13t-29 -7q-19 0 -28 7t-14 13l-129 159
q-4 7 -5 10.5t-1 5.5q0 11 12.5 22.5t22.5 11.5q6 0 12 -3.5t13 -8.5l117 -117l118 117q6 5 12 8.5t13 3.5z" />
    <glyph glyph-name="Udieresisgrave" unicode="&#x1db;" horiz-adv-x="1152" 
d="M579 -19q-98 0 -173.5 26.5t-127 79t-78 128.5t-26.5 175v855q0 14 11 20.5t33 6.5t33 -6.5t11 -20.5v-855q0 -105 35.5 -177t106 -109.5t175.5 -37.5q103 0 172.5 37.5t104.5 109.5t35 177v855q0 14 11 20.5t33 6.5q43 0 43 -27v-855q0 -132 -46 -223.5t-135.5 -138.5
t-217.5 -47zM446 1357q-28 0 -42.5 16t-14.5 47q0 32 14.5 47.5t42.5 15.5q27 0 41 -15.5t14 -47.5q1 -32 -13 -47.5t-42 -15.5zM708 1357q-28 0 -42 16t-14 47q0 32 14 47.5t42 15.5q27 0 41 -15.5t14 -47.5q1 -31 -13.5 -47t-41.5 -16zM631 1513q-4 0 -8.5 3t-11.5 7
l-168 126q-10 8 -12.5 13t-2.5 12q0 12 8.5 24t21 21t21.5 9q8 0 12.5 -3t9.5 -8l158 -149q7 -6 8.5 -10.5t1.5 -8.5q0 -10 -12.5 -23t-25.5 -13z" />
    <glyph glyph-name="udieresisgrave" unicode="&#x1dc;" horiz-adv-x="645" 
d="M269 -17q-58 0 -97 20.5t-58.5 61t-19.5 101.5v323q0 13 10.5 19.5t31.5 6.5q22 0 33 -6.5t11 -19.5v-323q0 -35 11 -59t33.5 -36t55.5 -12q28 0 52 9t43.5 24.5t34.5 37.5t25 47v312q0 13 10.5 19.5t32.5 6.5q21 0 32 -6.5t11 -19.5v-393q0 -14 4 -23t11.5 -13t16.5 -4
t16.5 3.5t15 9.5t14.5 11q8 6 17.5 3t17.5 -14q5 -7 7 -17t-5 -19q-10 -15 -26 -26.5t-35 -18.5t-39 -7q-24 0 -41.5 6.5t-29.5 18.5t-19 28t-9 35l-1 9q-14 -22 -31.5 -39.5t-38.5 -30t-45.5 -19t-51.5 -6.5zM186 669q-28 0 -42 15.5t-14 46.5q0 32 14 48t42 16t41.5 -16
t13.5 -48q2 -31 -12.5 -46.5t-42.5 -15.5zM421 669q-28 0 -42 15.5t-14 46.5q0 32 14 48t42 16q27 0 41 -16t14 -48q1 -31 -13.5 -46.5t-41.5 -15.5zM333 841q-4 0 -8.5 3t-10.5 10l-123 147q-7 8 -9.5 12.5t-2.5 11.5q0 9 10.5 19.5t24 18t23.5 7.5q14 0 24 -15l107 -164
q5 -7 5.5 -10t0.5 -6q0 -10 -15 -22t-26 -12z" />
    <glyph glyph-name="AEacute" unicode="&#x1fc;" horiz-adv-x="1287" 
d="M1204 0h-509q-22 0 -33 10t-11 30v545h-274l-272 -584q-7 -13 -21 -16t-33 5q-16 8 -22 20.5t1 25.5l554 1179q10 21 21 28t39 7h560q15 0 21 -8.5t6 -31.5q0 -22 -6 -31t-21 -9h-465v-505h381q15 0 21.5 -8.5t6.5 -31.5q0 -22 -6.5 -31t-21.5 -9h-381v-505h465
q15 0 21 -8.5t6 -31.5q0 -22 -6 -31t-21 -9zM415 665h236v507zM862 1318q-13 0 -25 13t-12 23q0 4 1.5 8.5t7.5 10.5l158 149q5 5 9.5 8t12.5 3q10 0 22 -9t21 -21t9 -24q0 -7 -2.5 -12t-12.5 -13l-169 -126q-7 -4 -11.5 -7t-8.5 -3z" />
    <glyph glyph-name="aeacute" unicode="&#x1fd;" horiz-adv-x="893" 
d="M63 214q0 49 12 94t35.5 83.5t57.5 67t79 44.5t99 16q46 0 84 -7t73 -19t72 -27q-26 -56 -41 -113t-15 -115q0 -52 17.5 -92t50 -62.5t76.5 -22.5q30 0 51.5 7.5t40.5 23t39 37.5q14 16 27 15.5t27 -11.5t16.5 -23.5t-6.5 -25.5q-29 -38 -60.5 -60.5t-65.5 -32.5t-72 -10
q-70 0 -121 32t-78.5 88.5t-27.5 127.5q0 51 7.5 93t19 77t23.5 62l35 -68q-46 20 -85 33t-90 13q-43 0 -78.5 -16.5t-61 -46.5t-39 -70t-13.5 -88q0 -53 11 -87.5t32.5 -51t50.5 -16.5q30 0 57.5 16.5t52.5 53t49.5 97t48.5 148.5l66 -10q-27 -106 -56 -179.5t-63 -119
t-73.5 -66t-87.5 -20.5q-82 0 -129 60t-47 171zM846 386q0 -42 -17 -74.5t-49 -55.5t-76.5 -38t-99 -22t-116.5 -7v71q41 0 80 4.5t73.5 14t60.5 24t41 33.5t15 43q0 32 -22 46t-57 14q-41 0 -79 -12t-70 -36l-21 77q39 24 78 37.5t97 13.5q72 0 117 -33t45 -100zM475 610
q-11 0 -26 12t-15 22q0 3 1 6t5 10l107 164q5 8 10.5 11.5t13.5 3.5q10 0 23.5 -7.5t24 -18t10.5 -19.5q0 -7 -2.5 -11.5t-9.5 -12.5l-123 -147q-12 -13 -19 -13z" />
    <glyph glyph-name="Scommaaccent" unicode="&#x218;" horiz-adv-x="919" 
d="M441 -19q-43 0 -88.5 8.5t-90.5 26.5t-85 47.5t-71 71.5q-7 11 -6.5 20t14.5 23q14 15 23.5 16.5t28.5 -15.5q34 -35 74.5 -60t90 -39t110.5 -14q68 0 121.5 18t90.5 52t56 83t19 113q0 57 -19 97.5t-54 70t-81.5 52.5t-102.5 43q-47 17 -94 38t-89.5 49t-75 67t-51.5 91
t-19 122q0 74 25.5 131.5t70.5 97t106 60.5t131 21t126 -20t103 -52.5t90 -72.5q11 -10 9 -20.5t-12 -21.5q-13 -13 -24.5 -18t-22.5 3q-41 36 -83.5 62t-87.5 40.5t-98 14.5q-56 0 -100.5 -15t-75.5 -44t-47.5 -70.5t-16.5 -95.5q0 -66 21 -110.5t58 -75.5t85 -53t100 -41
q56 -21 113 -47.5t104.5 -65.5t76 -96.5t28.5 -140.5q0 -81 -26.5 -146t-76.5 -110.5t-120 -70t-157 -24.5zM397 -306q-12 5 -15 13.5t2 23.5q12 30 18.5 56t8.5 52t2 56q0 17 9.5 24t28.5 7q23 0 35.5 -11t12.5 -30q0 -25 -7.5 -56.5t-20 -62.5t-28.5 -55q-10 -16 -20 -19
t-26 2z" />
    <glyph glyph-name="scommaaccent" unicode="&#x219;" horiz-adv-x="486" 
d="M244 -19q-40 0 -75 11t-62 27.5t-43 33.5q-7 8 -6.5 19.5t13.5 25.5q11 11 20 13t20 -6q37 -28 70.5 -41.5t64.5 -13.5q30 0 53 9.5t36.5 28.5t13.5 45q0 32 -19 49.5t-48.5 27t-62.5 19t-62.5 25t-48.5 43.5t-19 76q0 42 21.5 75t60 52t88.5 19q40 0 71.5 -8.5t55 -22
t38.5 -29.5q11 -11 9.5 -21.5t-12.5 -22.5q-11 -13 -21.5 -14.5t-23.5 7.5q-28 20 -56 31t-62 11q-36 0 -59.5 -17.5t-23.5 -49.5q0 -30 18.5 -46.5t48 -27t63 -20.5t63 -26t48 -43.5t18.5 -73.5q0 -43 -20.5 -81t-62.5 -61t-107 -23zM189 -291q-12 5 -15 13t2 23
q12 31 18 53t7.5 44.5t1.5 52.5q0 17 9.5 24t28.5 7q23 0 35.5 -11t12.5 -30q0 -25 -7 -53t-19 -55.5t-28 -51.5q-10 -16 -20 -19t-26 3z" />
    <glyph glyph-name="Tcommaaccent" unicode="&#x21a;" horiz-adv-x="922" 
d="M461 -15q-44 0 -44 28v1157h-362q-15 0 -21.5 9t-6.5 31q0 23 6.5 31.5t21.5 8.5h813q15 0 21 -8.5t6 -31.5q0 -22 -6 -31t-21 -9h-363v-1157q0 -14 -11 -21t-33 -7zM397 -306q-12 5 -15 13.5t2 23.5q12 30 18.5 56t8.5 52t2 56q0 17 9.5 24t28.5 7q23 0 35.5 -11
t12.5 -30q0 -25 -7.5 -56.5t-20 -62.5t-28.5 -55q-10 -16 -20 -19t-26 2z" />
    <glyph glyph-name="tcommaaccent" unicode="&#x21b;" horiz-adv-x="388" 
d="M243 -17q-42 0 -69.5 15.5t-41 44t-13.5 68.5v309h-78q-15 0 -21 9t-6 31q0 23 6 31.5t21 8.5h78v204q0 13 10.5 19.5t31.5 6.5q22 0 33 -6.5t11 -19.5v-204h126q15 0 21.5 -8.5t6.5 -31.5q0 -22 -6.5 -31t-21.5 -9h-126v-299q0 -34 9.5 -48.5t34.5 -14.5q23 0 39.5 11
t34.5 27q12 11 22.5 7.5t19.5 -12.5q11 -10 11.5 -20.5t-5.5 -19.5q-17 -25 -38 -40t-44 -21.5t-46 -6.5zM189 -291q-12 5 -15 13t2 23q12 31 18 53t7.5 44.5t1.5 52.5q0 17 9.5 24t28.5 7q23 0 35.5 -11t12.5 -30q0 -25 -7 -53t-19 -55.5t-28 -51.5q-10 -16 -20 -19t-26 3z
" />
    <glyph glyph-name="jdotless.jmc" unicode="&#x237;" horiz-adv-x="316" 
d="M159 -55q16 15 32 28.5t31.5 25.5t29.5 22t25 17q14 9 26 4t18.5 -18t4.5 -26.5t-16 -22.5q-13 -8 -29 -20.5t-34 -27.5t-36.5 -31t-35.5 -30zM24 -776q-46 0 -79.5 21t-52 61t-18.5 97q0 53 12.5 112t37.5 120.5t63 121.5t89 114q9 11 18.5 21t19.5 19v578
q0 13 10.5 19.5t31.5 6.5q22 0 33 -6.5t11 -19.5v-1033q0 -55 -11.5 -98t-34 -73t-55.5 -45.5t-75 -15.5zM30 -700q21 0 36.5 10.5t26 30t16 47.5t5.5 64v355q-6 -7 -11.5 -14t-11.5 -14q-31 -39 -55.5 -85t-40.5 -95t-24.5 -98.5t-8.5 -95.5q0 -32 8 -55.5t23.5 -36.5
t36.5 -13z" />
    <glyph glyph-name="circumflex" unicode="&#x2c6;" horiz-adv-x="645" 
d="M181 610q-10 0 -22.5 12t-12.5 22q0 3 1 6t5 10l127 159q6 7 15.5 13.5t28.5 6.5t28 -6.5t15 -13.5l128 -159q5 -7 6 -10t1 -6q0 -10 -13 -22t-22 -12q-7 0 -13 3.5t-12 9.5l-118 116l-117 -116q-7 -6 -13 -9.5t-12 -3.5z" />
    <glyph glyph-name="caron" unicode="&#x2c7;" horiz-adv-x="645" 
d="M466 845q9 0 22 -11.5t13 -22.5q0 -2 -1 -5.5t-6 -10.5l-127 -159q-6 -6 -15 -13t-29 -7q-19 0 -28 7t-14 13l-129 159q-4 7 -5 10.5t-1 5.5q0 11 12.5 22.5t22.5 11.5q6 0 12 -3.5t13 -8.5l117 -117l118 117q6 5 12 8.5t13 3.5z" />
    <glyph glyph-name="breve" unicode="&#x2d8;" horiz-adv-x="645" 
d="M323 618q-79 0 -125.5 50.5t-50.5 140.5q-1 12 7 20.5t27 8.5t26 -8t10 -21q9 -45 34.5 -74t71.5 -29q47 0 72 29t34 74q3 14 9.5 21.5t25.5 7.5t28 -8.5t7 -20.5q-2 -57 -25 -100t-62 -67t-89 -24z" />
    <glyph glyph-name="dotaccent" unicode="&#x2d9;" horiz-adv-x="645" 
d="M323 669q-28 0 -42 15.5t-14 46.5q0 32 14 48t42 16q27 0 41 -16t14 -48q1 -31 -13.5 -46.5t-41.5 -15.5z" />
    <glyph glyph-name="ring" unicode="&#x2da;" horiz-adv-x="645" 
d="M323 601q-61 0 -98.5 36t-37.5 94q0 39 17 68t48 45t71 16q61 0 98.5 -35t37.5 -94q0 -39 -17 -68t-47.5 -45.5t-71.5 -16.5zM323 661q21 0 35.5 9t22 24.5t7.5 36.5q0 32 -17 50.5t-48 18.5q-20 0 -35 -8.5t-22.5 -24t-7.5 -36.5q0 -31 17 -50.5t48 -19.5z" />
    <glyph glyph-name="ogonek" unicode="&#x2db;" horiz-adv-x="645" 
d="M304 -257q-39 0 -67.5 22t-28.5 65q0 27 9 50t26.5 45t43 45t59.5 49l62 1v-9q-23 -19 -44.5 -38t-39 -38t-28 -38t-10.5 -38q0 -21 9.5 -30.5t25.5 -9.5q15 0 27 6t31 21q7 5 17 5.5t20 -8.5q10 -10 12.5 -23t-2.5 -21q-12 -17 -33.5 -30t-45 -19.5t-43.5 -6.5z" />
    <glyph glyph-name="tilde" unicode="&#x2dc;" horiz-adv-x="645" 
d="M172 640q-34 0 -34 26q1 73 30 104t75 31q30 0 52.5 -11.5t40.5 -26t34 -26t32 -11.5q13 0 21.5 14.5t9.5 40.5q2 22 34 22q20 0 28 -7t8 -21q-1 -61 -25.5 -97.5t-81.5 -36.5q-29 0 -52 11.5t-41.5 27t-34 27t-30.5 11.5q-12 0 -20 -13t-10 -39q-1 -13 -10 -19.5
t-26 -6.5z" />
    </font>
</defs>
</svg>
